<svg xmlns="http://www.w3.org/2000/svg" xmlns:xlink="http://www.w3.org/1999/xlink" contentStyleType="text/css" data-diagram-type="CLASS" height="1307px" preserveAspectRatio="none" style="width:1045px;height:1307px;background:#FFFFFF;" version="1.1" viewBox="0 0 1045 1307" width="1045px" zoomAndPan="magnify"><defs/><g><!--cluster mcp-server--><g class="cluster" data-entity="mcp-server" data-source-line="9" data-uid="ent0002" id="cluster_mcp-server"><path d="M8.5,6 L94.1016,6 A3.75,3.75 0 0 1 96.6016,8.5 L103.6016,28.4883 L1035.5,28.4883 A2.5,2.5 0 0 1 1038,30.9883 L1038,1297.68 A2.5,2.5 0 0 1 1035.5,1300.18 L8.5,1300.18 A2.5,2.5 0 0 1 6,1297.68 L6,8.5 A2.5,2.5 0 0 1 8.5,6" fill="#E8F5E9" style="stroke:#000000;stroke-width:1.5;"/><line style="stroke:#000000;stroke-width:1.5;" x1="6" x2="103.6016" y1="28.4883" y2="28.4883"/><text fill="#000000" font-family="sans-serif" font-size="14" font-weight="bold" lengthAdjust="spacing" textLength="84.6016" x="10" y="21.5352">mcp-server</text></g><!--class mcp_tool--><g class="entity" data-entity="mcp_tool" data-source-line="11" data-uid="ent0003" id="entity_mcp_tool"><rect fill="#BBDEFB" height="130.4414" rx="2.5" ry="2.5" style="stroke:#181818;stroke-width:0.5;" width="208.4307" x="107.78" y="821.3"/><ellipse cx="176.4778" cy="837.3" fill="#ADD1B2" rx="11" ry="11" style="stroke:#181818;stroke-width:1;"/><path d="M178.9509,843.4431 Q178.3698,843.7419 177.7307,843.8913 Q177.0915,844.0407 176.386,844.0407 Q173.8791,844.0407 172.5593,842.3889 Q171.2395,840.737 171.2395,837.6159 Q171.2395,834.4865 172.5593,832.8347 Q173.8791,831.1828 176.386,831.1828 Q177.0915,831.1828 177.739,831.3322 Q178.3864,831.4816 178.9509,831.7805 L178.9509,834.5031 Q178.32,833.9221 177.7265,833.6523 Q177.133,833.3825 176.5022,833.3825 Q175.1574,833.3825 174.4726,834.4492 Q173.7878,835.5158 173.7878,837.6159 Q173.7878,839.7077 174.4726,840.7744 Q175.1574,841.841 176.5022,841.841 Q177.133,841.841 177.7265,841.5712 Q178.32,841.3015 178.9509,840.7204 Z " fill="#000000"/><text fill="#000000" font-family="sans-serif" font-size="14" lengthAdjust="spacing" textLength="62.5352" x="196.9778" y="842.591">mcp_tool</text><line style="stroke:#181818;stroke-width:0.5;" x1="108.78" x2="315.2107" y1="853.3" y2="853.3"/><ellipse cx="118.78" cy="867.0441" fill="none" rx="3" ry="3" style="stroke:#038048;stroke-width:1;"/><text fill="#000000" font-family="sans-serif" font-size="14" lengthAdjust="spacing" textLength="90.1455" x="127.78" y="870.8352">name : string</text><ellipse cx="118.78" cy="883.5324" fill="none" rx="3" ry="3" style="stroke:#038048;stroke-width:1;"/><text fill="#000000" font-family="sans-serif" font-size="14" lengthAdjust="spacing" textLength="79.2217" x="127.78" y="887.3234">title : string</text><ellipse cx="118.78" cy="900.0207" fill="none" rx="3" ry="3" style="stroke:#038048;stroke-width:1;"/><text fill="#000000" font-family="sans-serif" font-size="14" lengthAdjust="spacing" textLength="128.9326" x="127.78" y="903.8117">description : string</text><ellipse cx="118.78" cy="916.509" fill="none" rx="3" ry="3" style="stroke:#038048;stroke-width:1;"/><text fill="#000000" font-family="sans-serif" font-size="14" lengthAdjust="spacing" textLength="182.4307" x="127.78" y="920.3">input-schema : hash-table</text><ellipse cx="118.78" cy="932.9973" fill="none" rx="3" ry="3" style="stroke:#038048;stroke-width:1;"/><text fill="#000000" font-family="sans-serif" font-size="14" lengthAdjust="spacing" textLength="121.0508" x="127.78" y="936.7883">handler : function</text><line style="stroke:#181818;stroke-width:0.5;" x1="108.78" x2="315.2107" y1="943.7414" y2="943.7414"/></g><!--class ToolsRegistry--><g class="entity" data-entity="ToolsRegistry" data-source-line="19" data-uid="ent0004" id="entity_ToolsRegistry"><rect fill="#BBDEFB" height="113.9531" rx="2.5" ry="2.5" style="stroke:#181818;stroke-width:0.5;" width="262.4551" x="116.77" y="630.34"/><ellipse cx="197.7075" cy="646.34" fill="#ADD1B2" rx="11" ry="11" style="stroke:#181818;stroke-width:1;"/><path d="M200.1806,652.4831 Q199.5996,652.7819 198.9604,652.9313 Q198.3213,653.0807 197.6157,653.0807 Q195.1089,653.0807 193.789,651.4289 Q192.4692,649.777 192.4692,646.6559 Q192.4692,643.5265 193.789,641.8747 Q195.1089,640.2228 197.6157,640.2228 Q198.3213,640.2228 198.9687,640.3722 Q199.6162,640.5216 200.1806,640.8205 L200.1806,643.5431 Q199.5498,642.9621 198.9563,642.6923 Q198.3628,642.4225 197.7319,642.4225 Q196.3872,642.4225 195.7024,643.4892 Q195.0176,644.5558 195.0176,646.6559 Q195.0176,648.7477 195.7024,649.8144 Q196.3872,650.881 197.7319,650.881 Q198.3628,650.881 198.9563,650.6112 Q199.5498,650.3415 200.1806,649.7604 Z " fill="#000000"/><text fill="#000000" font-family="sans-serif" font-size="14" lengthAdjust="spacing" textLength="92.0801" x="218.2075" y="651.631">ToolsRegistry</text><line style="stroke:#181818;stroke-width:0.5;" x1="117.77" x2="378.2251" y1="662.34" y2="662.34"/><ellipse cx="127.77" cy="676.0841" fill="none" rx="3" ry="3" style="stroke:#038048;stroke-width:1;"/><text fill="#000000" font-family="sans-serif" font-size="14" lengthAdjust="spacing" textLength="203.916" x="136.77" y="679.8752">*mcp-tools* : list&lt;mcp-tool&gt;</text><line style="stroke:#181818;stroke-width:1;" x1="117.77" x2="378.2251" y1="686.8283" y2="686.8283"/><ellipse cx="127.77" cy="700.5724" fill="#84BE84" rx="3" ry="3" style="stroke:#038048;stroke-width:1;"/><text fill="#000000" font-family="sans-serif" font-size="14" lengthAdjust="spacing" textLength="236.4551" x="136.77" y="704.3634">register-mcp-tool(tool) : mcp-tool</text><ellipse cx="127.77" cy="717.0607" fill="#84BE84" rx="3" ry="3" style="stroke:#038048;stroke-width:1;"/><text fill="#000000" font-family="sans-serif" font-size="14" lengthAdjust="spacing" textLength="221.751" x="136.77" y="720.8517">find-mcp-tool(name) : mcp-tool</text><ellipse cx="127.77" cy="733.549" fill="#84BE84" rx="3" ry="3" style="stroke:#038048;stroke-width:1;"/><text fill="#000000" font-family="sans-serif" font-size="14" lengthAdjust="spacing" textLength="188.624" x="136.77" y="737.34">mcp-tool-&gt;json(tool) : alist</text></g><!--class MCPProtocol--><g class="entity" data-entity="MCPProtocol" data-source-line="27" data-uid="ent0005" id="entity_MCPProtocol"><rect fill="#BBDEFB" height="163.418" rx="2.5" ry="2.5" style="stroke:#181818;stroke-width:0.5;" width="347.2275" x="101.39" y="389.93"/><ellipse cx="228.1522" cy="405.93" fill="#ADD1B2" rx="11" ry="11" style="stroke:#181818;stroke-width:1;"/><path d="M230.6254,412.0731 Q230.0443,412.3719 229.4051,412.5213 Q228.766,412.6707 228.0604,412.6707 Q225.5536,412.6707 224.2338,411.0189 Q222.9139,409.367 222.9139,406.2459 Q222.9139,403.1165 224.2338,401.4647 Q225.5536,399.8128 228.0604,399.8128 Q228.766,399.8128 229.4134,399.9622 Q230.0609,400.1116 230.6254,400.4105 L230.6254,403.1331 Q229.9945,402.5521 229.401,402.2823 Q228.8075,402.0125 228.1766,402.0125 Q226.8319,402.0125 226.1471,403.0792 Q225.4623,404.1458 225.4623,406.2459 Q225.4623,408.3377 226.1471,409.4044 Q226.8319,410.471 228.1766,410.471 Q228.8075,410.471 229.401,410.2012 Q229.9945,409.9315 230.6254,409.3504 Z " fill="#000000"/><text fill="#000000" font-family="sans-serif" font-size="14" lengthAdjust="spacing" textLength="85.2031" x="248.6522" y="411.221">MCPProtocol</text><line style="stroke:#181818;stroke-width:0.5;" x1="102.39" x2="447.6175" y1="421.93" y2="421.93"/><line style="stroke:#181818;stroke-width:1;" x1="102.39" x2="447.6175" y1="429.93" y2="429.93"/><ellipse cx="112.39" cy="443.6741" fill="#84BE84" rx="3" ry="3" style="stroke:#038048;stroke-width:1;"/><text fill="#000000" font-family="sans-serif" font-size="14" lengthAdjust="spacing" textLength="219.4814" x="121.39" y="447.4652">write-json-response(alist) : void</text><ellipse cx="112.39" cy="460.1624" fill="#84BE84" rx="3" ry="3" style="stroke:#038048;stroke-width:1;"/><text fill="#000000" font-family="sans-serif" font-size="14" lengthAdjust="spacing" textLength="321.2275" x="121.39" y="463.9534">make-error-response(id, code, message) : alist</text><ellipse cx="112.39" cy="476.6507" fill="#84BE84" rx="3" ry="3" style="stroke:#038048;stroke-width:1;"/><text fill="#000000" font-family="sans-serif" font-size="14" lengthAdjust="spacing" textLength="234.1035" x="121.39" y="480.4417">handle-initialize(id, params) : alist</text><ellipse cx="112.39" cy="493.139" fill="#84BE84" rx="3" ry="3" style="stroke:#038048;stroke-width:1;"/><text fill="#000000" font-family="sans-serif" font-size="14" lengthAdjust="spacing" textLength="238.5742" x="121.39" y="496.93">handle-tools-list(id, params) : alist</text><ellipse cx="112.39" cy="509.6273" fill="#84BE84" rx="3" ry="3" style="stroke:#038048;stroke-width:1;"/><text fill="#000000" font-family="sans-serif" font-size="14" lengthAdjust="spacing" textLength="241.1035" x="121.39" y="513.4183">handle-tools-call(id, params) : alist</text><ellipse cx="112.39" cy="526.1155" fill="#84BE84" rx="3" ry="3" style="stroke:#038048;stroke-width:1;"/><text fill="#000000" font-family="sans-serif" font-size="14" lengthAdjust="spacing" textLength="298.6074" x="121.39" y="529.9066">handle-json-rpc-request(json-string) : alist</text><ellipse cx="112.39" cy="542.6038" fill="#84BE84" rx="3" ry="3" style="stroke:#038048;stroke-width:1;"/><text fill="#000000" font-family="sans-serif" font-size="14" lengthAdjust="spacing" textLength="220.7256" x="121.39" y="546.3948">handle-json-rpc-line(line) : void</text></g><!--class MainServer--><g class="entity" data-entity="MainServer" data-source-line="38" data-uid="ent0006" id="entity_MainServer"><rect fill="#BBDEFB" height="64.4883" rx="2.5" ry="2.5" style="stroke:#181818;stroke-width:0.5;" width="186.8975" x="21.55" y="223.71"/><ellipse cx="73.5646" cy="239.71" fill="#ADD1B2" rx="11" ry="11" style="stroke:#181818;stroke-width:1;"/><path d="M76.0378,245.8531 Q75.4567,246.1519 74.8176,246.3013 Q74.1784,246.4507 73.4729,246.4507 Q70.966,246.4507 69.6462,244.7989 Q68.3264,243.147 68.3264,240.0259 Q68.3264,236.8965 69.6462,235.2447 Q70.966,233.5928 73.4729,233.5928 Q74.1784,233.5928 74.8259,233.7422 Q75.4733,233.8916 76.0378,234.1905 L76.0378,236.9131 Q75.4069,236.3321 74.8134,236.0623 Q74.2199,235.7925 73.5891,235.7925 Q72.2443,235.7925 71.5595,236.8592 Q70.8747,237.9258 70.8747,240.0259 Q70.8747,242.1177 71.5595,243.1844 Q72.2443,244.251 73.5891,244.251 Q74.2199,244.251 74.8134,243.9812 Q75.4069,243.7115 76.0378,243.1304 Z " fill="#000000"/><text fill="#000000" font-family="sans-serif" font-size="14" lengthAdjust="spacing" textLength="74.3682" x="94.0646" y="245.001">MainServer</text><line style="stroke:#181818;stroke-width:0.5;" x1="22.55" x2="207.4475" y1="255.71" y2="255.71"/><line style="stroke:#181818;stroke-width:1;" x1="22.55" x2="207.4475" y1="263.71" y2="263.71"/><ellipse cx="32.55" cy="277.4541" fill="#84BE84" rx="3" ry="3" style="stroke:#038048;stroke-width:1;"/><text fill="#000000" font-family="sans-serif" font-size="14" lengthAdjust="spacing" textLength="160.8975" x="41.55" y="281.2452">run-mcp-server() : void</text></g><!--class HTTPServer--><g class="entity" data-entity="HTTPServer" data-source-line="43" data-uid="ent0007" id="entity_HTTPServer"><rect fill="#BBDEFB" height="113.9531" rx="2.5" ry="2.5" style="stroke:#181818;stroke-width:0.5;" width="288.8555" x="487.57" y="198.97"/><ellipse cx="588.9606" cy="214.97" fill="#ADD1B2" rx="11" ry="11" style="stroke:#181818;stroke-width:1;"/><path d="M591.4338,221.1131 Q590.8527,221.4119 590.2136,221.5613 Q589.5744,221.7107 588.8688,221.7107 Q586.362,221.7107 585.0422,220.0589 Q583.7223,218.407 583.7223,215.2859 Q583.7223,212.1565 585.0422,210.5047 Q586.362,208.8528 588.8688,208.8528 Q589.5744,208.8528 590.2219,209.0022 Q590.8693,209.1516 591.4338,209.4505 L591.4338,212.1731 Q590.8029,211.5921 590.2094,211.3223 Q589.6159,211.0525 588.985,211.0525 Q587.6403,211.0525 586.9555,212.1192 Q586.2707,213.1858 586.2707,215.2859 Q586.2707,217.3777 586.9555,218.4444 Q587.6403,219.511 588.985,219.511 Q589.6159,219.511 590.2094,219.2412 Q590.8029,218.9715 591.4338,218.3904 Z " fill="#000000"/><text fill="#000000" font-family="sans-serif" font-size="14" lengthAdjust="spacing" textLength="77.5742" x="609.4606" y="220.261">HTTPServer</text><line style="stroke:#181818;stroke-width:0.5;" x1="488.57" x2="775.4255" y1="230.97" y2="230.97"/><ellipse cx="498.57" cy="244.7141" fill="none" rx="3" ry="3" style="stroke:#038048;stroke-width:1;"/><text fill="#000000" font-family="sans-serif" font-size="14" lengthAdjust="spacing" textLength="199.6982" x="507.57" y="248.5052">*mcp-http-server* : acceptor</text><line style="stroke:#181818;stroke-width:1;" x1="488.57" x2="775.4255" y1="255.4583" y2="255.4583"/><ellipse cx="498.57" cy="269.2024" fill="#84BE84" rx="3" ry="3" style="stroke:#038048;stroke-width:1;"/><text fill="#000000" font-family="sans-serif" font-size="14" lengthAdjust="spacing" textLength="186.6826" x="507.57" y="272.9934">mcp-http-handler() : string</text><ellipse cx="498.57" cy="285.6907" fill="#84BE84" rx="3" ry="3" style="stroke:#038048;stroke-width:1;"/><text fill="#000000" font-family="sans-serif" font-size="14" lengthAdjust="spacing" textLength="262.8555" x="507.57" y="289.4817">start-mcp-http-server(port) : acceptor</text><ellipse cx="498.57" cy="302.179" fill="#84BE84" rx="3" ry="3" style="stroke:#038048;stroke-width:1;"/><text fill="#000000" font-family="sans-serif" font-size="14" lengthAdjust="spacing" textLength="203.6494" x="507.57" y="305.97">stop-mcp-http-server() : void</text></g><!--class HTTPUtils--><g class="entity" data-entity="HTTPUtils" data-source-line="51" data-uid="ent0008" id="entity_HTTPUtils"><rect fill="#BBDEFB" height="97.4648" rx="2.5" ry="2.5" style="stroke:#181818;stroke-width:0.5;" width="307.2715" x="173.36" y="1028.74"/><ellipse cx="289.7965" cy="1044.74" fill="#ADD1B2" rx="11" ry="11" style="stroke:#181818;stroke-width:1;"/><path d="M292.2697,1050.8831 Q291.6886,1051.1819 291.0495,1051.3313 Q290.4103,1051.4807 289.7047,1051.4807 Q287.1979,1051.4807 285.8781,1049.8289 Q284.5582,1048.177 284.5582,1045.0559 Q284.5582,1041.9265 285.8781,1040.2747 Q287.1979,1038.6228 289.7047,1038.6228 Q290.4103,1038.6228 291.0578,1038.7722 Q291.7052,1038.9216 292.2697,1039.2205 L292.2697,1041.9431 Q291.6388,1041.3621 291.0453,1041.0923 Q290.4518,1040.8225 289.8209,1040.8225 Q288.4762,1040.8225 287.7914,1041.8892 Q287.1066,1042.9558 287.1066,1045.0559 Q287.1066,1047.1477 287.7914,1048.2144 Q288.4762,1049.281 289.8209,1049.281 Q290.4518,1049.281 291.0453,1049.0112 Q291.6388,1048.7415 292.2697,1048.1604 Z " fill="#000000"/><text fill="#000000" font-family="sans-serif" font-size="14" lengthAdjust="spacing" textLength="65.8984" x="310.2965" y="1050.031">HTTPUtils</text><line style="stroke:#181818;stroke-width:0.5;" x1="174.36" x2="479.6315" y1="1060.74" y2="1060.74"/><line style="stroke:#181818;stroke-width:1;" x1="174.36" x2="479.6315" y1="1068.74" y2="1068.74"/><ellipse cx="184.36" cy="1082.4841" fill="#84BE84" rx="3" ry="3" style="stroke:#038048;stroke-width:1;"/><text fill="#000000" font-family="sans-serif" font-size="14" lengthAdjust="spacing" textLength="187.8311" x="193.36" y="1086.2752">body-&gt;string(body) : string</text><ellipse cx="184.36" cy="1098.9724" fill="#84BE84" rx="3" ry="3" style="stroke:#038048;stroke-width:1;"/><text fill="#000000" font-family="sans-serif" font-size="14" lengthAdjust="spacing" textLength="223.8975" x="193.36" y="1102.7634">http-get(url, parameters) : string</text><ellipse cx="184.36" cy="1115.4607" fill="#84BE84" rx="3" ry="3" style="stroke:#038048;stroke-width:1;"/><text fill="#000000" font-family="sans-serif" font-size="14" lengthAdjust="spacing" textLength="281.2715" x="193.36" y="1119.2517">http-post-json(url, payload-alist) : string</text></g><!--class Logging--><g class="entity" data-entity="Logging" data-source-line="58" data-uid="ent0009" id="entity_Logging"><rect fill="#BBDEFB" height="80.9766" rx="2.5" ry="2.5" style="stroke:#181818;stroke-width:0.5;" width="165.0908" x="384.45" y="1203.2"/><ellipse cx="435.2513" cy="1219.2" fill="#ADD1B2" rx="11" ry="11" style="stroke:#181818;stroke-width:1;"/><path d="M437.7244,1225.3431 Q437.1434,1225.6419 436.5042,1225.7913 Q435.865,1225.9407 435.1595,1225.9407 Q432.6526,1225.9407 431.3328,1224.2889 Q430.013,1222.637 430.013,1219.5159 Q430.013,1216.3865 431.3328,1214.7347 Q432.6526,1213.0828 435.1595,1213.0828 Q435.865,1213.0828 436.5125,1213.2322 Q437.16,1213.3816 437.7244,1213.6805 L437.7244,1216.4031 Q437.0936,1215.8221 436.5,1215.5523 Q435.9065,1215.2825 435.2757,1215.2825 Q433.931,1215.2825 433.2461,1216.3492 Q432.5613,1217.4158 432.5613,1219.5159 Q432.5613,1221.6077 433.2461,1222.6744 Q433.931,1223.741 435.2757,1223.741 Q435.9065,1223.741 436.5,1223.4712 Q437.0936,1223.2015 437.7244,1222.6204 Z " fill="#000000"/><text fill="#000000" font-family="sans-serif" font-size="14" lengthAdjust="spacing" textLength="54.9883" x="455.7513" y="1224.491">Logging</text><line style="stroke:#181818;stroke-width:0.5;" x1="385.45" x2="548.5408" y1="1235.2" y2="1235.2"/><ellipse cx="395.45" cy="1248.9441" fill="none" rx="3" ry="3" style="stroke:#038048;stroke-width:1;"/><text fill="#000000" font-family="sans-serif" font-size="14" lengthAdjust="spacing" textLength="123.9014" x="404.45" y="1252.7352">*debug* : boolean</text><line style="stroke:#181818;stroke-width:1;" x1="385.45" x2="548.5408" y1="1259.6883" y2="1259.6883"/><ellipse cx="395.45" cy="1273.4324" fill="#84BE84" rx="3" ry="3" style="stroke:#038048;stroke-width:1;"/><text fill="#000000" font-family="sans-serif" font-size="14" lengthAdjust="spacing" textLength="139.0908" x="404.45" y="1277.2234">dbg(fmt, args) : void</text></g><!--class Package--><g class="entity" data-entity="Package" data-source-line="64" data-uid="ent0010" id="entity_Package"><rect fill="#BBDEFB" height="80.9766" rx="2.5" ry="2.5" style="stroke:#181818;stroke-width:0.5;" width="188.0049" x="66" y="41"/><ellipse cx="128.2104" cy="57" fill="#ADD1B2" rx="11" ry="11" style="stroke:#181818;stroke-width:1;"/><path d="M130.6836,63.1431 Q130.1025,63.4419 129.4634,63.5913 Q128.8242,63.7407 128.1187,63.7407 Q125.6118,63.7407 124.292,62.0889 Q122.9722,60.437 122.9722,57.3159 Q122.9722,54.1865 124.292,52.5347 Q125.6118,50.8828 128.1187,50.8828 Q128.8242,50.8828 129.4717,51.0322 Q130.1191,51.1816 130.6836,51.4805 L130.6836,54.2031 Q130.0527,53.6221 129.4592,53.3523 Q128.8657,53.0825 128.2349,53.0825 Q126.8901,53.0825 126.2053,54.1492 Q125.5205,55.2158 125.5205,57.3159 Q125.5205,59.4077 126.2053,60.4744 Q126.8901,61.541 128.2349,61.541 Q128.8657,61.541 129.4592,61.2712 Q130.0527,61.0015 130.6836,60.4204 Z " fill="#000000"/><text fill="#000000" font-family="sans-serif" font-size="14" lengthAdjust="spacing" textLength="55.084" x="148.7104" y="62.291">Package</text><line style="stroke:#181818;stroke-width:0.5;" x1="67" x2="253.0049" y1="73" y2="73"/><ellipse cx="77" cy="86.7441" fill="none" rx="3" ry="3" style="stroke:#038048;stroke-width:1;"/><text fill="#000000" font-family="sans-serif" font-size="14" lengthAdjust="spacing" textLength="138.1406" x="86" y="90.5352">*ollama-url* : string</text><ellipse cx="77" cy="103.2324" fill="none" rx="3" ry="3" style="stroke:#038048;stroke-width:1;"/><text fill="#000000" font-family="sans-serif" font-size="14" lengthAdjust="spacing" textLength="162.0049" x="86" y="107.0234">*ollama-model* : string</text><line style="stroke:#181818;stroke-width:0.5;" x1="67" x2="253.0049" y1="113.9766" y2="113.9766"/></g><g class="entity" data-entity="GMN22" data-source-line="89" data-uid="ent0023" id="entity_GMN22"><path d="M351.25,866.21 L351.25,882.52 L316.67,886.52 L351.25,890.52 L351.25,906.8311 A0,0 0 0 0 351.25,906.8311 L536.7495,906.8311 A0,0 0 0 0 536.7495,906.8311 L536.7495,876.21 L526.7495,866.21 L351.25,866.21 A0,0 0 0 0 351.25,866.21" fill="#FEFFDD" style="stroke:#181818;stroke-width:0.5;"/><path d="M526.7495,866.21 L526.7495,876.21 L536.7495,876.21 L526.7495,866.21" fill="#FEFFDD" style="stroke:#181818;stroke-width:0.5;"/><text fill="#000000" font-family="sans-serif" font-size="13" lengthAdjust="spacing" textLength="134.4688" x="357.25" y="883.7784">Structure de donn&#233;es</text><text fill="#000000" font-family="sans-serif" font-size="13" lengthAdjust="spacing" textLength="164.4995" x="357.25" y="899.0889">repr&#233;sentant un outil MCP</text></g><g class="entity" data-entity="GMN25" data-source-line="94" data-uid="ent0026" id="entity_GMN25"><path d="M483.53,451.32 L483.53,467.64 L449.02,471.64 L483.53,475.64 L483.53,491.9411 A0,0 0 0 0 483.53,491.9411 L726.4631,491.9411 A0,0 0 0 0 726.4631,491.9411 L726.4631,461.32 L716.4631,451.32 L483.53,451.32 A0,0 0 0 0 483.53,451.32" fill="#FEFFDD" style="stroke:#181818;stroke-width:0.5;"/><path d="M716.4631,451.32 L716.4631,461.32 L726.4631,461.32 L716.4631,451.32" fill="#FEFFDD" style="stroke:#181818;stroke-width:0.5;"/><text fill="#000000" font-family="sans-serif" font-size="13" lengthAdjust="spacing" textLength="199.856" x="489.53" y="468.8884">G&#232;re le protocole JSON-RPC 2.0</text><text fill="#000000" font-family="sans-serif" font-size="13" lengthAdjust="spacing" textLength="221.9331" x="489.53" y="484.1989">pour MCP (Model Context Protocol)</text></g><g class="entity" data-entity="GMN28" data-source-line="99" data-uid="ent0029" id="entity_GMN28"><path d="M243.18,235.64 L243.18,251.95 L208.75,255.95 L243.18,259.95 L243.18,276.2611 A0,0 0 0 0 243.18,276.2611 L452.8133,276.2611 A0,0 0 0 0 452.8133,276.2611 L452.8133,245.64 L442.8133,235.64 L243.18,235.64 A0,0 0 0 0 243.18,235.64" fill="#FEFFDD" style="stroke:#181818;stroke-width:0.5;"/><path d="M442.8133,235.64 L442.8133,245.64 L452.8133,245.64 L442.8133,235.64" fill="#FEFFDD" style="stroke:#181818;stroke-width:0.5;"/><text fill="#000000" font-family="sans-serif" font-size="13" lengthAdjust="spacing" textLength="188.6333" x="249.18" y="253.2084">Point d'entr&#233;e STDIN/STDOUT</text><text fill="#000000" font-family="sans-serif" font-size="13" lengthAdjust="spacing" textLength="141.21" x="249.18" y="268.5189">Lecture ligne par ligne</text></g><g class="entity" data-entity="GMN31" data-source-line="104" data-uid="ent0032" id="entity_GMN31"><path d="M811.62,235.64 L811.62,251.95 L776.73,255.95 L811.62,259.95 L811.62,276.2611 A0,0 0 0 0 811.62,276.2611 L1022.3768,276.2611 A0,0 0 0 0 1022.3768,276.2611 L1022.3768,245.64 L1012.3768,235.64 L811.62,235.64 A0,0 0 0 0 811.62,235.64" fill="#FEFFDD" style="stroke:#181818;stroke-width:0.5;"/><path d="M1012.3768,235.64 L1012.3768,245.64 L1022.3768,245.64 L1012.3768,235.64" fill="#FEFFDD" style="stroke:#181818;stroke-width:0.5;"/><text fill="#000000" font-family="sans-serif" font-size="13" lengthAdjust="spacing" textLength="124.4014" x="817.62" y="253.2084">Point d'entr&#233;e HTTP</text><text fill="#000000" font-family="sans-serif" font-size="13" lengthAdjust="spacing" textLength="189.7568" x="817.62" y="268.5189">Endpoint: /mcp sur port 8000</text></g><!--reverse link ToolsRegistry to mcp_tool--><g class="link" data-entity-1="ToolsRegistry" data-entity-2="mcp_tool" data-source-line="70" data-uid="lnk11" id="link_ToolsRegistry_mcp_tool"><path codeLine="70" d="M235.5764,756.3752 C231.2364,780.1652 228.3,796.21 223.81,820.85" fill="none" id="ToolsRegistry-backto-mcp_tool" style="stroke:#181818;stroke-width:1;"/><polygon fill="#181818" points="237.73,744.57,232.7181,749.7547,235.5764,756.3752,240.5882,751.1905,237.73,744.57" style="stroke:#181818;stroke-width:1;"/><text fill="#000000" font-family="sans-serif" font-size="13" lengthAdjust="spacing" textLength="56.5386" x="233.16" y="787.8684">manages</text><text fill="#000000" font-family="sans-serif" font-size="13" lengthAdjust="spacing" textLength="8.2202" x="228.0046" y="765.0491">1</text><text fill="#000000" font-family="sans-serif" font-size="13" lengthAdjust="spacing" textLength="22.7119" x="201.938" y="810.4323">0..*</text></g><!--link MCPProtocol to ToolsRegistry--><g class="link" data-entity-1="MCPProtocol" data-entity-2="ToolsRegistry" data-source-line="72" data-uid="lnk12" id="link_MCPProtocol_ToolsRegistry"><path codeLine="72" d="M264.75,553.73 C261.55,579.11 258.8336,600.6075 255.8836,623.9075" fill="none" id="MCPProtocol-to-ToolsRegistry" style="stroke:#181818;stroke-width:1;stroke-dasharray:7,7;"/><polygon fill="#181818" points="255.13,629.86,260.2288,621.4337,255.758,624.8996,252.2921,620.4289,255.13,629.86" style="stroke:#181818;stroke-width:1;"/><text fill="#000000" font-family="sans-serif" font-size="13" lengthAdjust="spacing" textLength="28.5645" x="261.69" y="596.9084">uses</text></g><!--link MCPProtocol to Logging--><g class="link" data-entity-1="MCPProtocol" data-entity-2="Logging" data-source-line="73" data-uid="lnk13" id="link_MCPProtocol_Logging"><path codeLine="73" d="M448.78,550.59 C529.11,592.36 607,643.82 607,686.32 C607,686.32 607,686.32 607,1078.47 C607,1129.99 571.3339,1169.8407 533.9439,1199.1207" fill="none" id="MCPProtocol-to-Logging" style="stroke:#181818;stroke-width:1;stroke-dasharray:7,7;"/><polygon fill="#181818" points="529.22,1202.82,538.7721,1200.4204,533.1566,1199.7373,533.8397,1194.1218,529.22,1202.82" style="stroke:#181818;stroke-width:1;"/><text fill="#000000" font-family="sans-serif" font-size="13" lengthAdjust="spacing" textLength="28.5645" x="608" y="891.5884">uses</text></g><!--link MainServer to MCPProtocol--><g class="link" data-entity-1="MainServer" data-entity-2="MCPProtocol" data-source-line="75" data-uid="lnk14" id="link_MainServer_MCPProtocol"><path codeLine="75" d="M138.61,288.48 C158.51,315.07 184.3039,349.5071 210.7039,384.7671" fill="none" id="MainServer-to-MCPProtocol" style="stroke:#181818;stroke-width:1;stroke-dasharray:7,7;"/><polygon fill="#181818" points="214.3,389.57,212.1078,379.9682,211.3033,385.5675,205.7039,384.763,214.3,389.57" style="stroke:#181818;stroke-width:1;"/><text fill="#000000" font-family="sans-serif" font-size="13" lengthAdjust="spacing" textLength="28.5645" x="191.2" y="356.4984">uses</text></g><!--link MainServer to Logging--><g class="link" data-entity-1="MainServer" data-entity-2="Logging" data-source-line="76" data-uid="lnk15" id="link_MainServer_Logging"><path codeLine="76" d="M102.77,288.63 C87.97,329.88 65,404.53 65,470.64 C65,470.64 65,470.64 65,1078.47 C65,1146.79 260.6476,1199.4122 378.3276,1225.0622" fill="none" id="MainServer-to-Logging" style="stroke:#181818;stroke-width:1;stroke-dasharray:7,7;"/><polygon fill="#181818" points="384.19,1226.34,376.2483,1220.5151,379.3047,1225.2752,374.5446,1228.3316,384.19,1226.34" style="stroke:#181818;stroke-width:1;"/><text fill="#000000" font-family="sans-serif" font-size="13" lengthAdjust="spacing" textLength="28.5645" x="66" y="787.8684">uses</text></g><!--link HTTPServer to MCPProtocol--><g class="link" data-entity-1="HTTPServer" data-entity-2="MCPProtocol" data-source-line="78" data-uid="lnk16" id="link_HTTPServer_MCPProtocol"><path codeLine="78" d="M537.74,313.37 C498.8,336.68 458.0684,361.0587 415.6284,386.4587" fill="none" id="HTTPServer-to-MCPProtocol" style="stroke:#181818;stroke-width:1;stroke-dasharray:7,7;"/><polygon fill="#181818" points="410.48,389.54,420.2567,388.3504,414.7703,386.9723,416.1484,381.4859,410.48,389.54" style="stroke:#181818;stroke-width:1;"/><text fill="#000000" font-family="sans-serif" font-size="13" lengthAdjust="spacing" textLength="28.5645" x="486.48" y="356.4984">uses</text></g><!--link HTTPServer to Logging--><g class="link" data-entity-1="HTTPServer" data-entity-2="Logging" data-source-line="79" data-uid="lnk17" id="link_HTTPServer_Logging"><path codeLine="79" d="M689.71,313.14 C709.58,335.36 730.27,362.2 744,389.93 C760.31,422.86 762,433.88 762,470.64 C762,470.64 762,470.64 762,1078.47 C762,1176.07 643.1101,1215.0899 555.8601,1231.2099" fill="none" id="HTTPServer-to-Logging" style="stroke:#181818;stroke-width:1;stroke-dasharray:7,7;"/><polygon fill="#181818" points="549.96,1232.3,559.5369,1234.5983,554.8768,1231.3916,558.0835,1226.7314,549.96,1232.3" style="stroke:#181818;stroke-width:1;"/><text fill="#000000" font-family="sans-serif" font-size="13" lengthAdjust="spacing" textLength="28.5645" x="763" y="787.8684">uses</text></g><!--link HTTPUtils to Logging--><g class="link" data-entity-1="HTTPUtils" data-entity-2="Logging" data-source-line="81" data-uid="lnk18" id="link_HTTPUtils_Logging"><path codeLine="81" d="M367.87,1126.41 C388.53,1150.65 409.417,1175.1544 429.037,1198.1644" fill="none" id="HTTPUtils-to-Logging" style="stroke:#181818;stroke-width:1;stroke-dasharray:7,7;"/><polygon fill="#181818" points="432.93,1202.73,430.1343,1193.2863,429.6859,1198.9253,424.0468,1198.4769,432.93,1202.73" style="stroke:#181818;stroke-width:1;"/><text fill="#000000" font-family="sans-serif" font-size="13" lengthAdjust="spacing" textLength="28.5645" x="406.38" y="1169.7684">uses</text></g><!--link mcp_tool to HTTPUtils--><g class="link" data-entity-1="mcp_tool" data-entity-2="HTTPUtils" data-source-line="83" data-uid="lnk19" id="link_mcp_tool_HTTPUtils"><path codeLine="83" d="M251.25,952.02 C266.48,977.03 280.4912,1000.0543 294.6012,1023.2443" fill="none" id="mcp_tool-to-HTTPUtils" style="stroke:#181818;stroke-width:1;stroke-dasharray:7,7;"/><polygon fill="#181818" points="297.72,1028.37,296.459,1018.6022,295.121,1024.0985,289.6247,1022.7606,297.72,1028.37" style="stroke:#181818;stroke-width:1;"/><text fill="#000000" font-family="sans-serif" font-size="13" lengthAdjust="spacing" textLength="52.1587" x="277.39" y="995.3084">may use</text></g><!--link Package to MainServer--><g class="link" data-entity-1="Package" data-entity-2="MainServer" data-source-line="85" data-uid="lnk20" id="link_Package_MainServer"><path codeLine="85" d="M149.68,122.05 C141.66,152.78 132.205,189.0144 124.765,217.5244" fill="none" id="Package-to-MainServer" style="stroke:#181818;stroke-width:1;stroke-dasharray:7,7;"/><polygon fill="#181818" points="123.25,223.33,129.3929,215.6317,124.5125,218.492,121.6522,213.6116,123.25,223.33" style="stroke:#181818;stroke-width:1;"/><text fill="#000000" font-family="sans-serif" font-size="13" lengthAdjust="spacing" textLength="48.1914" x="142.53" y="165.5384">exports</text></g><!--link Package to HTTPServer--><g class="link" data-entity-1="Package" data-entity-2="HTTPServer" data-source-line="86" data-uid="lnk21" id="link_Package_HTTPServer"><path codeLine="86" d="M254.38,116.97 C320.97,141.3 405.7844,172.291 481.4644,199.941" fill="none" id="Package-to-HTTPServer" style="stroke:#181818;stroke-width:1;stroke-dasharray:7,7;"/><polygon fill="#181818" points="487.1,202,480.0192,195.1544,482.4036,200.2842,477.2739,202.6686,487.1,202" style="stroke:#181818;stroke-width:1;"/><text fill="#000000" font-family="sans-serif" font-size="13" lengthAdjust="spacing" textLength="97.4937" x="397" y="165.5384">provides config</text></g><!--SRC=[ZLRRRjiu47ttLqpTXxfkw7eNMw0r0WE9QhVTJMF3TfuBMXhBtCgabgIopIxwFzllo8_jaBfPYfmK28Hevl3mpE4CvMSHxeH4M5u4Vrnyc7q95bUB5JoVlPs_cRthFIkomTN5UbtcBY_Vp-QNLMv-SnriFYsko_HyFdyN_DQhyklDwYROG9XmOnuiAiAzb8TVUOpGFuGfCwXlKVVX_7oPXwVJbhv_Um3qLr3JcYzMgQGXqq40Ne7a1uG96Ak5Z8kO5JPv48pGX5gaLYZPJWcPPfQPS8y7JhazDtjc-JR18h_dCafGKsgNoT0nKE9xhj4N21kIPrOO2-AzwzGvT9MxAioGU182dfUHgOSmLY2rfq7Dolp0FLxIgZ9G0Cdfg0Ov8pf0vIkR_ccKhAYuKz2kudEmN6fbLTZfTINmRoqiCaV7D9fKIOC3p-U8RvM8ogtvLsIejT8rJaHd4Ae8p-20nj3P7ukflMP22Yie_a- -9EMQ7ym9h7ULkVZFOaEU94zZymhJaDJ_bI6n-q3UEKyjIMWA1kvnv4dJQoxasW_2OrRhJB9wP0Qdo3vkDikJP4NlxQqjULm7yZ34r2hTtAy25YtlTspCYh5SMzOY7AHA-zDli3gmIXzW7olYneh4F6R8LaLtR9eh6hYN1mBzLZ7QGQQJue2Hfibq0rDbh3-r4dwNA1wngfsh5GsfLogEATnjTeJRB7OMRwdNaCjc0T4s7kmEzWouZiqfAufxiPjV9Ga_S4PwX-sIojo19goPBUXVm0eJxcumGs_DMwl_In-6Z45_F1eD-_MjIrSAbwJ6v1J7byHeD6sHJ20p7jc6bPPL08UfPy11ZfVKF4rC5yrHzv-aQM5EqUJzTmfHMU80DTmPTETWEQeyFA-bLZy1_ER6nBGWHyeca6frA-XBHNUat8au9vJA8cWHxoseNIN27_dQwYoqcKRwl46afBp_uSK2VKLIVV_3eBHSMiWag8p4EdCeZJBoh5tyH_PveW_t_n4zVK_J8ehm-tfnpLRB07uTZJqcLPbs2s7msNKU14fQ_6QX97hvr9wLJPvkgGHfZbwGUAh1_SHu_-dwDJqNDniFkCAyw4J4z6E3PZp_xubTQgSxTt5fdvZ9A7Mv2Rmciy5GRUxWuEruF3xUelUzzpy0]--></g></svg>