<svg xmlns="http://www.w3.org/2000/svg" xmlns:xlink="http://www.w3.org/1999/xlink" contentStyleType="text/css" data-diagram-type="SEQUENCE" height="913px" preserveAspectRatio="none" style="width:893px;height:913px;background:#FFFFFF;" version="1.1" viewBox="0 0 893 913" width="893px" zoomAndPan="magnify"><defs/><g><g><title>Lisp client</title><polygon fill="#FFFFFF" points="222.0635,156.1094,222.0635,156.1794,224.0635,155.9713,226.0635,156.1738,228.0635,156.2426,230.0635,155.8716,232.0635,156.1094,231.9858,156.1094,231.637,166.2238,231.68,176.3382,231.9953,186.4526,231.3721,196.567,232.6171,206.6814,231.4332,216.7958,231.8657,226.9103,232.4954,237.0247,231.9777,247.1391,232.1317,257.2535,232.0315,267.3679,232.242,277.4823,232.3026,287.5967,232.6492,297.7111,232.7345,307.8256,232.7427,317.94,232.3181,328.0544,232.5271,338.1688,232.7657,348.2832,231.3423,358.3976,232.742,368.512,231.767,378.6264,232.5973,388.7409,231.5685,398.8553,231.995,408.9697,232.8051,419.0841,232.0147,429.1985,232.1688,439.3129,232.4021,449.4273,232.4797,459.5417,232.0596,469.6561,232.3507,479.7706,231.4911,489.885,232.3479,499.9994,232.6117,510.1138,232.508,520.2282,232.6765,530.3426,232.0635,540.457,232.0635,540.296,230.0635,540.2396,228.0635,540.2499,226.0635,540.4374,224.0635,540.3915,222.0635,540.457,222.7449,540.457,221.8888,530.3426,221.7204,520.2282,222.2917,510.1138,221.3966,499.9994,221.5444,489.885,222.7124,479.7706,222.4991,469.6561,222.798,459.5417,221.7417,449.4273,222.3827,439.3129,222.6539,429.1985,221.5911,419.0841,221.9676,408.9697,222.1895,398.8553,222.7152,388.7409,222.0593,378.6264,222.526,368.512,221.5097,358.3976,221.3862,348.2832,222.5671,338.1688,221.3465,328.0544,222.5724,317.94,222.2701,307.8256,221.7956,297.7111,221.7097,287.5967,222.5222,277.4823,221.7641,267.3679,222.6553,257.2535,221.5107,247.1391,222.6809,237.0247,222.5478,226.9103,222.3084,216.7958,222.1107,206.6814,222.7901,196.567,222.6771,186.4526,222.2327,176.3382,222.3317,166.2238,222.0635,156.1094" style="stroke:#181818;stroke-width:1;"/></g><g><title>MCP server</title><polygon fill="#FFFFFF" points="628.2495,200.7305,628.2495,200.8005,630.2495,200.5924,632.2495,200.7949,634.2495,200.8637,636.2495,200.4927,638.2495,200.7305,638.2236,200.7305,638.1073,206.5926,638.1217,212.4547,638.2268,218.3168,638.0191,224.1789,638.2495,230.041,638.2495,230.2256,636.2495,229.8309,634.2495,229.9751,632.2495,230.185,630.2495,230.0124,628.2495,230.041,628.2723,230.041,628.2389,224.1789,628.309,218.3168,628.3292,212.4547,628.4447,206.5926,628.2495,200.7305" style="stroke:#181818;stroke-width:1;"/></g><g><title>MCP server</title><polygon fill="#FFFFFF" points="628.2495,690.9648,628.2495,691.0349,630.2495,690.8267,632.2495,691.0293,634.2495,691.0981,636.2495,690.727,638.2495,690.9648,638.2236,690.9648,638.1073,696.827,638.1217,702.6891,638.2268,708.5512,638.0191,714.4133,638.2495,720.2754,638.2495,720.4599,636.2495,720.0653,634.2495,720.2095,632.2495,720.4194,630.2495,720.2468,628.2495,720.2754,628.2723,720.2754,628.2389,714.4133,628.309,708.5512,628.3292,702.6891,628.4447,696.827,628.2495,690.9648" style="stroke:#181818;stroke-width:1;"/></g><g><title>Ollama</title><polygon fill="#FFFFFF" points="772.8184,457.5254,772.8184,457.5955,774.8184,457.3873,776.8184,457.5898,778.8184,457.6586,780.8184,457.2876,782.8184,457.5254,782.7925,457.5254,782.6762,463.3875,782.6905,469.2496,782.7956,475.1117,782.5879,480.9738,782.8184,486.8359,782.8184,487.0205,780.8184,486.6258,778.8184,486.77,776.8184,486.9799,774.8184,486.8073,772.8184,486.8359,772.8411,486.8359,772.8077,480.9738,772.8779,475.1117,772.8981,469.2496,773.0136,463.3875,772.8184,457.5254" style="stroke:#181818;stroke-width:1;"/></g><polygon fill="none" points="20,501.8359,20,502.0461,29.9907,501.4216,39.9814,502.0292,49.9721,502.2356,59.9628,501.1225,69.9535,501.7582,79.9442,501.4094,89.9349,501.4524,99.9256,501.7678,109.9162,501.1446,119.9069,502.3896,129.8976,501.2057,139.8883,501.6382,149.879,502.2679,159.8697,501.7502,169.8604,501.9042,179.8511,501.804,189.8418,502.0145,199.8325,502.0751,209.8232,502.4216,219.8139,502.507,229.8046,502.5152,239.7953,502.0906,249.786,502.2995,259.7767,502.5382,269.7674,501.1148,279.7581,502.5144,289.7487,501.5394,299.7394,502.3697,309.7301,501.3409,319.7208,501.7674,329.7115,502.5775,339.7022,501.7872,349.6929,501.9412,359.6836,502.1746,369.6743,502.2522,379.665,501.832,389.6557,502.1232,399.6464,501.2635,409.6371,502.1203,419.6278,502.3841,429.6185,502.2805,439.6092,502.449,449.5999,501.3529,459.5906,501.1838,469.5812,501.2145,479.5719,501.7771,489.5626,501.6394,499.5533,502.5173,509.544,501.6613,519.5347,501.4929,529.5254,502.0642,539.5161,501.1691,549.5068,501.3168,559.4975,502.4849,569.4882,502.2716,579.4789,502.5704,589.4696,501.5141,599.4603,502.1551,609.451,502.4264,619.4417,501.3635,629.4324,501.7401,639.423,501.9619,649.4137,502.4877,659.4044,501.8317,669.3951,502.2985,679.3858,501.2822,689.3765,501.1587,699.3672,502.3396,709.3579,501.8359,708.641,501.8359,709.8669,511.9447,709.5645,522.0534,709.09,532.1622,709.0041,542.2709,709.8167,552.3797,709.0586,562.4884,709.9498,572.5972,708.8052,582.7059,709.9753,592.8146,709.8422,602.9234,709.6029,613.0321,709.4051,623.1409,710.0845,633.2496,709.9715,643.3584,709.5272,653.4671,709.6261,663.5759,709.2276,673.6846,710.0744,683.7933,709.5128,693.9021,709.5305,704.0108,708.7496,714.1196,708.9527,724.2283,709.8887,734.3371,709.7877,744.4458,709.315,754.5546,709.0357,764.6633,709.139,774.7721,708.6717,784.8808,709.7726,794.9895,710.0975,805.0983,709.3579,815.207,709.3579,815.7334,699.3672,815.902,689.3765,815.0703,679.3858,815.2943,669.3951,814.8194,659.4044,815.4911,649.4137,815.4538,639.423,815.7594,629.4324,814.9774,619.4417,815.0726,609.451,815.6505,599.4603,815.7744,589.4696,814.6945,579.4789,815.0131,569.4882,815.3563,559.4975,814.5962,549.5068,815.5604,539.5161,815.465,529.5254,815.1063,519.5347,815.3493,509.544,815.9357,499.5533,814.8942,489.5626,815.522,479.5719,815.4927,469.5812,815.3228,459.5906,815.348,449.5999,815.3205,439.6092,814.5829,429.6185,814.8062,419.6278,814.7455,409.6371,815.2709,399.6464,815.2952,389.6557,815.3688,379.665,814.9161,369.6743,815.1395,359.6836,815.0868,349.6929,815.7839,339.7022,815.6336,329.7115,814.7215,319.7208,815.1341,309.7301,814.6298,299.7394,815.4954,289.7487,815.8155,279.7581,815.7516,269.7674,814.7715,259.7767,815.671,249.786,814.4642,239.7953,815.4072,229.8046,814.9077,219.8139,815.3038,209.8232,815.4474,199.8325,815.6791,189.8418,814.4871,179.8511,815.6825,169.8604,815.3852,159.8697,815.5624,149.879,815.9548,139.8883,815.2125,129.8976,815.3823,119.9069,815.4205,109.9162,815.4043,99.9256,815.2062,89.9349,815.9177,79.9442,814.5973,69.9535,815.7723,59.9628,814.583,49.9721,814.6667,39.9814,815.247,29.9907,815.2353,20,815.207,19.5072,815.207,20.4137,805.0983,20.1089,794.9895,20.7267,784.8808,20.6671,774.7721,19.5517,764.6633,19.6021,754.5546,19.8708,744.4458,20.3555,734.3371,20.403,724.2283,20.3012,714.1196,19.658,704.0108,20.6364,693.9021,20.6338,683.7933,19.9527,673.6846,19.7609,663.5759,19.5986,653.4671,19.7854,643.3584,20.1374,633.2496,19.9316,623.1409,19.5822,613.0321,20.4874,602.9234,19.5411,592.8146,20.5024,582.7059,20.4272,572.5972,20.3719,562.4884,20.6925,552.3797,19.7541,542.2709,19.6994,532.1622,20.5189,522.0534,19.4031,511.9447,20,501.8359" style="stroke:#000000;stroke-width:1.5;"/><polygon fill="none" points="109.395,555.457,109.395,555.6672,119.3944,555.0427,129.3938,555.6503,139.3931,555.8567,149.3925,554.7436,159.3919,555.3793,169.3912,555.0305,179.3906,555.0735,189.39,555.3889,199.3894,554.7657,209.3887,556.0107,219.3881,554.8268,229.3875,555.2593,239.3868,555.889,249.3862,555.3713,259.3856,555.5253,269.385,555.4251,279.3843,555.6356,289.3837,555.6962,299.3831,556.0427,309.3824,556.1281,319.3818,556.1363,329.3812,555.7117,339.3806,555.9206,349.3799,556.1593,359.3793,554.7358,369.3787,556.1355,379.378,555.1605,389.3774,555.9908,399.3768,554.962,409.3762,555.3885,419.3755,556.1986,429.3749,555.4083,439.3743,555.5623,449.3736,555.7957,459.373,555.8733,469.3724,555.4531,479.3717,555.7442,489.3711,554.8846,499.3705,555.7414,509.3699,556.0052,519.3692,555.9016,529.3686,556.0701,539.368,554.974,549.3673,554.8048,559.3667,554.8356,569.3661,555.3982,579.3655,555.2605,589.3648,556.1384,599.3642,555.2824,609.3636,555.114,619.3629,555.6853,629.3623,554.7902,639.3617,554.9379,649.3611,556.106,659.3604,555.8927,669.3598,556.1915,679.3592,555.1352,689.3585,555.7762,699.3579,555.457,699.9483,555.457,698.8855,565.567,699.2621,575.677,699.4839,585.787,700.0097,595.897,699.3537,606.007,699.8205,616.117,698.8041,626.227,698.6807,636.337,699.8615,646.447,698.641,656.557,699.8669,666.667,699.5645,676.777,699.09,686.887,699.0041,696.997,699.8167,707.107,699.0586,717.217,699.9498,727.327,698.8052,737.437,699.9753,747.547,699.8422,757.657,699.6029,767.767,699.4051,777.877,700.0845,787.987,699.9715,798.097,699.3579,808.207,699.3579,808.3763,689.3585,808.4752,679.3592,808.0768,669.3598,808.9235,659.3604,808.3619,649.3611,808.3796,639.3617,807.5987,629.3623,807.8018,619.3629,808.7378,609.3636,808.6368,599.3642,808.1641,589.3648,807.8849,579.3655,807.9881,569.3661,807.5209,559.3667,808.6218,549.3673,808.9466,539.368,808.7334,529.3686,808.902,519.3692,808.0703,509.3699,808.2943,499.3705,807.8194,489.3711,808.4911,479.3717,808.4538,469.3724,808.7594,459.373,807.9774,449.3736,808.0726,439.3743,808.6505,429.3749,808.7744,419.3755,807.6945,409.3762,808.0131,399.3768,808.3563,389.3774,807.5962,379.378,808.5604,369.3787,808.465,359.3793,808.1063,349.3799,808.3493,339.3806,808.9357,329.3812,807.8942,319.3818,808.522,309.3824,808.4927,299.3831,808.3228,289.3837,808.348,279.3843,808.3205,269.385,807.5829,259.3856,807.8062,249.3862,807.7455,239.3868,808.2709,229.3875,808.2952,219.3881,808.3688,209.3887,807.9161,199.3894,808.1395,189.39,808.0868,179.3906,808.7839,169.3912,808.6336,159.3919,807.7215,149.3925,808.1341,139.3931,807.6298,129.3938,808.4954,119.3944,808.8155,109.395,808.207,109.9396,808.207,108.9595,798.097,109.859,787.987,108.6522,777.877,109.5952,767.767,109.0957,757.657,109.4917,747.547,109.6354,737.437,109.8671,727.327,108.6751,717.217,109.8705,707.107,109.5732,696.997,109.7503,686.887,110.1428,676.777,109.4005,666.667,109.5703,656.557,109.6085,646.447,109.5923,636.337,109.3942,626.227,110.1057,616.117,108.7853,606.007,109.9603,595.897,108.771,585.787,108.8547,575.677,109.435,565.567,109.395,555.457" style="stroke:#000000;stroke-width:1.5;"/><polygon fill="none" points="119.395,594.7227,119.395,594.9328,129.3944,594.3083,139.3937,594.9159,149.3931,595.1223,159.3924,594.0093,169.3918,594.6449,179.3911,594.2962,189.3905,594.3392,199.3898,594.6545,209.3892,594.0313,219.3885,595.2763,229.3879,594.0924,239.3872,594.5249,249.3866,595.1546,259.3859,594.6369,269.3853,594.7909,279.3846,594.6907,289.384,594.9012,299.3833,594.9618,309.3826,595.3083,319.382,595.3937,329.3813,595.4019,339.3807,594.9773,349.38,595.1862,359.3794,595.4249,369.3787,594.0015,379.3781,595.4012,389.3774,594.4262,399.3768,595.2565,409.3761,594.2276,419.3755,594.6542,429.3748,595.4643,439.3742,594.6739,449.3735,594.828,459.3729,595.0613,469.3722,595.1389,479.3716,594.7188,489.3709,595.0099,499.3703,594.1502,509.3696,595.007,519.369,595.2709,529.3683,595.1672,539.3677,595.3357,549.367,594.2396,559.3664,594.0705,569.3657,594.1013,579.3651,594.6638,589.3644,594.5261,599.3638,595.4041,609.3631,594.548,619.3625,594.3796,629.3618,594.9509,639.3612,594.0558,649.3605,594.2035,659.3599,595.3716,669.3592,595.1583,679.3586,595.4571,689.3579,594.7227,689.0361,594.7227,689.6771,604.5552,689.9483,614.3878,688.8855,624.2204,689.2621,634.053,689.4839,643.8856,690.0097,653.7182,689.3537,663.5508,689.8205,673.3834,688.8041,683.216,688.6807,693.0485,689.8615,702.8811,688.641,712.7137,689.8669,722.5463,689.5645,732.3789,689.09,742.2115,689.0041,752.0441,689.8167,761.8767,689.0586,771.7093,689.9498,781.5419,688.8052,791.3744,689.3579,801.207,689.3579,801.8245,679.3586,801.6913,669.3592,801.452,659.3599,801.2543,649.3605,801.9336,639.3612,801.8206,629.3618,801.3763,619.3625,801.4752,609.3631,801.0768,599.3638,801.9235,589.3644,801.3619,579.3651,801.3796,569.3657,800.5987,559.3664,800.8018,549.367,801.7378,539.3677,801.6368,529.3683,801.1641,519.369,800.8849,509.3696,800.9881,499.3703,800.5209,489.3709,801.6218,479.3716,801.9466,469.3722,801.7334,459.3729,801.902,449.3735,801.0703,439.3742,801.2943,429.3748,800.8194,419.3755,801.4911,409.3761,801.4538,399.3768,801.7594,389.3774,800.9774,379.3781,801.0726,369.3787,801.6505,359.3794,801.7744,349.38,800.6945,339.3807,801.0131,329.3813,801.3563,319.382,800.5962,309.3826,801.5604,299.3833,801.465,289.384,801.1063,279.3846,801.3493,269.3853,801.9357,259.3859,800.8942,249.3866,801.522,239.3872,801.4927,229.3879,801.3228,219.3885,801.348,209.3892,801.3205,199.3898,800.5829,189.3905,800.8062,179.3911,800.7455,169.3918,801.2709,159.3924,801.2952,149.3931,801.3688,139.3937,800.9161,129.3944,801.1395,119.395,801.207,119.2748,801.207,119.9719,791.3744,119.8216,781.5419,118.9095,771.7093,119.3221,761.8767,118.8178,752.0441,119.6834,742.2115,120.0035,732.3789,119.9396,722.5463,118.9595,712.7137,119.859,702.8811,118.6522,693.0485,119.5952,683.216,119.0957,673.3834,119.4917,663.5508,119.6354,653.7182,119.8671,643.8856,118.6751,634.053,119.8705,624.2204,119.5732,614.3878,119.7503,604.5552,119.395,594.7227" style="stroke:#000000;stroke-width:1.5;"/><g><title>User</title><polygon fill="#000000" fill-opacity="0.00000" points="44.1826,81.4883,44.1826,81.5583,45.7826,81.3502,47.3826,81.5527,48.9826,81.6215,50.5826,81.2505,52.1826,81.4883,52.1049,81.4883,51.7561,91.4979,51.7991,101.5074,52.1145,111.517,51.4912,121.5266,52.7363,131.5362,51.5523,141.5458,51.9849,151.5554,52.6146,161.5649,52.0968,171.5745,52.2509,181.5841,52.1507,191.5937,52.3611,201.6033,52.4218,211.6129,52.7683,221.6224,52.8537,231.632,52.8619,241.6416,52.4372,251.6512,52.6462,261.6608,52.8848,271.6704,51.4614,281.6799,52.8611,291.6895,51.8861,301.6991,52.7164,311.7087,51.6876,321.7183,52.1141,331.7279,52.9242,341.7374,52.1339,351.747,52.2879,361.7566,52.5212,371.7662,52.5988,381.7758,52.1787,391.7854,52.4698,401.7949,51.6102,411.8045,52.467,421.8141,52.7308,431.8237,52.6272,441.8333,52.7956,451.8429,51.6995,461.8524,51.5304,471.862,51.5612,481.8716,52.1237,491.8812,51.9861,501.8908,52.864,511.9004,52.0079,521.9099,51.8396,531.9195,52.4109,541.9291,51.5158,551.9387,51.6635,561.9483,52.8316,571.9579,52.6183,581.9674,52.9171,591.977,51.8608,601.9866,52.5018,611.9962,52.773,622.0058,51.7102,632.0154,52.0868,642.0249,52.3086,652.0345,52.8344,662.0441,52.1784,672.0537,52.6452,682.0633,51.6288,692.0729,51.5054,702.0824,52.6862,712.092,51.4657,722.1016,52.6916,732.1112,52.3892,742.1208,51.9147,752.1304,51.8288,762.1399,52.6414,772.1495,51.8833,782.1591,52.7745,792.1687,51.6299,802.1783,52.8,812.1879,52.6669,822.1974,52.1826,832.207,52.1826,832.2887,50.5826,832.2228,48.9826,832.4492,47.3826,832.4116,45.7826,832.2634,44.1826,832.207,44.4508,832.207,44.0524,822.1974,44.8991,812.1879,44.3375,802.1783,44.3552,792.1687,43.5743,782.1591,43.7774,772.1495,44.7134,762.1399,44.6124,752.1304,44.1397,742.1208,43.8604,732.1112,43.9637,722.1016,43.4964,712.092,44.5974,702.0824,44.9222,692.0729,44.709,682.0633,44.8775,672.0537,44.0459,662.0441,44.2698,652.0345,43.795,642.0249,44.4667,632.0154,44.4294,622.0058,44.735,611.9962,43.953,601.9866,44.0482,591.977,44.6261,581.9674,44.75,571.9579,43.6701,561.9483,43.9887,551.9387,44.3319,541.9291,43.5718,531.9195,44.536,521.9099,44.4406,511.9004,44.0819,501.8908,44.3249,491.8812,44.9113,481.8716,43.8697,471.862,44.4976,461.8524,44.4683,451.8429,44.2984,441.8333,44.3235,431.8237,44.2961,421.8141,43.5585,411.8045,43.7818,401.7949,43.7211,391.7854,44.2464,381.7758,44.2707,371.7662,44.3444,361.7566,43.8916,351.747,44.1151,341.7374,44.0624,331.7279,44.7595,321.7183,44.6092,311.7087,43.6971,301.6991,44.1097,291.6895,43.6054,281.6799,44.471,271.6704,44.7911,261.6608,44.7272,251.6512,43.7471,241.6416,44.6466,231.632,43.4398,221.6224,44.3828,211.6129,43.8833,201.6033,44.2793,191.5937,44.423,181.5841,44.6547,171.5745,43.4627,161.5649,44.6581,151.5554,44.3608,141.5458,44.5379,131.5362,44.9304,121.5266,44.1881,111.517,44.3579,101.5074,44.3961,91.4979,44.1826,81.4883"/><path d="M48,81.4883 L48.2802,81.4883 L47.4476,91.4979 L48.2577,101.5074 L48.5329,111.517 L47.0488,121.5266 L47.8964,131.5362 L47.4313,141.5458 L47.4887,151.5554 L47.9091,161.5649 L47.0782,171.5745 L48.7382,181.5841 L47.1596,191.5937 L47.7363,201.6033 L48.5759,211.6129 L47.8856,221.6224 L48.091,231.632 L47.9574,241.6416 L48.238,251.6512 L48.3188,261.6608 L48.7809,271.6704 L48.8947,281.6799 L48.9057,291.6895 L48.3395,301.6991 L48.6181,311.7087 L48.9363,321.7183 L47.0384,331.7279 L48.9047,341.7374 L47.6047,351.747 L48.7117,361.7566 L47.34,371.7662 L47.9087,381.7758 L48.9888,391.7854 L47.935,401.7949 L48.1404,411.8045 L48.4515,421.8141 L48.555,431.8237 L47.9948,441.8333 L48.383,451.8429 L47.2368,461.8524 L48.3792,471.862 L48.7309,481.8716 L48.5927,491.8812 L48.8174,501.8908 L47.3559,511.9004 L47.1304,521.9099 L47.1715,531.9195 L47.9215,541.9291 L47.738,551.9387 L48.9085,561.9483 L47.7671,571.9579 L47.5426,581.9674 L48.3044,591.977 L47.1109,601.9866 L47.3078,611.9962 L48.8653,622.0058 L48.5809,632.0154 L48.9793,642.0249 L47.5709,652.0345 L48.4256,662.0441 L48.7872,672.0537 L47.3701,682.0633 L47.8722,692.0729 L48.168,702.0824 L48.869,712.092 L47.9944,722.1016 L48.6168,732.1112 L47.2616,742.1208 L47.097,752.1304 L48.6715,762.1399 L47.0441,772.1495 L48.6786,782.1591 L48.2755,792.1687 L47.6428,802.1783 L47.5283,812.1879 L48.6117,822.1974 L48,832.207" fill="none" style="stroke:#181818;stroke-width:0.5;stroke-dasharray:5,5;"/></g><g><title>Lisp client</title><polygon fill="#000000" fill-opacity="0.00000" points="223.0635,81.4883,223.0635,81.5583,224.6635,81.3502,226.2635,81.5527,227.8635,81.6215,229.4635,81.2505,231.0635,81.4883,230.9858,81.4883,230.637,91.4979,230.68,101.5074,230.9953,111.517,230.3721,121.5266,231.6171,131.5362,230.4332,141.5458,230.8657,151.5554,231.4954,161.5649,230.9777,171.5745,231.1317,181.5841,231.0315,191.5937,231.242,201.6033,231.3026,211.6129,231.6492,221.6224,231.7345,231.632,231.7427,241.6416,231.3181,251.6512,231.5271,261.6608,231.7657,271.6704,230.3423,281.6799,231.742,291.6895,230.767,301.6991,231.5973,311.7087,230.5685,321.7183,230.995,331.7279,231.8051,341.7374,231.0147,351.747,231.1688,361.7566,231.4021,371.7662,231.4797,381.7758,231.0596,391.7854,231.3507,401.7949,230.4911,411.8045,231.3479,421.8141,231.6117,431.8237,231.508,441.8333,231.6765,451.8429,230.5804,461.8524,230.4113,471.862,230.4421,481.8716,231.0046,491.8812,230.8669,501.8908,231.7449,511.9004,230.8888,521.9099,230.7204,531.9195,231.2917,541.9291,230.3966,551.9387,230.5444,561.9483,231.7124,571.9579,231.4991,581.9674,231.798,591.977,230.7417,601.9866,231.3827,611.9962,231.6539,622.0058,230.5911,632.0154,230.9676,642.0249,231.1895,652.0345,231.7152,662.0441,231.0593,672.0537,231.526,682.0633,230.5097,692.0729,230.3862,702.0824,231.5671,712.092,230.3465,722.1016,231.5724,732.1112,231.2701,742.1208,230.7956,752.1304,230.7097,762.1399,231.5222,772.1495,230.7641,782.1591,231.6553,792.1687,230.5107,802.1783,231.6809,812.1879,231.5478,822.1974,231.0635,832.207,231.0635,832.2887,229.4635,832.2228,227.8635,832.4492,226.2635,832.4116,224.6635,832.2634,223.0635,832.207,223.3317,832.207,222.9332,822.1974,223.7799,812.1879,223.2183,802.1783,223.236,792.1687,222.4551,782.1591,222.6583,772.1495,223.5942,762.1399,223.4932,752.1304,223.0205,742.1208,222.7413,732.1112,222.8445,722.1016,222.3773,712.092,223.4782,702.0824,223.803,692.0729,223.5899,682.0633,223.7584,672.0537,222.9267,662.0441,223.1507,652.0345,222.6759,642.0249,223.3475,632.0154,223.3102,622.0058,223.6159,611.9962,222.8338,601.9866,222.9291,591.977,223.5069,581.9674,223.6308,571.9579,222.5509,561.9483,222.8696,551.9387,223.2127,541.9291,222.4526,531.9195,223.4169,521.9099,223.3215,511.9004,222.9627,501.8908,223.2057,491.8812,223.7922,481.8716,222.7506,471.862,223.3785,461.8524,223.3491,451.8429,223.1792,441.8333,223.2044,431.8237,223.177,421.8141,222.4393,411.8045,222.6627,401.7949,222.6019,391.7854,223.1273,381.7758,223.1516,371.7662,223.2252,361.7566,222.7725,351.747,222.996,341.7374,222.9433,331.7279,223.6403,321.7183,223.49,311.7087,222.5779,301.6991,222.9906,291.6895,222.4862,281.6799,223.3519,271.6704,223.672,261.6608,223.608,251.6512,222.6279,241.6416,223.5274,231.632,222.3207,221.6224,223.2636,211.6129,222.7642,201.6033,223.1602,191.5937,223.3038,181.5841,223.5356,171.5745,222.3436,161.5649,223.539,151.5554,223.2417,141.5458,223.4188,131.5362,223.8113,121.5266,223.069,111.517,223.2387,101.5074,223.2769,91.4979,223.0635,81.4883"/><path d="M226.395,81.4883 L226.6753,81.4883 L225.8426,91.4979 L226.6527,101.5074 L226.9279,111.517 L225.4438,121.5266 L226.2914,131.5362 L225.8264,141.5458 L225.8837,151.5554 L226.3041,161.5649 L225.4732,171.5745 L227.1332,181.5841 L225.5546,191.5937 L226.1313,201.6033 L226.9709,211.6129 L226.2807,221.6224 L226.486,231.632 L226.3524,241.6416 L226.6331,251.6512 L226.7139,261.6608 L227.1759,271.6704 L227.2898,281.6799 L227.3007,291.6895 L226.7345,301.6991 L227.0131,311.7087 L227.3313,321.7183 L225.4334,331.7279 L227.2997,341.7374 L225.9997,351.747 L227.1068,361.7566 L225.735,371.7662 L226.3037,381.7758 L227.3838,391.7854 L226.33,401.7949 L226.5354,411.8045 L226.8465,421.8141 L226.95,431.8237 L226.3898,441.8333 L226.778,451.8429 L225.6318,461.8524 L226.7742,471.862 L227.1259,481.8716 L226.9877,491.8812 L227.2124,501.8908 L225.7509,511.9004 L225.5254,521.9099 L225.5665,531.9195 L226.3165,541.9291 L226.133,551.9387 L227.3036,561.9483 L226.1621,571.9579 L225.9376,581.9674 L226.6994,591.977 L225.5059,601.9866 L225.7029,611.9962 L227.2603,622.0058 L226.9759,632.0154 L227.3743,642.0249 L225.966,652.0345 L226.8206,662.0441 L227.1822,672.0537 L225.7651,682.0633 L226.2672,692.0729 L226.563,702.0824 L227.264,712.092 L226.3894,722.1016 L227.0118,732.1112 L225.6566,742.1208 L225.492,752.1304 L227.0665,762.1399 L225.4391,772.1495 L227.0736,782.1591 L226.6705,792.1687 L226.0378,802.1783 L225.9233,812.1879 L227.0067,822.1974 L226.395,832.207" fill="none" style="stroke:#181818;stroke-width:0.5;stroke-dasharray:5,5;"/></g><g><title>MCP server</title><polygon fill="#000000" fill-opacity="0.00000" points="629.2495,81.4883,629.2495,81.5583,630.8495,81.3502,632.4495,81.5527,634.0495,81.6215,635.6495,81.2505,637.2495,81.4883,637.1718,81.4883,636.823,91.4979,636.866,101.5074,637.1814,111.517,636.5581,121.5266,637.8032,131.5362,636.6192,141.5458,637.0517,151.5554,637.6815,161.5649,637.1637,171.5745,637.3178,181.5841,637.2176,191.5937,637.428,201.6033,637.4886,211.6129,637.8352,221.6224,637.9206,231.632,637.9288,241.6416,637.5041,251.6512,637.7131,261.6608,637.9517,271.6704,636.5283,281.6799,637.928,291.6895,636.953,301.6991,637.7833,311.7087,636.7545,321.7183,637.181,331.7279,637.9911,341.7374,637.2008,351.747,637.3548,361.7566,637.5881,371.7662,637.6657,381.7758,637.2456,391.7854,637.5367,401.7949,636.6771,411.8045,637.5339,421.8141,637.7977,431.8237,637.694,441.8333,637.8625,451.8429,636.7664,461.8524,636.5973,471.862,636.6281,481.8716,637.1906,491.8812,637.053,501.8908,637.9309,511.9004,637.0748,521.9099,636.9065,531.9195,637.4778,541.9291,636.5827,551.9387,636.7304,561.9483,637.8985,571.9579,637.6852,581.9674,637.984,591.977,636.9277,601.9866,637.5687,611.9962,637.8399,622.0058,636.7771,632.0154,637.1537,642.0249,637.3755,652.0345,637.9013,662.0441,637.2453,672.0537,637.7121,682.0633,636.6957,692.0729,636.5723,702.0824,637.7531,712.092,636.5326,722.1016,637.7585,732.1112,637.4561,742.1208,636.9816,752.1304,636.8957,762.1399,637.7083,772.1495,636.9502,782.1591,637.8414,792.1687,636.6968,802.1783,637.8669,812.1879,637.7338,822.1974,637.2495,832.207,637.2495,832.2887,635.6495,832.2228,634.0495,832.4492,632.4495,832.4116,630.8495,832.2634,629.2495,832.207,629.5177,832.207,629.1192,822.1974,629.966,812.1879,629.4044,802.1783,629.4221,792.1687,628.6412,782.1591,628.8443,772.1495,629.7803,762.1399,629.6793,752.1304,629.2066,742.1208,628.9273,732.1112,629.0306,722.1016,628.5633,712.092,629.6642,702.0824,629.9891,692.0729,629.7759,682.0633,629.9444,672.0537,629.1128,662.0441,629.3367,652.0345,628.8619,642.0249,629.5336,632.0154,629.4963,622.0058,629.8019,611.9962,629.0199,601.9866,629.1151,591.977,629.693,581.9674,629.8168,571.9579,628.737,561.9483,629.0556,551.9387,629.3988,541.9291,628.6387,531.9195,629.6029,521.9099,629.5075,511.9004,629.1488,501.8908,629.3918,491.8812,629.9782,481.8716,628.9366,471.862,629.5645,461.8524,629.5352,451.8429,629.3653,441.8333,629.3904,431.8237,629.363,421.8141,628.6254,411.8045,628.8487,401.7949,628.788,391.7854,629.3133,381.7758,629.3376,371.7662,629.4113,361.7566,628.9585,351.747,629.182,341.7374,629.1293,331.7279,629.8264,321.7183,629.6761,311.7087,628.764,301.6991,629.1766,291.6895,628.6723,281.6799,629.5379,271.6704,629.858,261.6608,629.7941,251.6512,628.814,241.6416,629.7135,231.632,628.5067,221.6224,629.4497,211.6129,628.9502,201.6033,629.3462,191.5937,629.4898,181.5841,629.7216,171.5745,628.5296,161.5649,629.725,151.5554,629.4277,141.5458,629.6048,131.5362,629.9973,121.5266,629.255,111.517,629.4248,101.5074,629.463,91.4979,629.2495,81.4883"/><path d="M633.1411,81.4883 L633.4214,81.4883 L632.5887,91.4979 L633.3988,101.5074 L633.674,111.517 L632.1899,121.5266 L633.0375,131.5362 L632.5725,141.5458 L632.6298,151.5554 L633.0502,161.5649 L632.2193,171.5745 L633.8793,181.5841 L632.3007,191.5937 L632.8774,201.6033 L633.717,211.6129 L633.0267,221.6224 L633.2321,231.632 L633.0985,241.6416 L633.3791,251.6512 L633.46,261.6608 L633.922,271.6704 L634.0359,281.6799 L634.0468,291.6895 L633.4806,301.6991 L633.7592,311.7087 L634.0774,321.7183 L632.1795,331.7279 L634.0458,341.7374 L632.7458,351.747 L633.8529,361.7566 L632.4811,371.7662 L633.0498,381.7758 L634.1299,391.7854 L633.0761,401.7949 L633.2815,411.8045 L633.5926,421.8141 L633.6961,431.8237 L633.1359,441.8333 L633.5241,451.8429 L632.3779,461.8524 L633.5203,471.862 L633.872,481.8716 L633.7338,491.8812 L633.9585,501.8908 L632.497,511.9004 L632.2715,521.9099 L632.3126,531.9195 L633.0626,541.9291 L632.8791,551.9387 L634.0497,561.9483 L632.9082,571.9579 L632.6837,581.9674 L633.4455,591.977 L632.252,601.9866 L632.4489,611.9962 L634.0064,622.0058 L633.722,632.0154 L634.1204,642.0249 L632.7121,652.0345 L633.5667,662.0441 L633.9283,672.0537 L632.5112,682.0633 L633.0133,692.0729 L633.3091,702.0824 L634.0101,712.092 L633.1355,722.1016 L633.7579,732.1112 L632.4027,742.1208 L632.2381,752.1304 L633.8126,762.1399 L632.1852,772.1495 L633.8197,782.1591 L633.4166,792.1687 L632.7839,802.1783 L632.6694,812.1879 L633.7528,822.1974 L633.1411,832.207" fill="none" style="stroke:#181818;stroke-width:0.5;stroke-dasharray:5,5;"/></g><g><title>Ollama</title><polygon fill="#000000" fill-opacity="0.00000" points="773.8184,81.4883,773.8184,81.5583,775.4184,81.3502,777.0184,81.5527,778.6184,81.6215,780.2184,81.2505,781.8184,81.4883,781.7406,81.4883,781.3919,91.4979,781.4349,101.5074,781.7502,111.517,781.127,121.5266,782.372,131.5362,781.1881,141.5458,781.6206,151.5554,782.2503,161.5649,781.7326,171.5745,781.8866,181.5841,781.7864,191.5937,781.9969,201.6033,782.0575,211.6129,782.404,221.6224,782.4894,231.632,782.4976,241.6416,782.073,251.6512,782.2819,261.6608,782.5206,271.6704,781.0972,281.6799,782.4969,291.6895,781.5219,301.6991,782.3522,311.7087,781.3233,321.7183,781.7499,331.7279,782.56,341.7374,781.7696,351.747,781.9237,361.7566,782.157,371.7662,782.2346,381.7758,781.8145,391.7854,782.1056,401.7949,781.2459,411.8045,782.1027,421.8141,782.3666,431.8237,782.2629,441.8333,782.4314,451.8429,781.3353,461.8524,781.1662,471.862,781.197,481.8716,781.7595,491.8812,781.6218,501.8908,782.4998,511.9004,781.6437,521.9099,781.4753,531.9195,782.0466,541.9291,781.1515,551.9387,781.2992,561.9483,782.4673,571.9579,782.254,581.9674,782.5528,591.977,781.4966,601.9866,782.1376,611.9962,782.4088,622.0058,781.346,632.0154,781.7225,642.0249,781.9443,652.0345,782.4701,662.0441,781.8142,672.0537,782.2809,682.0633,781.2646,692.0729,781.1411,702.0824,782.322,712.092,781.1014,722.1016,782.3273,732.1112,782.025,742.1208,781.5504,752.1304,781.4646,762.1399,782.2771,772.1495,781.519,782.1591,782.4102,792.1687,781.2656,802.1783,782.4358,812.1879,782.3027,822.1974,781.8184,832.207,781.8184,832.2887,780.2184,832.2228,778.6184,832.4492,777.0184,832.4116,775.4184,832.2634,773.8184,832.207,774.0865,832.207,773.6881,822.1974,774.5348,812.1879,773.9732,802.1783,773.9909,792.1687,773.21,782.1591,773.4131,772.1495,774.3491,762.1399,774.2481,752.1304,773.7754,742.1208,773.4962,732.1112,773.5994,722.1016,773.1322,712.092,774.2331,702.0824,774.5579,692.0729,774.3448,682.0633,774.5133,672.0537,773.6816,662.0441,773.9056,652.0345,773.4308,642.0249,774.1024,632.0154,774.0651,622.0058,774.3707,611.9962,773.5887,601.9866,773.684,591.977,774.2618,581.9674,774.3857,571.9579,773.3058,561.9483,773.6245,551.9387,773.9676,541.9291,773.2075,531.9195,774.1718,521.9099,774.0763,511.9004,773.7176,501.8908,773.9606,491.8812,774.547,481.8716,773.5055,471.862,774.1333,461.8524,774.104,451.8429,773.9341,441.8333,773.9593,431.8237,773.9318,421.8141,773.1942,411.8045,773.4175,401.7949,773.3568,391.7854,773.8822,381.7758,773.9065,371.7662,773.9801,361.7566,773.5274,351.747,773.7508,341.7374,773.6981,331.7279,774.3952,321.7183,774.2449,311.7087,773.3328,301.6991,773.7454,291.6895,773.2411,281.6799,774.1067,271.6704,774.4268,261.6608,774.3629,251.6512,773.3828,241.6416,774.2823,231.632,773.0756,221.6224,774.0185,211.6129,773.519,201.6033,773.9151,191.5937,774.0587,181.5841,774.2905,171.5745,773.0984,161.5649,774.2938,151.5554,773.9965,141.5458,774.1737,131.5362,774.5662,121.5266,773.8238,111.517,773.9936,101.5074,774.0318,91.4979,773.8184,81.4883"/><path d="M777.3579,81.4883 L777.6382,81.4883 L776.8055,91.4979 L777.6156,101.5074 L777.8908,111.517 L776.4067,121.5266 L777.2543,131.5362 L776.7893,141.5458 L776.8466,151.5554 L777.267,161.5649 L776.4361,171.5745 L778.0961,181.5841 L776.5175,191.5937 L777.0942,201.6033 L777.9338,211.6129 L777.2435,221.6224 L777.4489,231.632 L777.3153,241.6416 L777.5959,251.6512 L777.6768,261.6608 L778.1388,271.6704 L778.2526,281.6799 L778.2636,291.6895 L777.6974,301.6991 L777.976,311.7087 L778.2942,321.7183 L776.3963,331.7279 L778.2626,341.7374 L776.9626,351.747 L778.0697,361.7566 L776.6979,371.7662 L777.2666,381.7758 L778.3467,391.7854 L777.2929,401.7949 L777.4983,411.8045 L777.8094,421.8141 L777.9129,431.8237 L777.3527,441.8333 L777.7409,451.8429 L776.5947,461.8524 L777.7371,471.862 L778.0888,481.8716 L777.9506,491.8812 L778.1753,501.8908 L776.7138,511.9004 L776.4883,521.9099 L776.5294,531.9195 L777.2794,541.9291 L777.0959,551.9387 L778.2665,561.9483 L777.125,571.9579 L776.9005,581.9674 L777.6623,591.977 L776.4688,601.9866 L776.6657,611.9962 L778.2232,622.0058 L777.9388,632.0154 L778.3372,642.0249 L776.9289,652.0345 L777.7835,662.0441 L778.1451,672.0537 L776.728,682.0633 L777.2301,692.0729 L777.5259,702.0824 L778.2269,712.092 L777.3523,722.1016 L777.9747,732.1112 L776.6195,742.1208 L776.4549,752.1304 L778.0294,762.1399 L776.402,772.1495 L778.0365,782.1591 L777.6334,792.1687 L777.0007,802.1783 L776.8862,812.1879 L777.9696,822.1974 L777.3579,832.207" fill="none" style="stroke:#181818;stroke-width:0.5;stroke-dasharray:5,5;"/></g><g class="participant participant-head" data-participant="User"><text fill="#000000" font-family="sans-serif" font-size="14" lengthAdjust="spacing" textLength="30.3652" x="30" y="78.5352">User</text><polygon fill="#E2E2F0" points="56.2268,15.4459,55.0541,17.0482,53.6671,19.3951,51.6834,20.9767,49.5989,21.8415,47.9368,21.9166,45.8006,20.8349,43.7849,20.1283,42.255,18.6936,41.4525,17.0511,40.9766,15.7433,40.5103,14.0351,39.7535,12.5651,40.3351,11.1298,40.8446,9.5576,42.7567,8.3142,44.1019,6.7008,45.7669,6.165,47.7463,5.7037,50.2847,5.9778,51.675,6.6335,53.2915,6.9307,55.2569,8.9443,55.9421,11.0701,56.2398,12.5206,55.9026,14.9108" style="stroke:#181818;stroke-width:0.5;"/><path d="M48.1826,21.5 L48.3694,21.5 L47.8143,26.9 L48.3544,32.3 L48.5379,37.7 L47.5485,43.1 L48.1826,48.5 M35.1826,29.5 L35.1826,29.4309 L40.3826,29.1209 L45.5826,29.1591 L50.7826,29.4394 L55.9826,28.8854 L61.1826,29.5 M48.1826,48.5 L48.5545,48.8223 L45.1592,51.1331 L42.8498,54.3849 L40.6728,57.7515 L37.725,60.4501 L35.1826,63.5 M48.1826,48.5 L48.2285,48.5397 L50.7612,51.4814 L53.5025,54.6039 L56.1432,57.6392 L58.976,60.841 L61.1826,63.5" fill="none" style="stroke:#181818;stroke-width:0.5;"/></g><g class="participant participant-tail" data-participant="User"><text fill="#000000" font-family="sans-serif" font-size="14" lengthAdjust="spacing" textLength="30.3652" x="30" y="844.7422">User</text><polygon fill="#E2E2F0" points="56.2268,858.1412,55.0541,859.7435,53.6671,862.0904,51.6834,863.672,49.5989,864.5368,47.9368,864.6119,45.8006,863.5303,43.7849,862.8236,42.255,861.3889,41.4525,859.7464,40.9766,858.4386,40.5103,856.7304,39.7535,855.2604,40.3351,853.8251,40.8446,852.2529,42.7567,851.0095,44.1019,849.3961,45.7669,848.8604,47.7463,848.399,50.2847,848.6731,51.675,849.3288,53.2915,849.626,55.2569,851.6397,55.9421,853.7655,56.2398,855.2159,55.9026,857.6061" style="stroke:#181818;stroke-width:0.5;"/><path d="M48.1826,864.1953 L48.3694,864.1953 L47.8143,869.5953 L48.3544,874.9953 L48.5379,880.3953 L47.5485,885.7953 L48.1826,891.1953 M35.1826,872.1953 L35.1826,872.1262 L40.3826,871.8162 L45.5826,871.8544 L50.7826,872.1347 L55.9826,871.5808 L61.1826,872.1953 M48.1826,891.1953 L48.5545,891.5176 L45.1592,893.8284 L42.8498,897.0802 L40.6728,900.4468 L37.725,903.1454 L35.1826,906.1953 M48.1826,891.1953 L48.2285,891.235 L50.7612,894.1767 L53.5025,897.2992 L56.1432,900.3345 L58.976,903.5363 L61.1826,906.1953" fill="none" style="stroke:#181818;stroke-width:0.5;"/></g><g class="participant participant-head" data-participant="Client"><polygon fill="#E2E2F0" points="131.895,33.5117,131.895,33.7219,141.9128,33.0974,151.9305,33.705,161.9482,33.9114,171.9659,32.7983,181.9837,33.434,192.0014,33.0852,202.0191,33.1282,212.0369,33.4436,222.0546,32.8203,232.0723,34.0654,242.0901,32.8814,252.1078,33.314,262.1255,33.9437,272.1433,33.4259,282.161,33.58,292.1787,33.4798,302.1965,33.6902,312.2142,33.7509,322.2319,33.5117,322.3066,33.6921,322.6711,33.8648,323.0257,34.0138,323.3251,34.0295,323.7053,34.2403,323.9997,34.244,324.216,34.3335,323.9241,34.5055,324.5015,35.0376,324.3477,35.2668,324.7499,35.7263,324.7319,36.0117,324.5669,36.0117,324.7091,44.407,324.9791,52.8023,324.7157,61.1977,324.767,69.593,324.7319,77.9883,324.8362,78.0315,324.7137,78.3949,324.4378,78.6949,324.381,79.0856,323.9699,79.3295,323.9997,79.756,324.036,79.8436,323.7161,80.0713,323.3493,80.1858,323.0172,80.3842,322.5239,80.1931,322.2319,80.4883,322.2319,79.8361,312.2142,79.8669,302.1965,80.4294,292.1787,80.2918,282.161,81.1697,272.1433,80.3136,262.1255,80.1452,252.1078,80.7165,242.0901,79.8214,232.0723,79.9692,222.0546,81.1372,212.0369,80.9239,202.0191,81.2228,192.0014,80.1665,181.9837,80.8075,171.9659,81.0787,161.9482,80.0159,151.9305,80.3924,141.9128,80.6143,131.895,80.4883,131.9782,80.689,131.5409,80.3405,131.2469,80.3378,130.7637,79.8784,130.3944,79.6939,130.1273,79.756,130.2823,79.8203,129.76,79.311,129.9911,79.1139,129.7515,78.7217,129.459,78.3077,129.395,77.9883,129.2771,77.9883,129.5479,69.593,129.2952,61.1977,129.5923,52.8023,129.2108,44.407,129.395,36.0117,129.5852,36.0905,129.6906,35.7199,129.7634,35.3359,129.8489,34.9571,130.2046,34.6902,130.1273,34.244,130.2055,34.4329,130.5024,34.1496,130.8686,34.0336,131.1713,33.7645,131.6329,33.8788,131.895,33.5117" style="stroke:#181818;stroke-width:0.5;"/><text fill="#000000" font-family="sans-serif" font-size="14" lengthAdjust="spacing" textLength="68.8789" x="192.624" y="54.0469">Lisp client</text><text fill="#000000" font-family="sans-serif" font-size="14" lengthAdjust="spacing" textLength="181.3369" x="136.395" y="70.5352">(run-mcp-ollama-session)</text></g><g class="participant participant-tail" data-participant="Client"><polygon fill="#E2E2F0" points="131.895,831.207,131.895,831.4172,141.9128,830.7927,151.9305,831.4003,161.9482,831.6067,171.9659,830.4936,181.9837,831.1293,192.0014,830.7805,202.0191,830.8235,212.0369,831.1389,222.0546,830.5157,232.0723,831.7607,242.0901,830.5768,252.1078,831.0093,262.1255,831.639,272.1433,831.1213,282.161,831.2753,292.1787,831.1751,302.1965,831.3856,312.2142,831.4462,322.2319,831.207,322.3066,831.3874,322.6711,831.5601,323.0257,831.7091,323.3251,831.7248,323.7053,831.9356,323.9997,831.9393,324.216,832.0288,323.9241,832.2008,324.5015,832.7329,324.3477,832.9621,324.7499,833.4216,324.7319,833.707,324.5669,833.707,324.7091,842.1023,324.9791,850.4977,324.7157,858.893,324.767,867.2883,324.7319,875.6836,324.8362,875.7268,324.7137,876.0902,324.4378,876.3902,324.381,876.7809,323.9699,877.0248,323.9997,877.4514,324.036,877.5389,323.7161,877.7666,323.3493,877.8812,323.0172,878.0795,322.5239,877.8884,322.2319,878.1836,322.2319,877.5314,312.2142,877.5622,302.1965,878.1247,292.1787,877.9871,282.161,878.865,272.1433,878.0089,262.1255,877.8405,252.1078,878.4119,242.0901,877.5168,232.0723,877.6645,222.0546,878.8325,212.0369,878.6193,202.0191,878.9181,192.0014,877.8618,181.9837,878.5028,171.9659,878.774,161.9482,877.7112,151.9305,878.0877,141.9128,878.3096,131.895,878.1836,131.9782,878.3843,131.5409,878.0359,131.2469,878.0332,130.7637,877.5737,130.3944,877.3892,130.1273,877.4514,130.2823,877.5156,129.76,877.0064,129.9911,876.8092,129.7515,876.4171,129.459,876.003,129.395,875.6836,129.2771,875.6836,129.5479,867.2883,129.2952,858.893,129.5923,850.4977,129.2108,842.1023,129.395,833.707,129.5852,833.7858,129.6906,833.4153,129.7634,833.0312,129.8489,832.6524,130.2046,832.3855,130.1273,831.9393,130.2055,832.1282,130.5024,831.8449,130.8686,831.729,131.1713,831.4598,131.6329,831.5741,131.895,831.207" style="stroke:#181818;stroke-width:0.5;"/><text fill="#000000" font-family="sans-serif" font-size="14" lengthAdjust="spacing" textLength="68.8789" x="192.624" y="851.7422">Lisp client</text><text fill="#000000" font-family="sans-serif" font-size="14" lengthAdjust="spacing" textLength="181.3369" x="136.395" y="868.2305">(run-mcp-ollama-session)</text></g><g class="participant participant-head" data-participant="MCP"><polygon fill="#E2E2F0" points="589.6411,33.5117,589.6411,33.7219,599.3319,33.0974,609.0226,33.705,618.7134,33.9114,628.4041,32.7983,638.0949,33.434,647.7856,33.0852,657.4764,33.1282,667.1672,33.4436,676.8579,33.5117,676.7697,33.2988,677.2821,33.8287,677.4846,33.6105,677.8933,33.8902,678.3272,34.2305,678.6257,34.244,678.5993,34.233,678.7931,34.6062,678.9087,34.947,679.12,35.3274,679.2851,35.6887,679.3579,36.0117,679.5531,36.0117,679.5816,44.407,679.5843,52.8023,679.4428,61.1977,679.5124,69.593,679.3579,77.9883,679.5742,78.0779,678.9894,78.2498,679.274,78.7819,678.8273,79.0111,678.9365,79.4706,678.6257,79.756,678.5625,79.6036,678.2634,79.8814,678.0132,80.2773,677.5588,80.1804,677.2249,80.3743,676.8579,80.4883,676.8579,80.8269,667.1672,80.9045,657.4764,80.4844,647.7856,80.7755,638.0949,79.9159,628.4041,80.7727,618.7134,81.0365,609.0226,80.9328,599.3319,81.1013,589.6411,80.4883,589.5795,80.3395,589.2044,80.141,588.8547,80.004,588.5729,80.0308,588.2018,79.842,587.8733,79.756,588.0832,79.843,587.6731,79.3802,587.4748,79.0052,587.5043,78.7245,587.0822,78.2568,587.1411,77.9883,586.9681,77.9883,587.3574,69.593,587.2863,61.1977,587.3859,52.8023,587.0338,44.407,587.1411,36.0117,587.2394,36.0524,587.4694,35.7335,587.2885,35.2444,587.5509,34.9388,587.7657,34.6136,587.8733,34.244,587.9565,34.4447,588.2264,34.0962,588.6395,34.0935,588.8634,33.6341,589.2012,33.4496,589.6411,33.5117" style="stroke:#181818;stroke-width:0.5;"/><text fill="#000000" font-family="sans-serif" font-size="14" lengthAdjust="spacing" textLength="75.3525" x="595.5732" y="54.0469">MCP server</text><text fill="#000000" font-family="sans-serif" font-size="14" lengthAdjust="spacing" textLength="78.2168" x="594.1411" y="70.5352">(*mcp-url*)</text></g><g class="participant participant-tail" data-participant="MCP"><polygon fill="#E2E2F0" points="589.6411,831.207,589.6411,831.4172,599.3319,830.7927,609.0226,831.4003,618.7134,831.6067,628.4041,830.4936,638.0949,831.1293,647.7856,830.7805,657.4764,830.8235,667.1672,831.1389,676.8579,831.207,676.7697,830.9941,677.2821,831.524,677.4846,831.3058,677.8933,831.5855,678.3272,831.9258,678.6257,831.9393,678.5993,831.9283,678.7931,832.3015,678.9087,832.6423,679.12,833.0227,679.2851,833.384,679.3579,833.707,679.5531,833.707,679.5816,842.1023,679.5843,850.4977,679.4428,858.893,679.5124,867.2883,679.3579,875.6836,679.5742,875.7732,678.9894,875.9452,679.274,876.4773,678.8273,876.7064,678.9365,877.1659,678.6257,877.4514,678.5625,877.2989,678.2634,877.5767,678.0132,877.9726,677.5588,877.8757,677.2249,878.0696,676.8579,878.1836,676.8579,878.5222,667.1672,878.5998,657.4764,878.1797,647.7856,878.4708,638.0949,877.6112,628.4041,878.468,618.7134,878.7318,609.0226,878.6281,599.3319,878.7966,589.6411,878.1836,589.5795,878.0348,589.2044,877.8363,588.8547,877.6993,588.5729,877.7261,588.2018,877.5373,587.8733,877.4514,588.0832,877.5383,587.6731,877.0755,587.4748,876.7005,587.5043,876.4198,587.0822,875.9521,587.1411,875.6836,586.9681,875.6836,587.3574,867.2883,587.2863,858.893,587.3859,850.4977,587.0338,842.1023,587.1411,833.707,587.2394,833.7477,587.4694,833.4288,587.2885,832.9397,587.5509,832.6341,587.7657,832.3089,587.8733,831.9393,587.9565,832.14,588.2264,831.7915,588.6395,831.7888,588.8634,831.3294,589.2012,831.1449,589.6411,831.207" style="stroke:#181818;stroke-width:0.5;"/><text fill="#000000" font-family="sans-serif" font-size="14" lengthAdjust="spacing" textLength="75.3525" x="595.5732" y="851.7422">MCP server</text><text fill="#000000" font-family="sans-serif" font-size="14" lengthAdjust="spacing" textLength="78.2168" x="594.1411" y="868.2305">(*mcp-url*)</text></g><g class="participant participant-head" data-participant="Ollama"><polygon fill="#E2E2F0" points="691.8579,33.5117,691.8579,33.7219,701.9709,33.0974,712.0839,33.705,722.1969,33.9114,732.3099,32.7983,742.4229,33.434,752.5359,33.0852,762.6489,33.1282,772.7619,33.4436,782.8749,32.8203,792.9879,34.0654,803.1008,32.8814,813.2138,33.314,823.3268,33.9437,833.4398,33.4259,843.5528,33.58,853.6658,33.4798,863.7788,33.5117,863.8016,33.5667,864.1629,33.7318,864.5606,33.985,864.9251,34.1577,865.2797,34.3067,865.5466,34.244,865.625,34.2764,865.8358,34.6566,866.0557,35.0406,865.7638,35.2126,866.3413,35.7447,866.2788,36.0117,866.18,36.0117,866.4567,44.407,866.1138,52.8023,866.256,61.1977,866.526,69.593,866.2788,77.9883,866.2638,77.9821,866.1648,78.3553,866.0902,78.7386,865.9677,79.102,865.6918,79.402,865.5466,79.756,865.5832,79.8445,865.12,79.7262,864.8757,80.1365,864.5558,80.3642,864.1891,80.4787,863.7788,80.4883,863.7788,81.1013,853.6658,80.0052,843.5528,79.8361,833.4398,79.8669,823.3268,80.4294,813.2138,80.2918,803.1008,81.1697,792.9879,80.3136,782.8749,80.1452,772.7619,80.7165,762.6489,79.8214,752.5359,79.9692,742.4229,81.1372,732.3099,80.9239,722.1969,81.2228,712.0839,80.1665,701.9709,80.8075,691.8579,80.4883,691.9332,80.6701,691.4441,80.1964,691.1386,80.1659,690.8133,80.0877,690.5268,80.1032,690.0901,79.756,690.0889,79.7555,690.0861,79.4615,689.6267,78.9783,689.4422,78.609,689.6594,78.4061,689.3579,77.9883,689.1189,77.9883,689.5276,69.593,689.4268,61.1977,689.2686,52.8023,689.24,44.407,689.3579,36.0117,689.4992,36.0702,689.4122,35.62,689.8331,35.3801,689.627,34.8805,690.1338,34.6763,690.0901,34.244,690.1519,34.3931,690.4749,34.1729,690.8033,33.9656,691.2435,34.0284,691.5826,33.8471,691.8579,33.5117" style="stroke:#181818;stroke-width:0.5;"/><text fill="#000000" font-family="sans-serif" font-size="14" lengthAdjust="spacing" textLength="47.5029" x="754.0669" y="54.0469">Ollama</text><text fill="#000000" font-family="sans-serif" font-size="14" lengthAdjust="spacing" textLength="162.9209" x="696.3579" y="70.5352">(*ollama-url* /api/chat)</text></g><g class="participant participant-tail" data-participant="Ollama"><polygon fill="#E2E2F0" points="691.8579,831.207,691.8579,831.4172,701.9709,830.7927,712.0839,831.4003,722.1969,831.6067,732.3099,830.4936,742.4229,831.1293,752.5359,830.7805,762.6489,830.8235,772.7619,831.1389,782.8749,830.5157,792.9879,831.7607,803.1008,830.5768,813.2138,831.0093,823.3268,831.639,833.4398,831.1213,843.5528,831.2753,853.6658,831.1751,863.7788,831.207,863.8016,831.262,864.1629,831.4271,864.5606,831.6803,864.9251,831.853,865.2797,832.002,865.5466,831.9393,865.625,831.9717,865.8358,832.352,866.0557,832.7359,865.7638,832.9079,866.3413,833.44,866.2788,833.707,866.18,833.707,866.4567,842.1023,866.1138,850.4977,866.256,858.893,866.526,867.2883,866.2788,875.6836,866.2638,875.6774,866.1648,876.0506,866.0902,876.4339,865.9677,876.7973,865.6918,877.0973,865.5466,877.4514,865.5832,877.5398,865.12,877.4215,864.8757,877.8318,864.5558,878.0595,864.1891,878.174,863.7788,878.1836,863.7788,878.7966,853.6658,877.7005,843.5528,877.5314,833.4398,877.5622,823.3268,878.1247,813.2138,877.9871,803.1008,878.865,792.9879,878.0089,782.8749,877.8405,772.7619,878.4119,762.6489,877.5168,752.5359,877.6645,742.4229,878.8325,732.3099,878.6193,722.1969,878.9181,712.0839,877.8618,701.9709,878.5028,691.8579,878.1836,691.9332,878.3654,691.4441,877.8917,691.1386,877.8612,690.8133,877.7831,690.5268,877.7985,690.0901,877.4514,690.0889,877.4508,690.0861,877.1568,689.6267,876.6736,689.4422,876.3043,689.6594,876.1014,689.3579,875.6836,689.1189,875.6836,689.5276,867.2883,689.4268,858.893,689.2686,850.4977,689.24,842.1023,689.3579,833.707,689.4992,833.7656,689.4122,833.3153,689.8331,833.0754,689.627,832.5759,690.1338,832.3716,690.0901,831.9393,690.1519,832.0884,690.4749,831.8683,690.8033,831.6609,691.2435,831.7237,691.5826,831.5424,691.8579,831.207" style="stroke:#181818;stroke-width:0.5;"/><text fill="#000000" font-family="sans-serif" font-size="14" lengthAdjust="spacing" textLength="47.5029" x="754.0669" y="851.7422">Ollama</text><text fill="#000000" font-family="sans-serif" font-size="14" lengthAdjust="spacing" textLength="162.9209" x="696.3579" y="868.2305">(*ollama-url* /api/chat)</text></g><g><title>Lisp client</title><polygon fill="#FFFFFF" points="222.0635,156.1094,222.0635,156.1794,224.0635,155.9713,226.0635,156.1738,228.0635,156.2426,230.0635,155.8716,232.0635,156.1094,231.9858,156.1094,231.637,166.2238,231.68,176.3382,231.9953,186.4526,231.3721,196.567,232.6171,206.6814,231.4332,216.7958,231.8657,226.9103,232.4954,237.0247,231.9777,247.1391,232.1317,257.2535,232.0315,267.3679,232.242,277.4823,232.3026,287.5967,232.6492,297.7111,232.7345,307.8256,232.7427,317.94,232.3181,328.0544,232.5271,338.1688,232.7657,348.2832,231.3423,358.3976,232.742,368.512,231.767,378.6264,232.5973,388.7409,231.5685,398.8553,231.995,408.9697,232.8051,419.0841,232.0147,429.1985,232.1688,439.3129,232.4021,449.4273,232.4797,459.5417,232.0596,469.6561,232.3507,479.7706,231.4911,489.885,232.3479,499.9994,232.6117,510.1138,232.508,520.2282,232.6765,530.3426,232.0635,540.457,232.0635,540.296,230.0635,540.2396,228.0635,540.2499,226.0635,540.4374,224.0635,540.3915,222.0635,540.457,222.7449,540.457,221.8888,530.3426,221.7204,520.2282,222.2917,510.1138,221.3966,499.9994,221.5444,489.885,222.7124,479.7706,222.4991,469.6561,222.798,459.5417,221.7417,449.4273,222.3827,439.3129,222.6539,429.1985,221.5911,419.0841,221.9676,408.9697,222.1895,398.8553,222.7152,388.7409,222.0593,378.6264,222.526,368.512,221.5097,358.3976,221.3862,348.2832,222.5671,338.1688,221.3465,328.0544,222.5724,317.94,222.2701,307.8256,221.7956,297.7111,221.7097,287.5967,222.5222,277.4823,221.7641,267.3679,222.6553,257.2535,221.5107,247.1391,222.6809,237.0247,222.5478,226.9103,222.3084,216.7958,222.1107,206.6814,222.7901,196.567,222.6771,186.4526,222.2327,176.3382,222.3317,166.2238,222.0635,156.1094" style="stroke:#181818;stroke-width:1;"/></g><g><title>MCP server</title><polygon fill="#FFFFFF" points="628.2495,200.7305,628.2495,200.8005,630.2495,200.5924,632.2495,200.7949,634.2495,200.8637,636.2495,200.4927,638.2495,200.7305,638.2236,200.7305,638.1073,206.5926,638.1217,212.4547,638.2268,218.3168,638.0191,224.1789,638.2495,230.041,638.2495,230.2256,636.2495,229.8309,634.2495,229.9751,632.2495,230.185,630.2495,230.0124,628.2495,230.041,628.2723,230.041,628.2389,224.1789,628.309,218.3168,628.3292,212.4547,628.4447,206.5926,628.2495,200.7305" style="stroke:#181818;stroke-width:1;"/></g><g><title>MCP server</title><polygon fill="#FFFFFF" points="628.2495,690.9648,628.2495,691.0349,630.2495,690.8267,632.2495,691.0293,634.2495,691.0981,636.2495,690.727,638.2495,690.9648,638.2236,690.9648,638.1073,696.827,638.1217,702.6891,638.2268,708.5512,638.0191,714.4133,638.2495,720.2754,638.2495,720.4599,636.2495,720.0653,634.2495,720.2095,632.2495,720.4194,630.2495,720.2468,628.2495,720.2754,628.2723,720.2754,628.2389,714.4133,628.309,708.5512,628.3292,702.6891,628.4447,696.827,628.2495,690.9648" style="stroke:#181818;stroke-width:1;"/></g><g><title>Ollama</title><polygon fill="#FFFFFF" points="772.8184,457.5254,772.8184,457.5955,774.8184,457.3873,776.8184,457.5898,778.8184,457.6586,780.8184,457.2876,782.8184,457.5254,782.7925,457.5254,782.6762,463.3875,782.6905,469.2496,782.7956,475.1117,782.5879,480.9738,782.8184,486.8359,782.8184,487.0205,780.8184,486.6258,778.8184,486.77,776.8184,486.9799,774.8184,486.8073,772.8184,486.8359,772.8411,486.8359,772.8077,480.9738,772.8779,475.1117,772.8981,469.2496,773.0136,463.3875,772.8184,457.5254" style="stroke:#181818;stroke-width:1;"/></g><polygon fill="#EEEEEE" points="0,112.1436,0,112.3537,9.9582,111.7292,19.9164,112.3368,29.8746,112.5432,39.8328,111.4302,49.7909,112.0658,59.7491,111.7171,69.7073,111.7601,79.6655,112.0754,89.6237,111.4522,99.5819,112.6972,109.5401,111.5133,119.4983,111.9458,129.4565,112.5755,139.4146,112.0578,149.3728,112.2118,159.331,112.1116,169.2892,112.3221,179.2474,112.3827,189.2056,112.7292,199.1638,112.8146,209.122,112.8228,219.0802,112.3982,229.0383,112.6071,238.9965,112.8458,248.9547,111.4224,258.9129,112.8221,268.8711,111.8471,278.8293,112.6774,288.7875,111.6485,298.7457,112.0751,308.7039,112.8852,318.662,112.0948,328.6202,112.2489,338.5784,112.4822,348.5366,112.5598,358.4948,112.1396,368.453,112.4308,378.4112,111.5711,388.3694,112.4279,398.3276,112.6917,408.2857,112.5881,418.2439,112.7566,428.2021,111.6605,438.1603,111.4914,448.1185,111.5222,458.0767,112.0847,468.0349,111.947,477.9931,112.825,487.9513,111.9689,497.9094,111.8005,507.8676,112.3718,517.8258,111.4767,527.784,111.6244,537.7422,112.7925,547.7004,112.5792,557.6586,112.878,567.6168,111.8218,577.575,112.4628,587.5331,112.734,597.4913,111.6711,607.4495,112.0477,617.4077,112.2695,627.3659,112.7953,637.3241,112.1394,647.2823,112.6061,657.2405,111.5898,667.1987,111.4663,677.1568,112.6472,687.115,111.4266,697.0732,112.6525,707.0314,112.3502,716.9896,111.8756,726.9478,111.7898,736.906,112.6023,746.8642,111.8442,756.8224,112.7354,766.7805,111.5908,776.7387,112.761,786.6969,112.6279,796.6551,112.3885,806.6133,112.1908,816.5715,112.8702,826.5297,112.7571,836.4879,112.3128,846.4461,112.4117,856.4042,112.0133,866.3624,112.86,876.3206,112.2984,886.2788,112.1436,886.3363,112.1436,886.076,112.7436,886.1437,113.3436,886.4557,113.9436,886.4221,114.5436,886.2788,115.1436,886.2788,115.1006,876.3206,114.8214,866.3624,114.9246,856.4042,114.4574,846.4461,115.5583,836.4879,115.8831,826.5297,115.6699,816.5715,115.8385,806.6133,115.0068,796.6551,115.2308,786.6969,114.756,776.7387,115.4276,766.7805,115.3903,756.8224,115.6959,746.8642,114.9139,736.906,115.0091,726.9478,115.587,716.9896,115.7109,707.0314,114.631,697.0732,114.9497,687.115,115.2928,677.1568,114.5327,667.1987,115.4969,657.2405,115.4015,647.2823,115.0428,637.3241,115.2858,627.3659,115.8722,617.4077,114.8307,607.4495,115.4585,597.4913,115.4292,587.5331,115.2593,577.575,115.2845,567.6168,115.257,557.6586,114.5194,547.7004,114.7427,537.7422,114.682,527.784,115.2074,517.8258,115.2317,507.8676,115.3053,497.9094,114.8526,487.9513,115.076,477.9931,115.0233,468.0349,115.7204,458.0767,115.5701,448.1185,114.658,438.1603,115.0706,428.2021,114.5663,418.2439,115.4319,408.2857,115.752,398.3276,115.6881,388.3694,114.708,378.4112,115.6075,368.453,114.4007,358.4948,115.3437,348.5366,114.8442,338.5784,115.2403,328.6202,115.3839,318.662,115.6157,308.7039,114.4236,298.7457,115.619,288.7875,115.3217,278.8293,115.4989,268.8711,115.8914,258.9129,115.149,248.9547,115.3188,238.9965,115.357,229.0383,115.3408,219.0802,115.1427,209.122,115.8543,199.1638,114.5338,189.2056,115.7088,179.2474,114.5196,169.2892,114.6032,159.331,115.1836,149.3728,115.1718,139.4146,114.6507,129.4565,115.5573,119.4983,115.2524,109.5401,115.8702,99.5819,115.8107,89.6237,114.6953,79.6655,114.7456,69.7073,115.0144,59.7491,115.4991,49.7909,115.5465,39.8328,115.4447,29.8746,114.8016,19.9164,115.7799,9.9582,115.7773,0,115.1436,-0.0158,115.1436,-0.0797,114.5436,-0.1338,113.9436,-0.0715,113.3436,0.0458,112.7436,0,112.1436" style="stroke:#EEEEEE;stroke-width:1;"/><path d="M0,112.1436 L0,112.4238 L9.9582,111.5911 L19.9164,112.4013 L29.8746,112.6765 L39.8328,111.1924 L49.7909,112.0399 L59.7491,111.5749 L69.7073,111.6322 L79.6655,112.0527 L89.6237,111.2217 L99.5819,112.8817 L109.5401,111.3032 L119.4983,111.8799 L129.4565,112.7195 L139.4146,112.0292 L149.3728,112.2345 L159.331,112.101 L169.2892,112.3816 L179.2474,112.4624 L189.2056,112.9245 L199.1638,113.0383 L209.122,113.0492 L219.0802,112.4831 L229.0383,112.7617 L238.9965,113.0799 L248.9547,111.182 L258.9129,113.0482 L268.8711,111.7482 L278.8293,112.8553 L288.7875,111.4835 L298.7457,112.0522 L308.7039,113.1324 L318.662,112.0786 L328.6202,112.284 L338.5784,112.5951 L348.5366,112.6985 L358.4948,112.1383 L368.453,112.5265 L378.4112,111.3803 L388.3694,112.5227 L398.3276,112.8745 L408.2857,112.7363 L418.2439,112.9609 L428.2021,111.4994 L438.1603,111.274 L448.1185,111.315 L458.0767,112.065 L468.0349,111.8815 L477.9931,113.0521 L487.9513,111.9107 L497.9094,111.6862 L507.8676,112.4479 L517.8258,111.2544 L527.784,111.4514 L537.7422,113.0088 L547.7004,112.7244 L557.6586,113.1229 L567.6168,111.7145 L577.575,112.5692 L587.5331,112.9308 L597.4913,111.5137 L607.4495,112.0157 L617.4077,112.3115 L627.3659,113.0126 L637.3241,112.138 L647.2823,112.7603 L657.2405,111.4052 L667.1987,111.2405 L677.1568,112.815 L687.115,111.1876 L697.0732,112.8222 L707.0314,112.4191 L716.9896,111.7863 L726.9478,111.6719 L736.906,112.7552 L746.8642,111.7444 L756.8224,112.9327 L766.7805,111.4066 L776.7387,112.9668 L786.6969,112.7893 L796.6551,112.4702 L806.6133,112.2065 L816.5715,113.1124 L826.5297,112.9617 L836.4879,112.3692 L846.4461,112.5011 L856.4042,111.9699 L866.3624,113.0988 L876.3206,112.35 L886.2788,112.1436" fill="#EEEEEE" style="stroke:#000000;stroke-width:1;"/><path d="M0,115.1436 L0,115.4238 L9.9582,114.5911 L19.9164,115.4013 L29.8746,115.6765 L39.8328,114.1924 L49.7909,115.0399 L59.7491,114.5749 L69.7073,114.6322 L79.6655,115.0527 L89.6237,114.2217 L99.5819,115.8817 L109.5401,114.3032 L119.4983,114.8799 L129.4565,115.7195 L139.4146,115.0292 L149.3728,115.2345 L159.331,115.101 L169.2892,115.3816 L179.2474,115.4624 L189.2056,115.9245 L199.1638,116.0383 L209.122,116.0492 L219.0802,115.4831 L229.0383,115.7617 L238.9965,116.0799 L248.9547,114.182 L258.9129,116.0482 L268.8711,114.7482 L278.8293,115.8553 L288.7875,114.4835 L298.7457,115.0522 L308.7039,116.1324 L318.662,115.0786 L328.6202,115.284 L338.5784,115.5951 L348.5366,115.6985 L358.4948,115.1383 L368.453,115.5265 L378.4112,114.3803 L388.3694,115.5227 L398.3276,115.8745 L408.2857,115.7363 L418.2439,115.9609 L428.2021,114.4994 L438.1603,114.274 L448.1185,114.315 L458.0767,115.065 L468.0349,114.8815 L477.9931,116.0521 L487.9513,114.9107 L497.9094,114.6862 L507.8676,115.4479 L517.8258,114.2544 L527.784,114.4514 L537.7422,116.0088 L547.7004,115.7244 L557.6586,116.1229 L567.6168,114.7145 L577.575,115.5692 L587.5331,115.9308 L597.4913,114.5137 L607.4495,115.0157 L617.4077,115.3115 L627.3659,116.0126 L637.3241,115.138 L647.2823,115.7603 L657.2405,114.4052 L667.1987,114.2405 L677.1568,115.815 L687.115,114.1876 L697.0732,115.8222 L707.0314,115.4191 L716.9896,114.7863 L726.9478,114.6719 L736.906,115.7552 L746.8642,114.7444 L756.8224,115.9327 L766.7805,114.4066 L776.7387,115.9668 L786.6969,115.7893 L796.6551,115.4702 L806.6133,115.2065 L816.5715,116.1124 L826.5297,115.9617 L836.4879,115.3692 L846.4461,115.5011 L856.4042,114.9699 L866.3624,116.0988 L876.3206,115.35 L886.2788,115.1436" fill="#EEEEEE" style="stroke:#000000;stroke-width:1;"/><polygon fill="#EEEEEE" points="391.9978,101.4883,391.9978,101.6985,402.2261,101.074,412.4544,101.6816,422.6828,101.888,432.9111,100.7749,443.1394,101.4106,453.3677,101.0618,463.596,101.1048,473.8244,101.4201,484.0527,100.7969,494.281,101.4883,494.4656,101.4883,494.0709,106.1504,494.2151,110.8125,494.425,115.4746,494.2524,120.1367,494.281,124.7988,494.281,124.8671,484.0527,124.7669,473.8244,124.9774,463.596,125.038,453.3677,125.3845,443.1394,125.4699,432.9111,125.4781,422.6828,125.0535,412.4544,125.2624,402.2261,125.5011,391.9978,124.7988,391.7574,124.7988,392.224,120.1367,391.899,115.4746,392.1757,110.8125,391.8328,106.1504,391.9978,101.4883" style="stroke:#000000;stroke-width:2;"/><text fill="#000000" font-family="sans-serif" font-size="13" font-weight="bold" lengthAdjust="spacing" textLength="83.9985" x="397.9978" y="118.0566">Initialisation</text><g class="message" data-participant-1="User" data-participant-2="Client"><polygon fill="#181818" points="210.0635,152.1094,210.0895,152.1744,212.0122,152.7811,214.0874,153.7692,216.113,154.6331,217.9752,155.0886,220.0635,156.1094,220.0539,156.0853,218.0107,156.7774,216.016,157.5907,214.055,158.4883,211.9779,159.0954,210.0635,160.1094,210.194,160.2399,210.7149,159.1608,211.6169,158.4628,212.5653,157.8112,213.2433,156.8892,214.0635,156.1094,214.0796,156.1255,213.2559,155.3018,212.5056,154.5515,211.7198,153.7657,211.0015,153.0474,210.0635,152.1094" style="stroke:#181818;stroke-width:1;"/><path d="M48.1826,156.1094 L48.1826,156.3896 L58.058,155.5569 L67.9333,156.3671 L77.8087,156.6423 L87.684,155.1582 L97.5593,156.0058 L107.4347,155.5407 L117.31,155.598 L127.1854,156.0185 L137.0607,155.1875 L146.9361,156.8476 L156.8114,155.269 L166.6868,155.8457 L176.5621,156.6853 L186.4374,155.995 L196.3128,156.2004 L206.1881,156.0668 L216.0635,156.1094" fill="none" style="stroke:#181818;stroke-width:1;"/><text fill="#000000" font-family="sans-serif" font-size="13" lengthAdjust="spacing" textLength="67.7168" x="55.1826" y="151.3672">user-input</text></g><g class="message" data-participant-1="Client" data-participant-2="MCP"><polygon fill="#181818" points="616.2495,196.7305,616.2755,196.7955,618.1982,197.4022,620.2734,198.3903,622.299,199.2542,624.1612,199.7097,626.2495,200.7305,626.2399,200.7064,624.1967,201.3985,622.202,202.2118,620.2411,203.1094,618.1639,203.7165,616.2495,204.7305,616.38,204.861,616.901,203.7819,617.8029,203.0839,618.7513,202.4323,619.4293,201.5103,620.2495,200.7305,620.2656,200.7466,619.442,199.9229,618.6916,199.1725,617.9059,198.3868,617.1876,197.6685,616.2495,196.7305" style="stroke:#181818;stroke-width:1;"/><path d="M232.0635,200.7305 L232.0635,201.0107 L242.0682,200.178 L252.073,200.9882 L262.0778,201.2634 L272.0826,199.7793 L282.0873,200.6269 L292.0921,200.1618 L302.0969,200.2191 L312.1016,200.6396 L322.1064,199.8086 L332.1112,201.4687 L342.1159,199.8901 L352.1207,200.4668 L362.1255,201.3064 L372.1303,200.6161 L382.135,200.8215 L392.1398,200.6879 L402.1446,200.9685 L412.1493,201.0493 L422.1541,201.5114 L432.1589,201.6252 L442.1636,201.6361 L452.1684,201.07 L462.1732,201.3486 L472.178,201.6668 L482.1827,199.7689 L492.1875,201.6351 L502.1923,200.3351 L512.197,201.4422 L522.2018,200.0704 L532.2066,200.6391 L542.2114,201.7193 L552.2161,200.6655 L562.2209,200.8709 L572.2257,201.182 L582.2304,201.2854 L592.2352,200.7253 L602.24,201.1134 L612.2447,199.9672 L622.2495,200.7305" fill="none" style="stroke:#181818;stroke-width:1;"/><text fill="#000000" font-family="sans-serif" font-size="13" lengthAdjust="spacing" textLength="147.1704" x="239.0635" y="180.6777">JSON-RPC \"tools/list\"</text><text fill="#000000" font-family="sans-serif" font-size="13" lengthAdjust="spacing" textLength="354.0024" x="239.0635" y="195.9883">(mcp-tools-list &#8594; mcp-http-request &#8594; http-post-json)</text></g><g class="message" data-participant-1="MCP" data-participant-2="Client"><polygon fill="#181818" points="243.0635,226.041,243.0895,226.1061,241.0122,226.7128,239.0874,227.7008,237.113,228.5647,234.9752,229.0202,233.0635,230.041,233.0539,230.017,235.0107,230.709,237.016,231.5223,239.055,232.4199,240.9779,233.027,243.0635,234.041,243.194,234.1715,242.1149,233.0925,241.4169,232.3944,240.7653,231.7428,239.8433,230.8208,239.0635,230.041,239.0796,230.0571,239.8559,229.2335,240.7056,228.4831,241.5198,227.6974,242.4015,226.9791,243.0635,226.041" style="stroke:#181818;stroke-width:1;"/><path d="M237.0635,230.041 L237.0635,230.3213 L246.9431,229.4886 L256.8228,230.2987 L266.7024,230.5739 L276.5821,229.0898 L286.4617,229.9374 L296.3414,229.4724 L306.221,229.5297 L316.1007,229.9501 L325.9803,229.1192 L335.86,230.7792 L345.7396,229.2006 L355.6193,229.7773 L365.4989,230.6169 L375.3786,229.9266 L385.2582,230.132 L395.1379,229.9984 L405.0175,230.2791 L414.8972,230.3599 L424.7768,230.8219 L434.6565,230.9358 L444.5361,230.9467 L454.4158,230.3805 L464.2954,230.6591 L474.1751,230.9773 L484.0547,229.0794 L493.9344,230.9457 L503.8141,229.6457 L513.6937,230.7528 L523.5734,229.381 L533.453,229.9497 L543.3327,231.0298 L553.2123,229.976 L563.092,230.1814 L572.9716,230.4925 L582.8513,230.596 L592.7309,230.0358 L602.6106,230.424 L612.4902,229.2778 L622.3699,230.4202 L632.2495,230.041" fill="none" style="stroke:#181818;stroke-width:1;stroke-dasharray:2,2;"/><text fill="#000000" font-family="sans-serif" font-size="13" lengthAdjust="spacing" textLength="71.208" x="249.0635" y="225.2988">result.tools</text></g><g class="message" data-participant-1="Client" data-participant-2="Client"><path d="M232.0635,274.6621 L232.0635,274.7555 L240.4635,274.478 L248.8635,274.748 L257.2635,274.8397 L265.6635,274.345 L274.0635,274.6621" fill="none" style="stroke:#181818;stroke-width:1;"/><path d="M274.0635,274.6621 L274.1569,274.6621 L273.8793,277.2621 L274.1494,279.8621 L274.2411,282.4621 L273.7464,285.0621 L274.0635,287.6621" fill="none" style="stroke:#181818;stroke-width:1;"/><path d="M233.0635,287.6621 L233.0635,287.7555 L241.2635,287.478 L249.4635,287.748 L257.6635,287.8397 L265.8635,287.345 L274.0635,287.6621" fill="none" style="stroke:#181818;stroke-width:1;"/><polygon fill="#181818" points="243.0635,283.6621,243.0895,283.7272,241.0122,284.3339,239.0874,285.3219,237.113,286.1858,234.9752,286.6413,233.0635,287.6621,233.0539,287.6381,235.0107,288.3301,237.016,289.1434,239.055,290.041,240.9779,290.6481,243.0635,291.6621,243.194,291.7926,242.1149,290.7136,241.4169,290.0155,240.7653,289.3639,239.8433,288.4419,239.0635,287.6621,239.0796,287.6782,239.8559,286.8546,240.7056,286.1042,241.5198,285.3185,242.4015,284.6002,243.0635,283.6621" style="stroke:#181818;stroke-width:1;"/><text fill="#000000" font-family="sans-serif" font-size="13" lengthAdjust="spacing" textLength="203.9819" x="239.0635" y="254.6094">mcp-tools-&gt;ollama-tools(tools)</text><text fill="#000000" font-family="sans-serif" font-size="13" lengthAdjust="spacing" textLength="97.8491" x="239.0635" y="269.9199">&#8594; ollama-tools</text></g><g class="message" data-participant-1="Client" data-participant-2="Client"><path d="M232.0635,332.2832 L232.0635,332.3766 L240.4635,332.0991 L248.8635,332.3691 L257.2635,332.4608 L265.6635,331.9661 L274.0635,332.2832" fill="none" style="stroke:#181818;stroke-width:1;"/><path d="M274.0635,332.2832 L274.1569,332.2832 L273.8793,334.8832 L274.1494,337.4832 L274.2411,340.0832 L273.7464,342.6832 L274.0635,345.2832" fill="none" style="stroke:#181818;stroke-width:1;"/><path d="M233.0635,345.2832 L233.0635,345.3766 L241.2635,345.0991 L249.4635,345.3691 L257.6635,345.4608 L265.8635,344.9661 L274.0635,345.2832" fill="none" style="stroke:#181818;stroke-width:1;"/><polygon fill="#181818" points="243.0635,341.2832,243.0895,341.3483,241.0122,341.955,239.0874,342.943,237.113,343.8069,234.9752,344.2624,233.0635,345.2832,233.0539,345.2592,235.0107,345.9512,237.016,346.7645,239.055,347.6621,240.9779,348.2692,243.0635,349.2832,243.194,349.4137,242.1149,348.3346,241.4169,347.6366,240.7653,346.985,239.8433,346.063,239.0635,345.2832,239.0796,345.2993,239.8559,344.4757,240.7056,343.7253,241.5198,342.9396,242.4015,342.2213,243.0635,341.2832" style="stroke:#181818;stroke-width:1;"/><text fill="#000000" font-family="sans-serif" font-size="13" lengthAdjust="spacing" textLength="129.8096" x="239.0635" y="312.2305">construire messages</text><text fill="#000000" font-family="sans-serif" font-size="13" lengthAdjust="spacing" textLength="98.5601" x="239.0635" y="327.541">(system + user)</text></g><polygon fill="#EEEEEE" points="0,373.9385,0,374.1487,9.9582,373.5242,19.9164,374.1318,29.8746,374.3382,39.8328,373.2251,49.7909,373.8608,59.7491,373.512,69.7073,373.555,79.6655,373.8703,89.6237,373.2471,99.5819,374.4921,109.5401,373.3082,119.4983,373.7407,129.4565,374.3704,139.4146,373.8527,149.3728,374.0067,159.331,373.9065,169.2892,374.117,179.2474,374.1776,189.2056,374.5242,199.1638,374.6095,209.122,374.6177,219.0802,374.1931,229.0383,374.4021,238.9965,374.6407,248.9547,373.2173,258.9129,374.617,268.8711,373.642,278.8293,374.4723,288.7875,373.4435,298.7457,373.87,308.7039,374.6801,318.662,373.8897,328.6202,374.0438,338.5784,374.2771,348.5366,374.3547,358.4948,373.9346,368.453,374.2257,378.4112,373.3661,388.3694,374.2229,398.3276,374.4867,408.2857,374.383,418.2439,374.5515,428.2021,373.4554,438.1603,373.2863,448.1185,373.3171,458.0767,373.8796,468.0349,373.7419,477.9931,374.6199,487.9513,373.7638,497.9094,373.5954,507.8676,374.1667,517.8258,373.2716,527.784,373.4194,537.7422,374.5874,547.7004,374.3741,557.6586,374.673,567.6168,373.6167,577.575,374.2577,587.5331,374.5289,597.4913,373.4661,607.4495,373.8426,617.4077,374.0645,627.3659,374.5902,637.3241,373.9343,647.2823,374.401,657.2405,373.3847,667.1987,373.2612,677.1568,374.4421,687.115,373.2215,697.0732,374.4474,707.0314,374.1451,716.9896,373.6706,726.9478,373.5847,736.906,374.3972,746.8642,373.6391,756.8224,374.5303,766.7805,373.3857,776.7387,374.5559,786.6969,374.4228,796.6551,374.1834,806.6133,373.9857,816.5715,374.6651,826.5297,374.5521,836.4879,374.1077,846.4461,374.2067,856.4042,373.8082,866.3624,374.6549,876.3206,374.0933,886.2788,373.9385,886.3363,373.9385,886.076,374.5385,886.1437,375.1385,886.4557,375.7385,886.4221,376.3385,886.2788,376.9385,886.2788,376.8955,876.3206,376.6163,866.3624,376.7195,856.4042,376.2523,846.4461,377.3532,836.4879,377.678,826.5297,377.4649,816.5715,377.6334,806.6133,376.8017,796.6551,377.0257,786.6969,376.5509,776.7387,377.2225,766.7805,377.1852,756.8224,377.4909,746.8642,376.7088,736.906,376.8041,726.9478,377.3819,716.9896,377.5058,707.0314,376.4259,697.0732,376.7446,687.115,377.0877,677.1568,376.3276,667.1987,377.2919,657.2405,377.1965,647.2823,376.8377,637.3241,377.0807,627.3659,377.6672,617.4077,376.6256,607.4495,377.2535,597.4913,377.2241,587.5331,377.0542,577.575,377.0794,567.6168,377.052,557.6586,376.3143,547.7004,376.5377,537.7422,376.4769,527.784,377.0023,517.8258,377.0266,507.8676,377.1002,497.9094,376.6475,487.9513,376.871,477.9931,376.8183,468.0349,377.5153,458.0767,377.365,448.1185,376.4529,438.1603,376.8656,428.2021,376.3612,418.2439,377.2269,408.2857,377.547,398.3276,377.483,388.3694,376.5029,378.4112,377.4024,368.453,376.1957,358.4948,377.1386,348.5366,376.6392,338.5784,377.0352,328.6202,377.1788,318.662,377.4106,308.7039,376.2186,298.7457,377.414,288.7875,377.1167,278.8293,377.2938,268.8711,377.6863,258.9129,376.944,248.9547,377.1137,238.9965,377.1519,229.0383,377.1357,219.0802,376.9377,209.122,377.6492,199.1638,376.3287,189.2056,377.5038,179.2474,376.3145,169.2892,376.3982,159.331,376.9785,149.3728,376.9668,139.4146,376.4456,129.4565,377.3522,119.4983,377.0473,109.5401,377.6651,99.5819,377.6056,89.6237,376.4902,79.6655,376.5405,69.7073,376.8093,59.7491,377.294,49.7909,377.3415,39.8328,377.2396,29.8746,376.5965,19.9164,377.5748,9.9582,377.5723,0,376.9385,-0.0158,376.9385,-0.0797,376.3385,-0.1338,375.7385,-0.0715,375.1385,0.0458,374.5385,0,373.9385" style="stroke:#EEEEEE;stroke-width:1;"/><path d="M0,373.9385 L0,374.2187 L9.9582,373.386 L19.9164,374.1962 L29.8746,374.4714 L39.8328,372.9873 L49.7909,373.8349 L59.7491,373.3698 L69.7073,373.4271 L79.6655,373.8476 L89.6237,373.0167 L99.5819,374.6767 L109.5401,373.0981 L119.4983,373.6748 L129.4565,374.5144 L139.4146,373.8241 L149.3728,374.0295 L159.331,373.8959 L169.2892,374.1765 L179.2474,374.2573 L189.2056,374.7194 L199.1638,374.8332 L209.122,374.8442 L219.0802,374.278 L229.0383,374.5566 L238.9965,374.8748 L248.9547,372.9769 L258.9129,374.8432 L268.8711,373.5431 L278.8293,374.6502 L288.7875,373.2784 L298.7457,373.8471 L308.7039,374.9273 L318.662,373.8735 L328.6202,374.0789 L338.5784,374.39 L348.5366,374.4935 L358.4948,373.9333 L368.453,374.3214 L378.4112,373.1753 L388.3694,374.3177 L398.3276,374.6694 L408.2857,374.5312 L418.2439,374.7558 L428.2021,373.2944 L438.1603,373.0689 L448.1185,373.1099 L458.0767,373.86 L468.0349,373.6764 L477.9931,374.847 L487.9513,373.7056 L497.9094,373.4811 L507.8676,374.2428 L517.8258,373.0494 L527.784,373.2463 L537.7422,374.8037 L547.7004,374.5194 L557.6586,374.9178 L567.6168,373.5094 L577.575,374.3641 L587.5331,374.7257 L597.4913,373.3086 L607.4495,373.8107 L617.4077,374.1065 L627.3659,374.8075 L637.3241,373.9329 L647.2823,374.5552 L657.2405,373.2001 L667.1987,373.0355 L677.1568,374.61 L687.115,372.9826 L697.0732,374.6171 L707.0314,374.214 L716.9896,373.5813 L726.9478,373.4668 L736.906,374.5502 L746.8642,373.5394 L756.8224,374.7276 L766.7805,373.2015 L776.7387,374.7617 L786.6969,374.5842 L796.6551,374.2651 L806.6133,374.0014 L816.5715,374.9073 L826.5297,374.7566 L836.4879,374.1642 L846.4461,374.2961 L856.4042,373.7648 L866.3624,374.8937 L876.3206,374.145 L886.2788,373.9385" fill="#EEEEEE" style="stroke:#000000;stroke-width:1;"/><path d="M0,376.9385 L0,377.2187 L9.9582,376.386 L19.9164,377.1962 L29.8746,377.4714 L39.8328,375.9873 L49.7909,376.8349 L59.7491,376.3698 L69.7073,376.4271 L79.6655,376.8476 L89.6237,376.0167 L99.5819,377.6767 L109.5401,376.0981 L119.4983,376.6748 L129.4565,377.5144 L139.4146,376.8241 L149.3728,377.0295 L159.331,376.8959 L169.2892,377.1765 L179.2474,377.2573 L189.2056,377.7194 L199.1638,377.8332 L209.122,377.8442 L219.0802,377.278 L229.0383,377.5566 L238.9965,377.8748 L248.9547,375.9769 L258.9129,377.8432 L268.8711,376.5431 L278.8293,377.6502 L288.7875,376.2784 L298.7457,376.8471 L308.7039,377.9273 L318.662,376.8735 L328.6202,377.0789 L338.5784,377.39 L348.5366,377.4935 L358.4948,376.9333 L368.453,377.3214 L378.4112,376.1753 L388.3694,377.3177 L398.3276,377.6694 L408.2857,377.5312 L418.2439,377.7558 L428.2021,376.2944 L438.1603,376.0689 L448.1185,376.1099 L458.0767,376.86 L468.0349,376.6764 L477.9931,377.847 L487.9513,376.7056 L497.9094,376.4811 L507.8676,377.2428 L517.8258,376.0494 L527.784,376.2463 L537.7422,377.8037 L547.7004,377.5194 L557.6586,377.9178 L567.6168,376.5094 L577.575,377.3641 L587.5331,377.7257 L597.4913,376.3086 L607.4495,376.8107 L617.4077,377.1065 L627.3659,377.8075 L637.3241,376.9329 L647.2823,377.5552 L657.2405,376.2001 L667.1987,376.0355 L677.1568,377.61 L687.115,375.9826 L697.0732,377.6171 L707.0314,377.214 L716.9896,376.5813 L726.9478,376.4668 L736.906,377.5502 L746.8642,376.5394 L756.8224,377.7276 L766.7805,376.2015 L776.7387,377.7617 L786.6969,377.5842 L796.6551,377.2651 L806.6133,377.0014 L816.5715,377.9073 L826.5297,377.7566 L836.4879,377.1642 L846.4461,377.2961 L856.4042,376.7648 L866.3624,377.8937 L876.3206,377.145 L886.2788,376.9385" fill="#EEEEEE" style="stroke:#000000;stroke-width:1;"/><polygon fill="#EEEEEE" points="376.6904,363.2832,376.6904,363.4934,386.9133,362.8689,397.1363,363.4765,407.3592,363.6829,417.5821,362.5698,427.805,363.2055,438.0279,362.8567,448.2509,362.8997,458.4738,363.215,468.6967,362.5918,478.9196,363.8368,489.1425,362.6529,499.3655,363.0854,509.5884,363.2832,509.7324,363.2832,509.5598,367.9453,509.6111,372.6074,509.5777,377.2695,509.6479,381.9316,509.5884,386.5938,509.5884,386.8329,499.3655,387.1794,489.1425,387.2648,478.9196,387.273,468.6967,386.8484,458.4738,387.0573,448.2509,387.296,438.0279,385.8726,427.805,387.2723,417.5821,386.2972,407.3592,387.1276,397.1363,386.0987,386.9133,386.5253,376.6904,386.5938,376.9376,386.5938,376.6742,381.9316,376.7255,377.2695,376.8033,372.6074,376.8292,367.9453,376.6904,363.2832" style="stroke:#000000;stroke-width:2;"/><text fill="#000000" font-family="sans-serif" font-size="13" font-weight="bold" lengthAdjust="spacing" textLength="114.6133" x="382.6904" y="379.8516">Boucle principale</text><g class="message" data-participant-1="Client" data-participant-2="Ollama"><polygon fill="#181818" points="760.8184,453.5254,760.8444,453.5904,762.7671,454.1972,764.8423,455.1852,766.8678,456.0491,768.73,456.5046,770.8184,457.5254,770.8087,457.5013,768.7656,458.1934,766.7709,459.0067,764.8099,459.9043,762.7328,460.5114,760.8184,461.5254,760.9489,461.6559,761.4698,460.5768,762.3717,459.8788,763.3202,459.2272,763.9981,458.3052,764.8184,457.5254,764.8344,457.5415,764.0108,456.7179,763.2604,455.9675,762.4747,455.1818,761.7564,454.4634,760.8184,453.5254" style="stroke:#181818;stroke-width:1;"/><path d="M232.0635,457.5254 L232.0635,457.8056 L242.1532,456.973 L252.2429,457.7831 L262.3326,458.0583 L272.4223,456.5742 L282.5121,457.4218 L292.6018,456.9567 L302.6915,457.0141 L312.7812,457.4345 L322.8709,456.6036 L332.9606,458.2636 L343.0503,456.685 L353.1401,457.2617 L363.2298,458.1013 L373.3195,457.411 L383.4092,457.6164 L393.4989,457.4828 L403.5886,457.7634 L413.6783,457.8442 L423.7681,458.3063 L433.8578,458.4201 L443.9475,458.4311 L454.0372,457.8649 L464.1269,458.1435 L474.2166,458.4617 L484.3063,456.5638 L494.3961,458.4301 L504.4858,457.1301 L514.5755,458.2371 L524.6652,456.8654 L534.7549,457.4341 L544.8446,458.5142 L554.9343,457.4604 L565.0241,457.6658 L575.1138,457.9769 L585.2035,458.0804 L595.2932,457.5202 L605.3829,457.9083 L615.4726,456.7622 L625.5624,457.9046 L635.6521,458.2563 L645.7418,458.1181 L655.8315,458.3428 L665.9212,456.8813 L676.0109,456.6558 L686.1006,456.6969 L696.1904,457.4469 L706.2801,457.2634 L716.3698,458.4339 L726.4595,457.2925 L736.5492,457.068 L746.6389,457.8297 L756.7286,456.6363 L766.8184,457.5254" fill="none" style="stroke:#181818;stroke-width:1;"/><text fill="#000000" font-family="sans-serif" font-size="13" lengthAdjust="spacing" textLength="96.1416" x="239.0635" y="437.4727">POST /api/chat</text><text fill="#000000" font-family="sans-serif" font-size="13" lengthAdjust="spacing" textLength="268.8296" x="239.0635" y="452.7832">(call-ollama-with-tools &#8594; http-post-json)</text></g><g class="message" data-participant-1="Ollama" data-participant-2="Client"><polygon fill="#181818" points="243.0635,482.8359,243.0895,482.901,241.0122,483.5077,239.0874,484.4958,237.113,485.3596,234.9752,485.8151,233.0635,486.8359,233.0539,486.8119,235.0107,487.5039,237.016,488.3172,239.055,489.2148,240.9779,489.822,243.0635,490.8359,243.194,490.9664,242.1149,489.8874,241.4169,489.1893,240.7653,488.5377,239.8433,487.6157,239.0635,486.8359,239.0796,486.852,239.8559,486.0284,240.7056,485.278,241.5198,484.4923,242.4015,483.774,243.0635,482.8359" style="stroke:#181818;stroke-width:1;"/><path d="M237.0635,486.8359 L237.0635,487.1162 L247.0589,486.2835 L257.0544,487.0937 L267.0499,487.3688 L277.0453,485.8847 L287.0408,486.7323 L297.0362,486.2673 L307.0317,486.3246 L317.0272,486.7451 L327.0226,485.9141 L337.0181,487.5741 L347.0135,485.9956 L357.009,486.5722 L367.0045,487.4119 L376.9999,486.7216 L386.9954,486.9269 L396.9908,486.7933 L406.9863,487.074 L416.9818,487.1548 L426.9772,487.6169 L436.9727,487.7307 L446.9682,487.7416 L456.9636,487.1754 L466.9591,487.4541 L476.9545,487.7722 L486.95,485.8744 L496.9455,487.7406 L506.9409,486.4406 L516.9364,487.5477 L526.9318,486.1759 L536.9273,486.7446 L546.9228,487.8247 L556.9182,486.771 L566.9137,486.9763 L576.9091,487.2874 L586.9046,487.3909 L596.9001,486.8307 L606.8955,487.2189 L616.891,486.0727 L626.8864,487.2151 L636.8819,487.5669 L646.8774,487.4286 L656.8728,487.6533 L666.8683,486.1918 L676.8638,485.9664 L686.8592,486.0074 L696.8547,486.7574 L706.8501,486.5739 L716.8456,487.7445 L726.8411,486.603 L736.8365,486.3785 L746.832,487.1403 L756.8274,485.9468 L766.8229,486.1438 L776.8184,486.8359" fill="none" style="stroke:#181818;stroke-width:1;stroke-dasharray:2,2;"/><text fill="#000000" font-family="sans-serif" font-size="13" lengthAdjust="spacing" textLength="204.585" x="249.0635" y="482.0938">message + content + tool_calls?</text></g><path d="M20,501.8359 L20,502.3964 L30.3564,500.7311 L40.7129,502.3514 L51.0693,502.9017 L61.4258,499.9336 L71.7822,501.6287 L82.1387,501.8359 L81.7596,501.8359 L81.7978,503.298 L82.0781,504.7602 L81.5241,506.2223 L82.6308,507.6844 L82.1387,509.1465 L81.7425,508.7503 L80.0144,511.0222 L78.4102,513.418 L76.0848,515.0926 L74.1816,517.1894 L72.1387,519.1465 L72.1387,519.0613 L61.7109,519.6226 L51.2832,519.7842 L40.8555,520.7083 L30.4277,520.936 L20,519.1465 L20.6038,519.1465 L20.2263,515.6844 L20.4121,512.2223 L20.6242,508.7602 L19.3589,505.298 L20,501.8359" fill="#EEEEEE" style="stroke:#000000;stroke-width:1.5;"/><polygon fill="none" points="20,501.8359,20,502.0461,29.9907,501.4216,39.9814,502.0292,49.9721,502.2356,59.9628,501.1225,69.9535,501.7582,79.9442,501.4094,89.9349,501.4524,99.9256,501.7678,109.9162,501.1446,119.9069,502.3896,129.8976,501.2057,139.8883,501.6382,149.879,502.2679,159.8697,501.7502,169.8604,501.9042,179.8511,501.804,189.8418,502.0145,199.8325,502.0751,209.8232,502.4216,219.8139,502.507,229.8046,502.5152,239.7953,502.0906,249.786,502.2995,259.7767,502.5382,269.7674,501.1148,279.7581,502.5144,289.7487,501.5394,299.7394,502.3697,309.7301,501.3409,319.7208,501.7674,329.7115,502.5775,339.7022,501.7872,349.6929,501.9412,359.6836,502.1746,369.6743,502.2522,379.665,501.832,389.6557,502.1232,399.6464,501.2635,409.6371,502.1203,419.6278,502.3841,429.6185,502.2805,439.6092,502.449,449.5999,501.3529,459.5906,501.1838,469.5812,501.2145,479.5719,501.7771,489.5626,501.6394,499.5533,502.5173,509.544,501.6613,519.5347,501.4929,529.5254,502.0642,539.5161,501.1691,549.5068,501.3168,559.4975,502.4849,569.4882,502.2716,579.4789,502.5704,589.4696,501.5141,599.4603,502.1551,609.451,502.4264,619.4417,501.3635,629.4324,501.7401,639.423,501.9619,649.4137,502.4877,659.4044,501.8317,669.3951,502.2985,679.3858,501.2822,689.3765,501.1587,699.3672,502.3396,709.3579,501.8359,708.641,501.8359,709.8669,511.9447,709.5645,522.0534,709.09,532.1622,709.0041,542.2709,709.8167,552.3797,709.0586,562.4884,709.9498,572.5972,708.8052,582.7059,709.9753,592.8146,709.8422,602.9234,709.6029,613.0321,709.4051,623.1409,710.0845,633.2496,709.9715,643.3584,709.5272,653.4671,709.6261,663.5759,709.2276,673.6846,710.0744,683.7933,709.5128,693.9021,709.5305,704.0108,708.7496,714.1196,708.9527,724.2283,709.8887,734.3371,709.7877,744.4458,709.315,754.5546,709.0357,764.6633,709.139,774.7721,708.6717,784.8808,709.7726,794.9895,710.0975,805.0983,709.3579,815.207,709.3579,815.7334,699.3672,815.902,689.3765,815.0703,679.3858,815.2943,669.3951,814.8194,659.4044,815.4911,649.4137,815.4538,639.423,815.7594,629.4324,814.9774,619.4417,815.0726,609.451,815.6505,599.4603,815.7744,589.4696,814.6945,579.4789,815.0131,569.4882,815.3563,559.4975,814.5962,549.5068,815.5604,539.5161,815.465,529.5254,815.1063,519.5347,815.3493,509.544,815.9357,499.5533,814.8942,489.5626,815.522,479.5719,815.4927,469.5812,815.3228,459.5906,815.348,449.5999,815.3205,439.6092,814.5829,429.6185,814.8062,419.6278,814.7455,409.6371,815.2709,399.6464,815.2952,389.6557,815.3688,379.665,814.9161,369.6743,815.1395,359.6836,815.0868,349.6929,815.7839,339.7022,815.6336,329.7115,814.7215,319.7208,815.1341,309.7301,814.6298,299.7394,815.4954,289.7487,815.8155,279.7581,815.7516,269.7674,814.7715,259.7767,815.671,249.786,814.4642,239.7953,815.4072,229.8046,814.9077,219.8139,815.3038,209.8232,815.4474,199.8325,815.6791,189.8418,814.4871,179.8511,815.6825,169.8604,815.3852,159.8697,815.5624,149.879,815.9548,139.8883,815.2125,129.8976,815.3823,119.9069,815.4205,109.9162,815.4043,99.9256,815.2062,89.9349,815.9177,79.9442,814.5973,69.9535,815.7723,59.9628,814.583,49.9721,814.6667,39.9814,815.247,29.9907,815.2353,20,815.207,19.5072,815.207,20.4137,805.0983,20.1089,794.9895,20.7267,784.8808,20.6671,774.7721,19.5517,764.6633,19.6021,754.5546,19.8708,744.4458,20.3555,734.3371,20.403,724.2283,20.3012,714.1196,19.658,704.0108,20.6364,693.9021,20.6338,683.7933,19.9527,673.6846,19.7609,663.5759,19.5986,653.4671,19.7854,643.3584,20.1374,633.2496,19.9316,623.1409,19.5822,613.0321,20.4874,602.9234,19.5411,592.8146,20.5024,582.7059,20.4272,572.5972,20.3719,562.4884,20.6925,552.3797,19.7541,542.2709,19.6994,532.1622,20.5189,522.0534,19.4031,511.9447,20,501.8359" style="stroke:#000000;stroke-width:1.5;"/><text fill="#000000" font-family="sans-serif" font-size="13" font-weight="bold" lengthAdjust="spacing" textLength="17.1387" x="35" y="515.4043">alt</text><text fill="#000000" font-family="sans-serif" font-size="11" font-weight="bold" lengthAdjust="spacing" textLength="88.897" x="97.1387" y="514.4707">[tool_calls vide]</text><g class="message" data-participant-1="Client" data-participant-2="User"><polygon fill="#181818" points="59.1826,536.457,59.2086,536.5221,57.1313,537.1288,55.2065,538.1169,53.2321,538.9807,51.0943,539.4362,49.1826,540.457,49.173,540.433,51.1298,541.125,53.1351,541.9383,55.1742,542.8359,57.097,543.4431,59.1826,544.457,59.3131,544.5875,58.2341,543.5085,57.536,542.8104,56.8844,542.1588,55.9624,541.2368,55.1826,540.457,55.1987,540.4731,55.9751,539.6495,56.8247,538.8991,57.639,538.1134,58.5207,537.3951,59.1826,536.457" style="stroke:#181818;stroke-width:1;"/><path d="M53.1826,540.457 L53.1826,540.7373 L63.3521,539.9046 L73.5215,540.7147 L83.691,540.9899 L93.8605,539.5058 L104.0299,540.3534 L114.1994,539.8884 L124.3689,539.9457 L134.5383,540.3662 L144.7078,539.5352 L154.8772,541.1952 L165.0467,539.6167 L175.2162,540.1933 L185.3856,541.033 L195.5551,540.3427 L205.7246,540.548 L215.894,540.4144 L226.0635,540.457" fill="none" style="stroke:#181818;stroke-width:1;stroke-dasharray:2,2;"/><text fill="#000000" font-family="sans-serif" font-size="13" lengthAdjust="spacing" textLength="149.8809" x="65.1826" y="535.7148">content (r&#233;ponse finale)</text></g><path d="M109.395,555.457 L109.395,556.0175 L119.7712,554.3522 L130.1475,555.9725 L140.5237,556.5228 L150.8999,553.5546 L161.2761,555.2498 L171.6523,554.3197 L182.0286,554.4344 L192.4048,555.457 L192.3442,555.457 L191.7902,556.9191 L192.8969,558.3813 L191.8445,559.8434 L192.229,561.3055 L192.4048,562.7676 L192.6763,563.0391 L190.3509,564.7137 L188.4477,566.8105 L186.3847,568.7475 L184.517,570.8798 L182.4048,572.7676 L182.4048,573.4053 L171.9748,574.3294 L161.5449,574.5571 L151.1149,574.5789 L140.6849,573.4466 L130.255,574.0038 L119.825,574.6402 L109.395,572.7676 L108.754,572.7676 L109.9981,569.3055 L109.1315,565.8434 L109.8695,562.3813 L108.955,558.9191 L109.395,555.457" fill="#EEEEEE" style="stroke:#000000;stroke-width:1.5;"/><polygon fill="none" points="109.395,555.457,109.395,555.6672,119.3944,555.0427,129.3938,555.6503,139.3931,555.8567,149.3925,554.7436,159.3919,555.3793,169.3912,555.0305,179.3906,555.0735,189.39,555.3889,199.3894,554.7657,209.3887,556.0107,219.3881,554.8268,229.3875,555.2593,239.3868,555.889,249.3862,555.3713,259.3856,555.5253,269.385,555.4251,279.3843,555.6356,289.3837,555.6962,299.3831,556.0427,309.3824,556.1281,319.3818,556.1363,329.3812,555.7117,339.3806,555.9206,349.3799,556.1593,359.3793,554.7358,369.3787,556.1355,379.378,555.1605,389.3774,555.9908,399.3768,554.962,409.3762,555.3885,419.3755,556.1986,429.3749,555.4083,439.3743,555.5623,449.3736,555.7957,459.373,555.8733,469.3724,555.4531,479.3717,555.7442,489.3711,554.8846,499.3705,555.7414,509.3699,556.0052,519.3692,555.9016,529.3686,556.0701,539.368,554.974,549.3673,554.8048,559.3667,554.8356,569.3661,555.3982,579.3655,555.2605,589.3648,556.1384,599.3642,555.2824,609.3636,555.114,619.3629,555.6853,629.3623,554.7902,639.3617,554.9379,649.3611,556.106,659.3604,555.8927,669.3598,556.1915,679.3592,555.1352,689.3585,555.7762,699.3579,555.457,699.9483,555.457,698.8855,565.567,699.2621,575.677,699.4839,585.787,700.0097,595.897,699.3537,606.007,699.8205,616.117,698.8041,626.227,698.6807,636.337,699.8615,646.447,698.641,656.557,699.8669,666.667,699.5645,676.777,699.09,686.887,699.0041,696.997,699.8167,707.107,699.0586,717.217,699.9498,727.327,698.8052,737.437,699.9753,747.547,699.8422,757.657,699.6029,767.767,699.4051,777.877,700.0845,787.987,699.9715,798.097,699.3579,808.207,699.3579,808.3763,689.3585,808.4752,679.3592,808.0768,669.3598,808.9235,659.3604,808.3619,649.3611,808.3796,639.3617,807.5987,629.3623,807.8018,619.3629,808.7378,609.3636,808.6368,599.3642,808.1641,589.3648,807.8849,579.3655,807.9881,569.3661,807.5209,559.3667,808.6218,549.3673,808.9466,539.368,808.7334,529.3686,808.902,519.3692,808.0703,509.3699,808.2943,499.3705,807.8194,489.3711,808.4911,479.3717,808.4538,469.3724,808.7594,459.373,807.9774,449.3736,808.0726,439.3743,808.6505,429.3749,808.7744,419.3755,807.6945,409.3762,808.0131,399.3768,808.3563,389.3774,807.5962,379.378,808.5604,369.3787,808.465,359.3793,808.1063,349.3799,808.3493,339.3806,808.9357,329.3812,807.8942,319.3818,808.522,309.3824,808.4927,299.3831,808.3228,289.3837,808.348,279.3843,808.3205,269.385,807.5829,259.3856,807.8062,249.3862,807.7455,239.3868,808.2709,229.3875,808.2952,219.3881,808.3688,209.3887,807.9161,199.3894,808.1395,189.39,808.0868,179.3906,808.7839,169.3912,808.6336,159.3919,807.7215,149.3925,808.1341,139.3931,807.6298,129.3938,808.4954,119.3944,808.8155,109.395,808.207,109.9396,808.207,108.9595,798.097,109.859,787.987,108.6522,777.877,109.5952,767.767,109.0957,757.657,109.4917,747.547,109.6354,737.437,109.8671,727.327,108.6751,717.217,109.8705,707.107,109.5732,696.997,109.7503,686.887,110.1428,676.777,109.4005,666.667,109.5703,656.557,109.6085,646.447,109.5923,636.337,109.3942,626.227,110.1057,616.117,108.7853,606.007,109.9603,595.897,108.771,585.787,108.8547,575.677,109.435,565.567,109.395,555.457" style="stroke:#000000;stroke-width:1.5;"/><text fill="#000000" font-family="sans-serif" font-size="13" font-weight="bold" lengthAdjust="spacing" textLength="38.0098" x="124.395" y="569.0254">break</text><path d="M109.395,573.7676 L109.395,574.0478 L119.3944,573.2152 L129.3938,574.0253 L139.3931,574.3005 L149.3925,572.8164 L159.3919,573.664 L169.3912,573.1989 L179.3906,573.2562 L189.39,573.6767 L199.3894,572.8458 L209.3887,574.5058 L219.3881,572.9272 L229.3875,573.5039 L239.3868,574.3435 L249.3862,573.6532 L259.3856,573.8586 L269.385,573.725 L279.3843,574.0056 L289.3837,574.0864 L299.3831,574.5485 L309.3824,574.6623 L319.3818,574.6733 L329.3812,574.1071 L339.3806,574.3857 L349.3799,574.7039 L359.3793,572.806 L369.3787,574.6723 L379.378,573.3722 L389.3774,574.4793 L399.3768,573.1075 L409.3762,573.6762 L419.3755,574.7564 L429.3749,573.7026 L439.3743,573.908 L449.3736,574.2191 L459.373,574.3226 L469.3724,573.7624 L479.3717,574.1505 L489.3711,573.0044 L499.3705,574.1468 L509.3699,574.4985 L519.3692,574.3603 L529.3686,574.5849 L539.368,573.1235 L549.3673,572.898 L559.3667,572.939 L569.3661,573.6891 L579.3655,573.5055 L589.3648,574.6761 L599.3642,573.5347 L609.3636,573.3102 L619.3629,574.0719 L629.3623,572.8785 L639.3617,573.0754 L649.3611,574.6328 L659.3604,574.3485 L669.3598,574.7469 L679.3592,573.3385 L689.3585,574.1932 L699.3579,573.7676" fill="none" style="stroke:#000000;stroke-width:1;stroke-dasharray:2,2;"/><text fill="#000000" font-family="sans-serif" font-size="11" font-weight="bold" lengthAdjust="spacing" textLength="108.1416" x="114.395" y="584.4023">[tool_calls pr&#233;sent]</text><path d="M119.395,594.7227 L119.395,595.2831 L130.0303,593.6178 L140.6655,595.2381 L151.3008,595.7885 L161.936,592.8203 L172.5713,594.5154 L183.2065,593.5853 L193.8418,594.7227 L193.5009,594.7227 L193.7812,596.1848 L193.2272,597.6469 L194.3339,599.109 L193.2815,600.5711 L193.8418,602.0332 L193.7175,601.9089 L192.1133,604.3047 L189.7879,605.9793 L187.8847,608.0761 L185.8217,610.0131 L183.8418,612.0332 L183.8418,612.5093 L173.1007,612.6709 L162.3595,613.595 L151.6184,613.8227 L140.8773,613.8446 L130.1361,612.7122 L119.395,612.0332 L119.8071,612.0332 L120.0192,608.5711 L118.754,605.109 L119.9981,601.6469 L119.1315,598.1848 L119.395,594.7227" fill="#EEEEEE" style="stroke:#000000;stroke-width:1.5;"/><polygon fill="none" points="119.395,594.7227,119.395,594.9328,129.3944,594.3083,139.3937,594.9159,149.3931,595.1223,159.3924,594.0093,169.3918,594.6449,179.3911,594.2962,189.3905,594.3392,199.3898,594.6545,209.3892,594.0313,219.3885,595.2763,229.3879,594.0924,239.3872,594.5249,249.3866,595.1546,259.3859,594.6369,269.3853,594.7909,279.3846,594.6907,289.384,594.9012,299.3833,594.9618,309.3826,595.3083,319.382,595.3937,329.3813,595.4019,339.3807,594.9773,349.38,595.1862,359.3794,595.4249,369.3787,594.0015,379.3781,595.4012,389.3774,594.4262,399.3768,595.2565,409.3761,594.2276,419.3755,594.6542,429.3748,595.4643,439.3742,594.6739,449.3735,594.828,459.3729,595.0613,469.3722,595.1389,479.3716,594.7188,489.3709,595.0099,499.3703,594.1502,509.3696,595.007,519.369,595.2709,529.3683,595.1672,539.3677,595.3357,549.367,594.2396,559.3664,594.0705,569.3657,594.1013,579.3651,594.6638,589.3644,594.5261,599.3638,595.4041,609.3631,594.548,619.3625,594.3796,629.3618,594.9509,639.3612,594.0558,649.3605,594.2035,659.3599,595.3716,669.3592,595.1583,679.3586,595.4571,689.3579,594.7227,689.0361,594.7227,689.6771,604.5552,689.9483,614.3878,688.8855,624.2204,689.2621,634.053,689.4839,643.8856,690.0097,653.7182,689.3537,663.5508,689.8205,673.3834,688.8041,683.216,688.6807,693.0485,689.8615,702.8811,688.641,712.7137,689.8669,722.5463,689.5645,732.3789,689.09,742.2115,689.0041,752.0441,689.8167,761.8767,689.0586,771.7093,689.9498,781.5419,688.8052,791.3744,689.3579,801.207,689.3579,801.8245,679.3586,801.6913,669.3592,801.452,659.3599,801.2543,649.3605,801.9336,639.3612,801.8206,629.3618,801.3763,619.3625,801.4752,609.3631,801.0768,599.3638,801.9235,589.3644,801.3619,579.3651,801.3796,569.3657,800.5987,559.3664,800.8018,549.367,801.7378,539.3677,801.6368,529.3683,801.1641,519.369,800.8849,509.3696,800.9881,499.3703,800.5209,489.3709,801.6218,479.3716,801.9466,469.3722,801.7334,459.3729,801.902,449.3735,801.0703,439.3742,801.2943,429.3748,800.8194,419.3755,801.4911,409.3761,801.4538,399.3768,801.7594,389.3774,800.9774,379.3781,801.0726,369.3787,801.6505,359.3794,801.7744,349.38,800.6945,339.3807,801.0131,329.3813,801.3563,319.382,800.5962,309.3826,801.5604,299.3833,801.465,289.384,801.1063,279.3846,801.3493,269.3853,801.9357,259.3859,800.8942,249.3866,801.522,239.3872,801.4927,229.3879,801.3228,219.3885,801.348,209.3892,801.3205,199.3898,800.5829,189.3905,800.8062,179.3911,800.7455,169.3918,801.2709,159.3924,801.2952,149.3931,801.3688,139.3937,800.9161,129.3944,801.1395,119.395,801.207,119.2748,801.207,119.9719,791.3744,119.8216,781.5419,118.9095,771.7093,119.3221,761.8767,118.8178,752.0441,119.6834,742.2115,120.0035,732.3789,119.9396,722.5463,118.9595,712.7137,119.859,702.8811,118.6522,693.0485,119.5952,683.216,119.0957,673.3834,119.4917,663.5508,119.6354,653.7182,119.8671,643.8856,118.6751,634.053,119.8705,624.2204,119.5732,614.3878,119.7503,604.5552,119.395,594.7227" style="stroke:#000000;stroke-width:1.5;"/><text fill="#000000" font-family="sans-serif" font-size="13" font-weight="bold" lengthAdjust="spacing" textLength="29.4468" x="134.395" y="608.291">loop</text><text fill="#000000" font-family="sans-serif" font-size="11" font-weight="bold" lengthAdjust="spacing" textLength="129.5078" x="208.8418" y="607.3574">[pour chaque tool_call]</text><g class="message" data-participant-1="Client" data-participant-2="Client"><path d="M227.0635,633.3438 L227.0635,633.4372 L235.4635,633.1596 L243.8635,633.4297 L252.2635,633.5214 L260.6635,633.0267 L269.0635,633.3438" fill="none" style="stroke:#181818;stroke-width:1;"/><path d="M269.0635,633.3438 L269.1569,633.3438 L268.8793,635.9438 L269.1494,638.5438 L269.2411,641.1438 L268.7464,643.7438 L269.0635,646.3438" fill="none" style="stroke:#181818;stroke-width:1;"/><path d="M228.0635,646.3438 L228.0635,646.4372 L236.2635,646.1596 L244.4635,646.4297 L252.6635,646.5214 L260.8635,646.0267 L269.0635,646.3438" fill="none" style="stroke:#181818;stroke-width:1;"/><polygon fill="#181818" points="238.0635,642.3438,238.0895,642.4088,236.0122,643.0155,234.0874,644.0036,232.113,644.8674,229.9752,645.323,228.0635,646.3438,228.0539,646.3197,230.0107,647.0118,232.016,647.8251,234.055,648.7227,235.9779,649.3298,238.0635,650.3438,238.194,650.4742,237.1149,649.3952,236.4169,648.6971,235.7653,648.0456,234.8433,647.1235,234.0635,646.3438,234.0796,646.3598,234.8559,645.5362,235.7056,644.7858,236.5198,644.0001,237.4015,643.2818,238.0635,642.3438" style="stroke:#181818;stroke-width:1;"/><text fill="#000000" font-family="sans-serif" font-size="13" lengthAdjust="spacing" textLength="234.7998" x="234.0635" y="628.6016">parse-arguments-maybe(arguments)</text></g><g class="message" data-participant-1="Client" data-participant-2="MCP"><polygon fill="#181818" points="616.2495,686.9648,616.2755,687.0299,618.1982,687.6366,620.2734,688.6247,622.299,689.4885,624.1612,689.9441,626.2495,690.9648,626.2399,690.9408,624.1967,691.6328,622.202,692.4462,620.2411,693.3437,618.1639,693.9509,616.2495,694.9648,616.38,695.0953,616.901,694.0163,617.8029,693.3182,618.7513,692.6667,619.4293,691.7446,620.2495,690.9648,620.2656,690.9809,619.442,690.1573,618.6916,689.4069,617.9059,688.6212,617.1876,687.9029,616.2495,686.9648" style="stroke:#181818;stroke-width:1;"/><path d="M227.0635,690.9648 L227.0635,691.2451 L236.9431,690.4124 L246.8228,691.2226 L256.7024,691.4977 L266.5821,690.0137 L276.4617,690.8612 L286.3414,690.3962 L296.221,690.4535 L306.1007,690.874 L315.9803,690.043 L325.86,691.703 L335.7396,690.1245 L345.6193,690.7012 L355.4989,691.5408 L365.3786,690.8505 L375.2582,691.0558 L385.1379,690.9222 L395.0175,691.2029 L404.8972,691.2837 L414.7768,691.7458 L424.6565,691.8596 L434.5361,691.8705 L444.4158,691.3043 L454.2954,691.583 L464.1751,691.9012 L474.0547,690.0033 L483.9344,691.8695 L493.8141,690.5695 L503.6937,691.6766 L513.5734,690.3048 L523.453,690.8735 L533.3327,691.9537 L543.2123,690.8999 L553.092,691.1052 L562.9716,691.4163 L572.8513,691.5198 L582.7309,690.9596 L592.6106,691.3478 L602.4902,690.2016 L612.3699,691.344 L622.2495,690.9648" fill="none" style="stroke:#181818;stroke-width:1;"/><text fill="#000000" font-family="sans-serif" font-size="13" lengthAdjust="spacing" textLength="149.519" x="234.0635" y="670.9121">JSON-RPC \"tools/call\"</text><text fill="#000000" font-family="sans-serif" font-size="13" lengthAdjust="spacing" textLength="382.186" x="234.0635" y="686.2227">(mcp-call-tool-text &#8594; mcp-http-request &#8594; http-post-json)</text></g><g class="message" data-participant-1="MCP" data-participant-2="Client"><polygon fill="#181818" points="238.0635,716.2754,238.0895,716.3404,236.0122,716.9472,234.0874,717.9352,232.113,718.7991,229.9752,719.2546,228.0635,720.2754,228.0539,720.2513,230.0107,720.9434,232.016,721.7567,234.055,722.6543,235.9779,723.2614,238.0635,724.2754,238.194,724.4059,237.1149,723.3268,236.4169,722.6288,235.7653,721.9772,234.8433,721.0552,234.0635,720.2754,234.0796,720.2915,234.8559,719.4679,235.7056,718.7175,236.5198,717.9318,237.4015,717.2134,238.0635,716.2754" style="stroke:#181818;stroke-width:1;"/><path d="M232.0635,720.2754 L232.0635,720.5556 L242.0681,719.723 L252.0728,720.5331 L262.0774,720.8083 L272.0821,719.3242 L282.0867,720.1718 L292.0914,719.7067 L302.096,719.7641 L312.1007,720.1845 L322.1053,719.3536 L332.11,721.0136 L342.1146,719.435 L352.1193,720.0117 L362.1239,720.8513 L372.1286,720.161 L382.1332,720.3664 L392.1379,720.2328 L402.1425,720.5134 L412.1472,720.5942 L422.1518,721.0563 L432.1565,721.1701 L442.1611,721.1811 L452.1658,720.6149 L462.1704,720.8935 L472.1751,721.2117 L482.1797,719.3138 L492.1844,721.1801 L502.1891,719.8801 L512.1937,720.9871 L522.1984,719.6154 L532.203,720.1841 L542.2077,721.2642 L552.2123,720.2104 L562.217,720.4158 L572.2216,720.7269 L582.2263,720.8304 L592.2309,720.2702 L602.2356,720.6583 L612.2402,719.5122 L622.2449,720.6546 L632.2495,720.2754" fill="none" style="stroke:#181818;stroke-width:1;stroke-dasharray:2,2;"/><text fill="#000000" font-family="sans-serif" font-size="13" lengthAdjust="spacing" textLength="133.4658" x="244.0635" y="715.5332">result.content[0].text</text></g><g class="message" data-participant-1="Client" data-participant-2="Client"><path d="M227.0635,780.207 L227.0635,780.3004 L235.4635,780.0229 L243.8635,780.2929 L252.2635,780.3847 L260.6635,779.89 L269.0635,780.207" fill="none" style="stroke:#181818;stroke-width:1;"/><path d="M269.0635,780.207 L269.1569,780.207 L268.8793,782.807 L269.1494,785.407 L269.2411,788.007 L268.7464,790.607 L269.0635,793.207" fill="none" style="stroke:#181818;stroke-width:1;"/><path d="M228.0635,793.207 L228.0635,793.3004 L236.2635,793.0229 L244.4635,793.2929 L252.6635,793.3847 L260.8635,792.89 L269.0635,793.207" fill="none" style="stroke:#181818;stroke-width:1;"/><polygon fill="#181818" points="238.0635,789.207,238.0895,789.2721,236.0122,789.8788,234.0874,790.8669,232.113,791.7307,229.9752,792.1862,228.0635,793.207,228.0539,793.183,230.0107,793.875,232.016,794.6883,234.055,795.5859,235.9779,796.1931,238.0635,797.207,238.194,797.3375,237.1149,796.2585,236.4169,795.5604,235.7653,794.9088,234.8433,793.9868,234.0635,793.207,234.0796,793.2231,234.8559,792.3995,235.7056,791.6491,236.5198,790.8634,237.4015,790.1451,238.0635,789.207" style="stroke:#181818;stroke-width:1;"/><text fill="#000000" font-family="sans-serif" font-size="13" lengthAdjust="spacing" textLength="124.8774" x="234.0635" y="744.8438">push message 'tool'</text><text fill="#000000" font-family="sans-serif" font-size="13" lengthAdjust="spacing" textLength="197.6025" x="234.0635" y="760.1543">(role=tool, tool_name, content)</text><text fill="#000000" font-family="sans-serif" font-size="13" lengthAdjust="spacing" textLength="125.8232" x="234.0635" y="775.4648">&#8594; maj de messages</text></g><!--SRC=[bLHBSXCn4DtFAHflR2THmZfL3WKk5b10KWciC4KfCqsie964FlbSW0Fa5FWSlWadeLiZZyUGB5XuQjJpzFhrwsu_iougQs0fJNFhLOne8Fg4LINhQ3ry2kWh9trKjNBIH1YzKy51hHMQk30JduneQoUirhAL8c08H3STWGmmpw3Ts-_dPq2KD-ZfyXxVJ5xlTNZwjWi-pQGCBFICXIFfr56zbB6xrO6gQZQ3DqP59RKACjSqcrKi7yH9aGB7a2WWb74fSe7gHaRSwAp6SBvUrScjLxuZQ310j5PtqWe7iN4Hn_3sulI3E3-RmsAKGKUKE2v699VBoY718VZzym4uj8pH2Oy_4fPW3ZWRehWEPDfM4QVZ968etMD8EXvcugh17V10N8_VgZWfzkNJ93-d2yCAXXyUuwYj2JGEoYEqr5fvXO7g2_SXOWlxsSrfjlwLJRL6S5uPxXwzallQMWTpQwZRNKigW36yT0urD0bQswn_4R9q460he0kHWBFJYu_RZbFkMcgzcRPR5PUTzaVj1EWzwbCKuXrZIsLK3vKRERQVs_wLSuKNT6lWzcRSY5p70GnkL8CKtLP1AVBu7VUq4xzUEN8KuPiovD4qumVaPH8vUkbHVgStr0GVf7744JQWCRo-uv4jqmha4KtN5fv1kGlE9l_uvw7jlIMqXW65z5UffK0GhRo_n4b_dbR_N7rY9pXDlnEvTnmN4U_-Oo-wN3i3tuMUsf5Y-EVdNmuvKq7_lJDFLv_2if-ACGiUyr-TrJZZmq7de94j7cnwM_QfbTVSXyskv1HecgfxykyF]--></g></svg>