<svg xmlns="http://www.w3.org/2000/svg" xmlns:xlink="http://www.w3.org/1999/xlink" contentStyleType="text/css" data-diagram-type="SEQUENCE" height="667px" preserveAspectRatio="none" style="width:857px;height:667px;background:#FFFFFF;" version="1.1" viewBox="0 0 857 667" width="857px" zoomAndPan="magnify"><defs/><g><g><title>Agent LISP</title></g><g><title>Agent LISP</title><polygon fill="#FFFFFF" points="264.814,254.6621,264.814,254.7322,266.814,254.524,268.814,254.7265,270.814,254.7953,272.814,254.4243,274.814,254.6621,274.7363,254.6621,274.3875,264.7823,274.4305,274.9025,274.7458,285.0227,274.1226,295.143,275.3676,305.2632,274.1837,315.3834,274.6162,325.5036,275.2459,335.6238,274.7282,345.744,274.8822,355.8642,274.782,365.9844,274.9925,376.1046,275.0531,386.2249,275.3997,396.3451,275.485,406.4653,275.4932,416.5855,275.0686,426.7057,275.2775,436.8259,275.5162,446.9461,274.0928,457.0663,275.4925,467.1866,274.5175,477.3068,275.3478,487.427,274.3189,497.5472,274.7455,507.6674,275.5556,517.7876,274.7652,527.9078,274.9193,538.028,275.1526,548.1482,275.2302,558.2685,274.814,568.3887,274.814,568.3874,272.814,568.4844,270.814,568.1979,268.814,568.4835,266.814,568.5714,264.814,568.3887,265.2585,568.3887,265.427,558.2685,264.3309,548.1482,264.1618,538.028,264.1926,527.9078,264.7551,517.7876,264.6174,507.6674,265.4954,497.5472,264.6393,487.427,264.4709,477.3068,265.0422,467.1866,264.1471,457.0663,264.2948,446.9461,265.4629,436.8259,265.2496,426.7057,265.5485,416.5855,264.4922,406.4653,265.1332,396.3451,265.4044,386.2249,264.3416,376.1046,264.7181,365.9844,264.9399,355.8642,265.4657,345.744,264.8098,335.6238,265.2765,325.5036,264.2602,315.3834,264.1367,305.2632,265.3176,295.143,264.097,285.0227,265.3229,274.9025,265.0206,264.7823,264.814,254.6621" style="stroke:#181818;stroke-width:1;"/></g><g><title>Ollama</title><polygon fill="#FFFFFF" points="585.8613,157.4199,585.8613,157.49,587.8613,157.2818,589.8613,157.4844,591.8613,157.5531,593.8613,157.1821,595.8613,157.4199,595.8354,157.4199,595.7192,166.3441,595.7335,175.2684,595.8386,184.1926,595.6309,193.1168,595.8613,202.041,595.8613,202.2256,593.8613,201.8309,591.8613,201.9751,589.8613,202.185,587.8613,202.0124,585.8613,202.041,585.8841,202.041,585.8507,193.1168,585.9208,184.1926,585.941,175.2684,586.0566,166.3441,585.8613,157.4199" style="stroke:#181818;stroke-width:1;"/></g><g><title>Ollama</title><polygon fill="#FFFFFF" points="585.8613,463.8359,585.8613,463.906,587.8613,463.6978,589.8613,463.9004,591.8613,463.9692,593.8613,463.5981,595.8613,463.8359,595.8354,463.8359,595.7192,472.7602,595.7335,481.6844,595.8386,490.6086,595.6309,499.5328,595.8613,508.457,595.8613,508.6416,593.8613,508.2469,591.8613,508.3911,589.8613,508.601,587.8613,508.4284,585.8613,508.457,585.8841,508.457,585.8507,499.5328,585.9208,490.6086,585.941,481.6844,586.0566,472.7602,585.8613,463.8359" style="stroke:#181818;stroke-width:1;"/></g><g><title>Open-Meteo</title><polygon fill="#FFFFFF" points="686.6802,288.9727,686.6802,289.0427,688.6802,288.8345,690.6802,289.0371,692.6802,289.1059,694.6802,288.7349,696.6802,288.9727,696.6543,288.9727,696.538,294.8348,696.5523,300.6969,696.6575,306.559,696.4497,312.4211,696.6802,318.2832,696.6802,318.4678,694.6802,318.0731,692.6802,318.2173,690.6802,318.4272,688.6802,318.2546,686.6802,318.2832,686.7029,318.2832,686.6695,312.4211,686.7397,306.559,686.7599,300.6969,686.8754,294.8348,686.6802,288.9727" style="stroke:#181818;stroke-width:1;"/></g><g><title>Open-Meteo</title><polygon fill="#FFFFFF" points="796.4507,347.5938,796.4507,347.6638,798.4507,347.4556,800.4507,347.6582,802.4507,347.727,804.4507,347.356,806.4507,347.5938,806.4248,347.5938,806.3085,353.4559,806.3229,359.318,806.428,365.1801,806.2202,371.0422,806.4507,376.9043,806.4507,377.0888,804.4507,376.6942,802.4507,376.8384,800.4507,377.0483,798.4507,376.8757,796.4507,376.9043,796.4734,376.9043,796.44,371.0422,796.5102,365.1801,796.5304,359.318,796.6459,353.4559,796.4507,347.5938" style="stroke:#181818;stroke-width:1;"/></g><g><title>Utilisateur</title><polygon fill="#000000" fill-opacity="0.00000" points="38.6992,81.4883,38.6992,81.5583,40.2992,81.3502,41.8992,81.5527,43.4992,81.6215,45.0992,81.2505,46.6992,81.4883,46.6215,81.4883,46.2727,91.5863,46.3157,101.6843,46.6311,111.7823,46.0078,121.8803,47.2529,131.9783,46.0689,142.0763,46.5015,152.1743,47.1312,162.2723,46.6134,172.3704,46.7675,182.4684,46.6673,192.5664,46.8777,202.6644,46.9384,212.7624,47.2849,222.8604,47.3703,232.9584,47.3785,243.0564,46.9538,253.1544,47.1628,263.2524,47.4015,273.3504,45.978,283.4484,47.3777,293.5464,46.4027,303.6445,47.233,313.7425,46.2042,323.8405,46.6307,333.9385,47.4408,344.0365,46.6505,354.1345,46.8045,364.2325,47.0378,374.3305,47.1155,384.4285,46.6953,394.5265,46.9864,404.6245,46.1268,414.7225,46.9836,424.8205,47.2474,434.9186,47.1438,445.0166,47.3122,455.1146,46.2161,465.2126,46.047,475.3106,46.0778,485.4086,46.6403,495.5066,46.5027,505.6046,47.3806,515.7026,46.5245,525.8006,46.3562,535.8986,46.9275,545.9966,46.0324,556.0946,46.1801,566.1927,47.3482,576.2907,46.6992,586.3887,46.6992,586.5339,45.0992,586.6335,43.4992,586.2814,41.8992,586.4951,40.2992,586.5855,38.6992,586.3887,38.2268,586.3887,38.6034,576.2907,38.8252,566.1927,39.351,556.0946,38.695,545.9966,39.1618,535.8986,38.1454,525.8006,38.022,515.7026,39.2028,505.6046,37.9823,495.5066,39.2082,485.4086,38.9058,475.3106,38.4313,465.2126,38.3454,455.1146,39.158,445.0166,38.3999,434.9186,39.2911,424.8205,38.1465,414.7225,39.3166,404.6245,39.1835,394.5265,38.9442,384.4285,38.7464,374.3305,39.4258,364.2325,39.3128,354.1345,38.8685,344.0365,38.9674,333.9385,38.569,323.8405,39.4157,313.7425,38.8541,303.6445,38.8718,293.5464,38.0909,283.4484,38.294,273.3504,39.23,263.2524,39.129,253.1544,38.6563,243.0564,38.377,232.9584,38.4803,222.8604,38.013,212.7624,39.114,202.6644,39.4388,192.5664,39.2256,182.4684,39.3942,172.3704,38.5625,162.2723,38.7864,152.1743,38.3116,142.0763,38.9833,131.9783,38.946,121.8803,39.2516,111.7823,38.4696,101.6843,38.5648,91.5863,38.6992,81.4883"/><path d="M42,81.4883 L42.2802,81.4883 L41.4476,91.5863 L42.2577,101.6843 L42.5329,111.7823 L41.0488,121.8803 L41.8964,131.9783 L41.4313,142.0763 L41.4887,152.1743 L41.9091,162.2723 L41.0782,172.3704 L42.7382,182.4684 L41.1596,192.5664 L41.7363,202.6644 L42.5759,212.7624 L41.8856,222.8604 L42.091,232.9584 L41.9574,243.0564 L42.238,253.1544 L42.3188,263.2524 L42.7809,273.3504 L42.8947,283.4484 L42.9057,293.5464 L42.3395,303.6445 L42.6181,313.7425 L42.9363,323.8405 L41.0384,333.9385 L42.9047,344.0365 L41.6047,354.1345 L42.7117,364.2325 L41.34,374.3305 L41.9087,384.4285 L42.9888,394.5265 L41.935,404.6245 L42.1404,414.7225 L42.4515,424.8205 L42.555,434.9186 L41.9948,445.0166 L42.383,455.1146 L41.2368,465.2126 L42.3792,475.3106 L42.7309,485.4086 L42.5927,495.5066 L42.8174,505.6046 L41.3559,515.7026 L41.1304,525.8006 L41.1715,535.8986 L41.9215,545.9966 L41.738,556.0946 L42.9085,566.1927 L41.7671,576.2907 L42,586.3887" fill="none" style="stroke:#181818;stroke-width:0.5;stroke-dasharray:5,5;"/></g><g><title>Agent LISP</title><polygon fill="#000000" fill-opacity="0.00000" points="260.814,81.4883,260.814,81.5583,262.414,81.3502,264.014,81.5527,265.614,81.6215,267.214,81.2505,268.814,81.4883,268.7363,81.4883,268.3875,91.5863,268.4305,101.6843,268.7458,111.7823,268.1226,121.8803,269.3676,131.9783,268.1837,142.0763,268.6162,152.1743,269.2459,162.2723,268.7282,172.3704,268.8822,182.4684,268.782,192.5664,268.9925,202.6644,269.0531,212.7624,269.3997,222.8604,269.485,232.9584,269.4932,243.0564,269.0686,253.1544,269.2775,263.2524,269.5162,273.3504,268.0928,283.4484,269.4925,293.5464,268.5175,303.6445,269.3478,313.7425,268.3189,323.8405,268.7455,333.9385,269.5556,344.0365,268.7652,354.1345,268.9193,364.2325,269.1526,374.3305,269.2302,384.4285,268.8101,394.5265,269.1012,404.6245,268.2415,414.7225,269.0984,424.8205,269.3622,434.9186,269.2585,445.0166,269.427,455.1146,268.3309,465.2126,268.1618,475.3106,268.1926,485.4086,268.7551,495.5066,268.6174,505.6046,269.4954,515.7026,268.6393,525.8006,268.4709,535.8986,269.0422,545.9966,268.1471,556.0946,268.2948,566.1927,269.4629,576.2907,268.814,586.3887,268.814,586.5339,267.214,586.6335,265.614,586.2814,264.014,586.4951,262.414,586.5855,260.814,586.3887,260.3416,586.3887,260.7181,576.2907,260.9399,566.1927,261.4657,556.0946,260.8098,545.9966,261.2765,535.8986,260.2602,525.8006,260.1367,515.7026,261.3176,505.6046,260.097,495.5066,261.3229,485.4086,261.0206,475.3106,260.546,465.2126,260.4602,455.1146,261.2727,445.0166,260.5146,434.9186,261.4058,424.8205,260.2612,414.7225,261.4314,404.6245,261.2983,394.5265,261.0589,384.4285,260.8612,374.3305,261.5406,364.2325,261.4275,354.1345,260.9832,344.0365,261.0822,333.9385,260.6837,323.8405,261.5304,313.7425,260.9688,303.6445,260.9865,293.5464,260.2056,283.4484,260.4087,273.3504,261.3447,263.2524,261.2437,253.1544,260.771,243.0564,260.4918,232.9584,260.595,222.8604,260.1278,212.7624,261.2287,202.6644,261.5535,192.5664,261.3404,182.4684,261.5089,172.3704,260.6772,162.2723,260.9012,152.1743,260.4264,142.0763,261.098,131.9783,261.0607,121.8803,261.3664,111.7823,260.5843,101.6843,260.6796,91.5863,260.814,81.4883"/><path d="M264.1543,81.4883 L264.4345,81.4883 L263.6019,91.5863 L264.412,101.6843 L264.6872,111.7823 L263.2031,121.8803 L264.0507,131.9783 L263.5856,142.0763 L263.643,152.1743 L264.0634,162.2723 L263.2325,172.3704 L264.8925,182.4684 L263.3139,192.5664 L263.8906,202.6644 L264.7302,212.7624 L264.0399,222.8604 L264.2453,232.9584 L264.1117,243.0564 L264.3923,253.1544 L264.4731,263.2524 L264.9352,273.3504 L265.049,283.4484 L265.06,293.5464 L264.4938,303.6445 L264.7724,313.7425 L265.0906,323.8405 L263.1927,333.9385 L265.059,344.0365 L263.759,354.1345 L264.866,364.2325 L263.4943,374.3305 L264.063,384.4285 L265.1431,394.5265 L264.0893,404.6245 L264.2947,414.7225 L264.6058,424.8205 L264.7093,434.9186 L264.1491,445.0166 L264.5372,455.1146 L263.3911,465.2126 L264.5335,475.3106 L264.8852,485.4086 L264.747,495.5066 L264.9717,505.6046 L263.5102,515.7026 L263.2847,525.8006 L263.3258,535.8986 L264.0758,545.9966 L263.8923,556.0946 L265.0628,566.1927 L263.9214,576.2907 L264.1543,586.3887" fill="none" style="stroke:#181818;stroke-width:0.5;stroke-dasharray:5,5;"/></g><g><title>Ollama</title><polygon fill="#000000" fill-opacity="0.00000" points="586.8613,81.4883,586.8613,81.5583,588.4613,81.3502,590.0613,81.5527,591.6613,81.6215,593.2613,81.2505,594.8613,81.4883,594.7836,81.4883,594.4348,91.5863,594.4778,101.6843,594.7932,111.7823,594.17,121.8803,595.415,131.9783,594.231,142.0763,594.6636,152.1743,595.2933,162.2723,594.7756,172.3704,594.9296,182.4684,594.8294,192.5664,595.0399,202.6644,595.1005,212.7624,595.447,222.8604,595.5324,232.9584,595.5406,243.0564,595.116,253.1544,595.3249,263.2524,595.5636,273.3504,594.1401,283.4484,595.5398,293.5464,594.5648,303.6445,595.3951,313.7425,594.3663,323.8405,594.7928,333.9385,595.6029,344.0365,594.8126,354.1345,594.9666,364.2325,595.2,374.3305,595.2776,384.4285,594.8574,394.5265,595.1485,404.6245,594.2889,414.7225,595.1457,424.8205,595.4095,434.9186,595.3059,445.0166,595.4744,455.1146,594.3782,465.2126,594.2091,475.3106,594.2399,485.4086,594.8024,495.5066,594.6648,505.6046,595.5427,515.7026,594.6867,525.8006,594.5183,535.8986,595.0896,545.9966,594.1945,556.0946,594.3422,566.1927,595.5103,576.2907,594.8613,586.3887,594.8613,586.5339,593.2613,586.6335,591.6613,586.2814,590.0613,586.4951,588.4613,586.5855,586.8613,586.3887,586.3889,586.3887,586.7655,576.2907,586.9873,566.1927,587.5131,556.0946,586.8571,545.9966,587.3239,535.8986,586.3075,525.8006,586.1841,515.7026,587.3649,505.6046,586.1444,495.5066,587.3703,485.4086,587.068,475.3106,586.5934,465.2126,586.5076,455.1146,587.3201,445.0166,586.562,434.9186,587.4532,424.8205,586.3086,414.7225,587.4788,404.6245,587.3456,394.5265,587.1063,384.4285,586.9085,374.3305,587.5879,364.2325,587.4749,354.1345,587.0306,344.0365,587.1295,333.9385,586.7311,323.8405,587.5778,313.7425,587.0162,303.6445,587.0339,293.5464,586.253,283.4484,586.4561,273.3504,587.3921,263.2524,587.2911,253.1544,586.8184,243.0564,586.5392,232.9584,586.6424,222.8604,586.1752,212.7624,587.2761,202.6644,587.6009,192.5664,587.3877,182.4684,587.5563,172.3704,586.7246,162.2723,586.9485,152.1743,586.4737,142.0763,587.1454,131.9783,587.1081,121.8803,587.4137,111.7823,586.6317,101.6843,586.7269,91.5863,586.8613,81.4883"/><path d="M589.9277,81.4883 L590.208,81.4883 L589.3753,91.5863 L590.1854,101.6843 L590.4606,111.7823 L588.9765,121.8803 L589.8241,131.9783 L589.3591,142.0763 L589.4164,152.1743 L589.8369,162.2723 L589.0059,172.3704 L590.6659,182.4684 L589.0874,192.5664 L589.664,202.6644 L590.5037,212.7624 L589.8134,222.8604 L590.0187,232.9584 L589.8851,243.0564 L590.1658,253.1544 L590.2466,263.2524 L590.7087,273.3504 L590.8225,283.4484 L590.8334,293.5464 L590.2672,303.6445 L590.5458,313.7425 L590.864,323.8405 L588.9662,333.9385 L590.8324,344.0365 L589.5324,354.1345 L590.6395,364.2325 L589.2677,374.3305 L589.8364,384.4285 L590.9165,394.5265 L589.8628,404.6245 L590.0681,414.7225 L590.3792,424.8205 L590.4827,434.9186 L589.9225,445.0166 L590.3107,455.1146 L589.1645,465.2126 L590.3069,475.3106 L590.6587,485.4086 L590.5204,495.5066 L590.7451,505.6046 L589.2836,515.7026 L589.0582,525.8006 L589.0992,535.8986 L589.8492,545.9966 L589.6657,556.0946 L590.8363,566.1927 L589.6948,576.2907 L589.9277,586.3887" fill="none" style="stroke:#181818;stroke-width:0.5;stroke-dasharray:5,5;"/></g><g><title>Open-Meteo</title><polygon fill="#000000" fill-opacity="0.00000" points="687.6802,81.4883,687.6802,81.5583,689.2802,81.3502,690.8802,81.5527,692.4802,81.6215,694.0802,81.2505,695.6802,81.4883,695.6025,81.4883,695.2537,91.5863,695.2967,101.6843,695.612,111.7823,694.9888,121.8803,696.2338,131.9783,695.0499,142.0763,695.4824,152.1743,696.1121,162.2723,695.5944,172.3704,695.7484,182.4684,695.6482,192.5664,695.8587,202.6644,695.9193,212.7624,696.2659,222.8604,696.3512,232.9584,696.3594,243.0564,695.9348,253.1544,696.1438,263.2524,696.3824,273.3504,694.959,283.4484,696.3587,293.5464,695.3837,303.6445,696.214,313.7425,695.1852,323.8405,695.6117,333.9385,696.4218,344.0365,695.6314,354.1345,695.7855,364.2325,696.0188,374.3305,696.0964,384.4285,695.6763,394.5265,695.9674,404.6245,695.1078,414.7225,695.9646,424.8205,696.2284,434.9186,696.1247,445.0166,696.2932,455.1146,695.1971,465.2126,695.028,475.3106,695.0588,485.4086,695.6213,495.5066,695.4836,505.6046,696.3616,515.7026,695.5055,525.8006,695.3371,535.8986,695.9084,545.9966,695.0133,556.0946,695.1611,566.1927,696.3291,576.2907,695.6802,586.3887,695.6802,586.5339,694.0802,586.6335,692.4802,586.2814,690.8802,586.4951,689.2802,586.5855,687.6802,586.3887,687.2078,586.3887,687.5843,576.2907,687.8062,566.1927,688.3319,556.0946,687.676,545.9966,688.1427,535.8986,687.1264,525.8006,687.0029,515.7026,688.1838,505.6046,686.9632,495.5066,688.1891,485.4086,687.8868,475.3106,687.4123,465.2126,687.3264,455.1146,688.1389,445.0166,687.3808,434.9186,688.272,424.8205,687.1274,414.7225,688.2976,404.6245,688.1645,394.5265,687.9251,384.4285,687.7274,374.3305,688.4068,364.2325,688.2938,354.1345,687.8494,344.0365,687.9484,333.9385,687.5499,323.8405,688.3966,313.7425,687.835,303.6445,687.8527,293.5464,687.0718,283.4484,687.275,273.3504,688.2109,263.2524,688.1099,253.1544,687.6372,243.0564,687.358,232.9584,687.4612,222.8604,686.994,212.7624,688.0949,202.6644,688.4197,192.5664,688.2066,182.4684,688.3751,172.3704,687.5434,162.2723,687.7674,152.1743,687.2926,142.0763,687.9642,131.9783,687.9269,121.8803,688.2326,111.7823,687.4505,101.6843,687.5458,91.5863,687.6802,81.4883"/><path d="M690.7949,81.4883 L691.0752,81.4883 L690.2425,91.5863 L691.0526,101.6843 L691.3278,111.7823 L689.8437,121.8803 L690.6913,131.9783 L690.2263,142.0763 L690.2836,152.1743 L690.704,162.2723 L689.8731,172.3704 L691.5331,182.4684 L689.9545,192.5664 L690.5312,202.6644 L691.3709,212.7624 L690.6806,222.8604 L690.8859,232.9584 L690.7523,243.0564 L691.033,253.1544 L691.1138,263.2524 L691.5758,273.3504 L691.6897,283.4484 L691.7006,293.5464 L691.1344,303.6445 L691.413,313.7425 L691.7312,323.8405 L689.8333,333.9385 L691.6996,344.0365 L690.3996,354.1345 L691.5067,364.2325 L690.1349,374.3305 L690.7036,384.4285 L691.7837,394.5265 L690.7299,404.6245 L690.9353,414.7225 L691.2464,424.8205 L691.3499,434.9186 L690.7897,445.0166 L691.1779,455.1146 L690.0317,465.2126 L691.1741,475.3106 L691.5258,485.4086 L691.3876,495.5066 L691.6123,505.6046 L690.1508,515.7026 L689.9253,525.8006 L689.9664,535.8986 L690.7164,545.9966 L690.5329,556.0946 L691.7035,566.1927 L690.562,576.2907 L690.7949,586.3887" fill="none" style="stroke:#181818;stroke-width:0.5;stroke-dasharray:5,5;"/></g><g><title>Open-Meteo</title><polygon fill="#000000" fill-opacity="0.00000" points="797.4507,81.4883,797.4507,81.5583,799.0507,81.3502,800.6507,81.5527,802.2507,81.6215,803.8507,81.2505,805.4507,81.4883,805.373,81.4883,805.0242,91.5863,805.0672,101.6843,805.3825,111.7823,804.7593,121.8803,806.0043,131.9783,804.8204,142.0763,805.2529,152.1743,805.8826,162.2723,805.3649,172.3704,805.5189,182.4684,805.4187,192.5664,805.6292,202.6644,805.6898,212.7624,806.0364,222.8604,806.1217,232.9584,806.1299,243.0564,805.7053,253.1544,805.9143,263.2524,806.1529,273.3504,804.7295,283.4484,806.1292,293.5464,805.1542,303.6445,805.9845,313.7425,804.9557,323.8405,805.3822,333.9385,806.1923,344.0365,805.4019,354.1345,805.556,364.2325,805.7893,374.3305,805.8669,384.4285,805.4468,394.5265,805.7379,404.6245,804.8783,414.7225,805.7351,424.8205,805.9989,434.9186,805.8952,445.0166,806.0637,455.1146,804.9676,465.2126,804.7985,475.3106,804.8293,485.4086,805.3918,495.5066,805.2542,505.6046,806.1321,515.7026,805.276,525.8006,805.1076,535.8986,805.679,545.9966,804.7838,556.0946,804.9316,566.1927,806.0996,576.2907,805.4507,586.3887,805.4507,586.5339,803.8507,586.6335,802.2507,586.2814,800.6507,586.4951,799.0507,586.5855,797.4507,586.3887,796.9783,586.3887,797.3548,576.2907,797.5767,566.1927,798.1024,556.0946,797.4465,545.9966,797.9133,535.8986,796.8969,525.8006,796.7734,515.7026,797.9543,505.6046,796.7337,495.5066,797.9596,485.4086,797.6573,475.3106,797.1828,465.2126,797.0969,455.1146,797.9094,445.0166,797.1514,434.9186,798.0425,424.8205,796.8979,414.7225,798.0681,404.6245,797.935,394.5265,797.6957,384.4285,797.4979,374.3305,798.1773,364.2325,798.0643,354.1345,797.6199,344.0365,797.7189,333.9385,797.3204,323.8405,798.1671,313.7425,797.6056,303.6445,797.6233,293.5464,796.8423,283.4484,797.0455,273.3504,797.9814,263.2524,797.8804,253.1544,797.4078,243.0564,797.1285,232.9584,797.2318,222.8604,796.7645,212.7624,797.8654,202.6644,798.1902,192.5664,797.9771,182.4684,798.1456,172.3704,797.314,162.2723,797.5379,152.1743,797.0631,142.0763,797.7347,131.9783,797.6974,121.8803,798.0031,111.7823,797.221,101.6843,797.3163,91.5863,797.4507,81.4883"/><path d="M800.5654,81.4883 L800.8457,81.4883 L800.013,91.5863 L800.8231,101.6843 L801.0983,111.7823 L799.6142,121.8803 L800.4618,131.9783 L799.9968,142.0763 L800.0541,152.1743 L800.4746,162.2723 L799.6436,172.3704 L801.3036,182.4684 L799.7251,192.5664 L800.3017,202.6644 L801.1414,212.7624 L800.4511,222.8604 L800.6564,232.9584 L800.5228,243.0564 L800.8035,253.1544 L800.8843,263.2524 L801.3463,273.3504 L801.4602,283.4484 L801.4711,293.5464 L800.9049,303.6445 L801.1835,313.7425 L801.5017,323.8405 L799.6038,333.9385 L801.4701,344.0365 L800.1701,354.1345 L801.2772,364.2325 L799.9054,374.3305 L800.4741,384.4285 L801.5542,394.5265 L800.5005,404.6245 L800.7058,414.7225 L801.0169,424.8205 L801.1204,434.9186 L800.5602,445.0166 L800.9484,455.1146 L799.8022,465.2126 L800.9446,475.3106 L801.2964,485.4086 L801.1581,495.5066 L801.3828,505.6046 L799.9213,515.7026 L799.6959,525.8006 L799.7369,535.8986 L800.4869,545.9966 L800.3034,556.0946 L801.474,566.1927 L800.3325,576.2907 L800.5654,586.3887" fill="none" style="stroke:#181818;stroke-width:0.5;stroke-dasharray:5,5;"/></g><g class="participant participant-head" data-participant="Utilisateur"><text fill="#000000" font-family="sans-serif" font-size="14" lengthAdjust="spacing" textLength="69.3984" x="5" y="78.5352">Utilisateur</text><polygon fill="#E2E2F0" points="50.7434,15.4459,49.5707,17.0482,48.1837,19.3951,46.2,20.9767,44.1155,21.8415,42.4534,21.9166,40.3172,20.8349,38.3015,20.1283,36.7716,18.6936,35.9691,17.0511,35.4932,15.7433,35.0269,14.0351,34.2701,12.5651,34.8517,11.1298,35.3612,9.5576,37.2733,8.3142,38.6185,6.7008,40.2835,6.165,42.2629,5.7037,44.8013,5.9778,46.1916,6.6335,47.8081,6.9307,49.7735,8.9443,50.4587,11.0701,50.7564,12.5206,50.4192,14.9108" style="stroke:#181818;stroke-width:0.5;"/><path d="M42.6992,21.5 L42.886,21.5 L42.3309,26.9 L42.871,32.3 L43.0545,37.7 L42.0651,43.1 L42.6992,48.5 M29.6992,29.5 L29.6992,29.4309 L34.8992,29.1209 L40.0992,29.1591 L45.2992,29.4394 L50.4992,28.8854 L55.6992,29.5 M42.6992,48.5 L43.0711,48.8223 L39.6758,51.1331 L37.3664,54.3849 L35.1894,57.7515 L32.2416,60.4501 L29.6992,63.5 M42.6992,48.5 L42.7451,48.5397 L45.2778,51.4814 L48.0191,54.6039 L50.6599,57.6392 L53.4926,60.841 L55.6992,63.5" fill="none" style="stroke:#181818;stroke-width:0.5;"/></g><g class="participant participant-tail" data-participant="Utilisateur"><text fill="#000000" font-family="sans-serif" font-size="14" lengthAdjust="spacing" textLength="69.3984" x="5" y="598.9238">Utilisateur</text><polygon fill="#E2E2F0" points="50.7434,612.3229,49.5707,613.9252,48.1837,616.272,46.2,617.8536,44.1155,618.7185,42.4534,618.7936,40.3172,617.7119,38.3015,617.0053,36.7716,615.5705,35.9691,613.9281,35.4932,612.6203,35.0269,610.912,34.2701,609.442,34.8517,608.0068,35.3612,606.4346,37.2733,605.1911,38.6185,603.5778,40.2835,603.042,42.2629,602.5806,44.8013,602.8547,46.1916,603.5104,47.8081,603.8076,49.7735,605.8213,50.4587,607.9471,50.7564,609.3976,50.4192,611.7878" style="stroke:#181818;stroke-width:0.5;"/><path d="M42.6992,618.377 L42.886,618.377 L42.3309,623.777 L42.871,629.177 L43.0545,634.577 L42.0651,639.977 L42.6992,645.377 M29.6992,626.377 L29.6992,626.3079 L34.8992,625.9978 L40.0992,626.0361 L45.2992,626.3164 L50.4992,625.7624 L55.6992,626.377 M42.6992,645.377 L43.0711,645.6993 L39.6758,648.01 L37.3664,651.2618 L35.1894,654.6284 L32.2416,657.327 L29.6992,660.377 M42.6992,645.377 L42.7451,645.4167 L45.2778,648.3584 L48.0191,651.4809 L50.6599,654.5162 L53.4926,657.7179 L55.6992,660.377" fill="none" style="stroke:#181818;stroke-width:0.5;"/></g><g class="participant participant-head" data-participant="agent"><polygon fill="#E2E2F0" points="224.6543,33.5117,224.6543,33.7219,234.6942,33.0974,244.7341,33.705,254.774,33.9114,264.814,32.7983,274.8539,33.434,284.8938,33.0852,294.9337,33.1282,304.9736,33.5117,304.9649,33.4907,305.239,33.4453,305.7514,33.9751,305.9539,33.757,306.3626,34.0366,306.7414,34.244,306.8744,34.2991,306.8614,34.5866,307.0553,34.9598,307.1709,35.3005,307.3822,35.6809,307.4736,36.0117,307.5533,36.0117,307.6689,44.407,307.6973,52.8023,307.7001,61.1977,307.5585,69.593,307.4736,77.9883,307.6164,78.0474,307.5434,78.4314,306.9586,78.6034,307.2432,79.1355,306.7965,79.3647,306.7414,79.756,306.8095,79.9204,306.3247,79.75,306.0256,80.0278,305.7753,80.4238,305.321,80.3268,304.9736,80.4883,304.9736,80.5936,294.9337,80.8269,284.8938,80.9045,274.8539,80.4844,264.814,80.7755,254.774,79.9159,244.7341,80.7727,234.6942,81.0365,224.6543,80.4883,224.711,80.6252,224.3789,80.5306,223.8856,80.0466,223.5104,79.8481,223.1608,79.7111,222.8865,79.756,222.8684,79.7485,222.6796,79.3774,222.8035,79.1359,222.3934,78.6731,222.1951,78.2981,222.1543,77.9883,222.2304,77.9883,221.932,69.593,221.9813,61.1977,222.3706,52.8023,222.2995,44.407,222.1543,36.0117,222.3805,36.1054,222.2016,35.6171,222.5455,35.3453,222.7755,35.0264,222.5946,34.5372,222.8865,34.244,222.8743,34.2144,223.2562,34.1363,223.6768,34.1518,223.9467,33.8033,224.3597,33.8006,224.6543,33.5117" style="stroke:#181818;stroke-width:0.5;"/><text fill="#000000" font-family="sans-serif" font-size="14" lengthAdjust="spacing" textLength="71.3193" x="229.1543" y="54.0469">Agent LISP</text><text fill="#000000" font-family="sans-serif" font-size="14" lengthAdjust="spacing" textLength="41.8564" x="243.8857" y="70.5352">(saito)</text></g><g class="participant participant-tail" data-participant="agent"><polygon fill="#E2E2F0" points="224.6543,585.3887,224.6543,585.5989,234.6942,584.9744,244.7341,585.582,254.774,585.7884,264.814,584.6753,274.8539,585.311,284.8938,584.9622,294.9337,585.0052,304.9736,585.3887,304.9649,585.3677,305.239,585.3222,305.7514,585.8521,305.9539,585.6339,306.3626,585.9136,306.7414,586.1209,306.8744,586.176,306.8614,586.4635,307.0553,586.8367,307.1709,587.1775,307.3822,587.5579,307.4736,587.8887,307.5533,587.8887,307.6689,596.284,307.6973,604.6793,307.7001,613.0746,307.5585,621.4699,307.4736,629.8652,307.6164,629.9244,307.5434,630.3084,306.9586,630.4803,307.2432,631.0124,306.7965,631.2416,306.7414,631.633,306.8095,631.7974,306.3247,631.627,306.0256,631.9048,305.7753,632.3007,305.321,632.2038,304.9736,632.3652,304.9736,632.4705,294.9337,632.7039,284.8938,632.7815,274.8539,632.3613,264.814,632.6524,254.774,631.7928,244.7341,632.6496,234.6942,632.9134,224.6543,632.3652,224.711,632.5021,224.3789,632.4076,223.8856,631.9236,223.5104,631.725,223.1608,631.5881,222.8865,631.633,222.8684,631.6255,222.6796,631.2544,222.8035,631.0128,222.3934,630.5501,222.1951,630.175,222.1543,629.8652,222.2304,629.8652,221.932,621.4699,221.9813,613.0746,222.3706,604.6793,222.2995,596.284,222.1543,587.8887,222.3805,587.9824,222.2016,587.4941,222.5455,587.2223,222.7755,586.9033,222.5946,586.4142,222.8865,586.1209,222.8743,586.0914,223.2562,586.0133,223.6768,586.0287,223.9467,585.6803,224.3597,585.6776,224.6543,585.3887" style="stroke:#181818;stroke-width:0.5;"/><text fill="#000000" font-family="sans-serif" font-size="14" lengthAdjust="spacing" textLength="71.3193" x="229.1543" y="605.9238">Agent LISP</text><text fill="#000000" font-family="sans-serif" font-size="14" lengthAdjust="spacing" textLength="41.8564" x="243.8857" y="622.4121">(saito)</text></g><g class="participant participant-head" data-participant="ollama"><polygon fill="#E2E2F0" points="552.4277,33.5117,552.4277,33.7219,562.0361,33.0974,571.6445,33.705,581.2529,33.9114,590.8613,32.7983,600.4697,33.434,610.0781,33.0852,619.6865,33.1282,629.2949,33.5117,629.2862,33.4907,629.5603,33.4453,630.0727,33.9751,630.2752,33.757,630.6839,34.0366,631.0627,34.244,631.1957,34.2991,631.1827,34.5866,631.3766,34.9598,631.4922,35.3005,631.7035,35.6809,631.7949,36.0117,631.8746,36.0117,631.9902,44.407,632.0186,52.8023,632.0213,61.1977,631.8798,69.593,631.7949,77.9883,631.9377,78.0474,631.8647,78.4314,631.2799,78.6034,631.5645,79.1355,631.1178,79.3647,631.0627,79.756,631.1308,79.9204,630.646,79.75,630.3468,80.0278,630.0966,80.4238,629.6423,80.3268,629.2949,80.4883,629.2949,80.5936,619.6865,80.8269,610.0781,80.9045,600.4697,80.4844,590.8613,80.7755,581.2529,79.9159,571.6445,80.7727,562.0361,81.0365,552.4277,80.4883,552.4844,80.6252,552.1524,80.5306,551.659,80.0466,551.2839,79.8481,550.9343,79.7111,550.66,79.756,550.6418,79.7485,550.453,79.3774,550.5769,79.1359,550.1668,78.6731,549.9685,78.2981,549.9277,77.9883,550.0038,77.9883,549.7055,69.593,549.7547,61.1977,550.1441,52.8023,550.073,44.407,549.9277,36.0117,550.1539,36.1054,549.9751,35.6171,550.3189,35.3453,550.5489,35.0264,550.368,34.5372,550.66,34.244,550.6477,34.2144,551.0296,34.1363,551.4502,34.1518,551.7201,33.8033,552.1332,33.8006,552.4277,33.5117" style="stroke:#181818;stroke-width:0.5;"/><text fill="#000000" font-family="sans-serif" font-size="14" lengthAdjust="spacing" textLength="47.5029" x="567.1099" y="54.0469">Ollama</text><text fill="#000000" font-family="sans-serif" font-size="14" lengthAdjust="spacing" textLength="67.8672" x="556.9277" y="70.5352">(llama3.2)</text></g><g class="participant participant-tail" data-participant="ollama"><polygon fill="#E2E2F0" points="552.4277,585.3887,552.4277,585.5989,562.0361,584.9744,571.6445,585.582,581.2529,585.7884,590.8613,584.6753,600.4697,585.311,610.0781,584.9622,619.6865,585.0052,629.2949,585.3887,629.2862,585.3677,629.5603,585.3222,630.0727,585.8521,630.2752,585.6339,630.6839,585.9136,631.0627,586.1209,631.1957,586.176,631.1827,586.4635,631.3766,586.8367,631.4922,587.1775,631.7035,587.5579,631.7949,587.8887,631.8746,587.8887,631.9902,596.284,632.0186,604.6793,632.0213,613.0746,631.8798,621.4699,631.7949,629.8652,631.9377,629.9244,631.8647,630.3084,631.2799,630.4803,631.5645,631.0124,631.1178,631.2416,631.0627,631.633,631.1308,631.7974,630.646,631.627,630.3468,631.9048,630.0966,632.3007,629.6423,632.2038,629.2949,632.3652,629.2949,632.4705,619.6865,632.7039,610.0781,632.7815,600.4697,632.3613,590.8613,632.6524,581.2529,631.7928,571.6445,632.6496,562.0361,632.9134,552.4277,632.3652,552.4844,632.5021,552.1524,632.4076,551.659,631.9236,551.2839,631.725,550.9343,631.5881,550.66,631.633,550.6418,631.6255,550.453,631.2544,550.5769,631.0128,550.1668,630.5501,549.9685,630.175,549.9277,629.8652,550.0038,629.8652,549.7055,621.4699,549.7547,613.0746,550.1441,604.6793,550.073,596.284,549.9277,587.8887,550.1539,587.9824,549.9751,587.4941,550.3189,587.2223,550.5489,586.9033,550.368,586.4142,550.66,586.1209,550.6477,586.0914,551.0296,586.0133,551.4502,586.0287,551.7201,585.6803,552.1332,585.6776,552.4277,585.3887" style="stroke:#181818;stroke-width:0.5;"/><text fill="#000000" font-family="sans-serif" font-size="14" lengthAdjust="spacing" textLength="47.5029" x="567.1099" y="605.9238">Ollama</text><text fill="#000000" font-family="sans-serif" font-size="14" lengthAdjust="spacing" textLength="67.8672" x="556.9277" y="622.4121">(llama3.2)</text></g><g class="participant participant-head" data-participant="geocoding"><polygon fill="#E2E2F0" points="644.2949,33.5117,644.2949,33.7219,654.825,33.0974,665.355,33.705,675.8851,33.9114,686.4151,32.7983,696.9452,33.434,707.4753,33.0852,718.0053,33.1282,728.5354,33.4436,739.0654,33.5117,738.9772,33.2988,739.4896,33.8287,739.6921,33.6105,740.1009,33.8902,740.5347,34.2305,740.8332,34.244,740.8068,34.233,741.0007,34.6062,741.1163,34.947,741.3275,35.3274,741.4926,35.6887,741.5654,36.0117,741.7607,36.0117,741.7891,44.407,741.7918,52.8023,741.6503,61.1977,741.72,69.593,741.5654,77.9883,741.7817,78.0779,741.1969,78.2498,741.4815,78.7819,741.0348,79.0111,741.144,79.4706,740.8332,79.756,740.7701,79.6036,740.4709,79.8814,740.2207,80.2773,739.7663,80.1804,739.4324,80.3743,739.0654,80.4883,739.0654,80.8269,728.5354,80.9045,718.0053,80.4844,707.4753,80.7755,696.9452,79.9159,686.4151,80.7727,675.8851,81.0365,665.355,80.9328,654.825,81.1013,644.2949,80.4883,644.2333,80.3395,643.8582,80.141,643.5085,80.004,643.2268,80.0308,642.8556,79.842,642.5272,79.756,642.737,79.843,642.3269,79.3802,642.1286,79.0052,642.1581,78.7245,641.736,78.2568,641.7949,77.9883,641.6219,77.9883,642.0112,69.593,641.9401,61.1977,642.0398,52.8023,641.6877,44.407,641.7949,36.0117,641.8932,36.0524,642.1232,35.7335,641.9423,35.2444,642.2047,34.9388,642.4195,34.6136,642.5272,34.244,642.6103,34.4447,642.8802,34.0962,643.2933,34.0935,643.5172,33.6341,643.855,33.4496,644.2949,33.5117" style="stroke:#181818;stroke-width:0.5;"/><text fill="#000000" font-family="sans-serif" font-size="14" lengthAdjust="spacing" textLength="85.7705" x="648.7949" y="54.0469">Open-Meteo</text><text fill="#000000" font-family="sans-serif" font-size="14" lengthAdjust="spacing" textLength="81.6689" x="650.8457" y="70.5352">(Geocoding)</text></g><g class="participant participant-tail" data-participant="geocoding"><polygon fill="#E2E2F0" points="644.2949,585.3887,644.2949,585.5989,654.825,584.9744,665.355,585.582,675.8851,585.7884,686.4151,584.6753,696.9452,585.311,707.4753,584.9622,718.0053,585.0052,728.5354,585.3205,739.0654,585.3887,738.9772,585.1758,739.4896,585.7056,739.6921,585.4875,740.1009,585.7671,740.5347,586.1075,740.8332,586.1209,740.8068,586.11,741.0007,586.4832,741.1163,586.8239,741.3275,587.2043,741.4926,587.5656,741.5654,587.8887,741.7607,587.8887,741.7891,596.284,741.7918,604.6793,741.6503,613.0746,741.72,621.4699,741.5654,629.8652,741.7817,629.9548,741.1969,630.1268,741.4815,630.6589,741.0348,630.8881,741.144,631.3475,740.8332,631.633,740.7701,631.4806,740.4709,631.7584,740.2207,632.1543,739.7663,632.0573,739.4324,632.2512,739.0654,632.3652,739.0654,632.7039,728.5354,632.7815,718.0053,632.3613,707.4753,632.6524,696.9452,631.7928,686.4151,632.6496,675.8851,632.9134,665.355,632.8098,654.825,632.9783,644.2949,632.3652,644.2333,632.2165,643.8582,632.0179,643.5085,631.881,643.2268,631.9078,642.8556,631.7189,642.5272,631.633,642.737,631.7199,642.3269,631.2572,642.1286,630.8821,642.1581,630.6015,641.736,630.1337,641.7949,629.8652,641.6219,629.8652,642.0112,621.4699,641.9401,613.0746,642.0398,604.6793,641.6877,596.284,641.7949,587.8887,641.8932,587.9294,642.1232,587.6104,641.9423,587.1213,642.2047,586.8158,642.4195,586.4905,642.5272,586.1209,642.6103,586.3216,642.8802,585.9732,643.2933,585.9705,643.5172,585.511,643.855,585.3266,644.2949,585.3887" style="stroke:#181818;stroke-width:0.5;"/><text fill="#000000" font-family="sans-serif" font-size="14" lengthAdjust="spacing" textLength="85.7705" x="648.7949" y="605.9238">Open-Meteo</text><text fill="#000000" font-family="sans-serif" font-size="14" lengthAdjust="spacing" textLength="81.6689" x="650.8457" y="622.4121">(Geocoding)</text></g><g class="participant participant-head" data-participant="forecast"><polygon fill="#E2E2F0" points="754.0654,33.5117,754.0654,33.7219,764.5955,33.0974,775.1255,33.705,785.6556,33.9114,796.1857,32.7983,806.7157,33.434,817.2458,33.0852,827.7758,33.1282,838.3059,33.4436,848.8359,33.5117,848.7477,33.2988,849.2601,33.8287,849.4626,33.6105,849.8714,33.8902,850.3053,34.2305,850.6037,34.244,850.5773,34.233,850.7712,34.6062,850.8868,34.947,851.098,35.3274,851.2631,35.6887,851.3359,36.0117,851.5312,36.0117,851.5596,44.407,851.5624,52.8023,851.4208,61.1977,851.4905,69.593,851.3359,77.9883,851.5522,78.0779,850.9674,78.2498,851.252,78.7819,850.8053,79.0111,850.9145,79.4706,850.6037,79.756,850.5406,79.6036,850.2414,79.8814,849.9912,80.2773,849.5368,80.1804,849.2029,80.3743,848.8359,80.4883,848.8359,80.8269,838.3059,80.9045,827.7758,80.4844,817.2458,80.7755,806.7157,79.9159,796.1857,80.7727,785.6556,81.0365,775.1255,80.9328,764.5955,81.1013,754.0654,80.4883,754.0038,80.3395,753.6287,80.141,753.2791,80.004,752.9973,80.0308,752.6261,79.842,752.2977,79.756,752.5075,79.843,752.0974,79.3802,751.8991,79.0052,751.9286,78.7245,751.5065,78.2568,751.5654,77.9883,751.3924,77.9883,751.7817,69.593,751.7107,61.1977,751.8103,52.8023,751.4582,44.407,751.5654,36.0117,751.6637,36.0524,751.8937,35.7335,751.7128,35.2444,751.9752,34.9388,752.19,34.6136,752.2977,34.244,752.3808,34.4447,752.6507,34.0962,753.0638,34.0935,753.2877,33.6341,753.6255,33.4496,754.0654,33.5117" style="stroke:#181818;stroke-width:0.5;"/><text fill="#000000" font-family="sans-serif" font-size="14" lengthAdjust="spacing" textLength="85.7705" x="758.5654" y="54.0469">Open-Meteo</text><text fill="#000000" font-family="sans-serif" font-size="14" lengthAdjust="spacing" textLength="66.0146" x="768.4434" y="70.5352">(Forecast)</text></g><g class="participant participant-tail" data-participant="forecast"><polygon fill="#E2E2F0" points="754.0654,585.3887,754.0654,585.5989,764.5955,584.9744,775.1255,585.582,785.6556,585.7884,796.1857,584.6753,806.7157,585.311,817.2458,584.9622,827.7758,585.0052,838.3059,585.3205,848.8359,585.3887,848.7477,585.1758,849.2601,585.7056,849.4626,585.4875,849.8714,585.7671,850.3053,586.1075,850.6037,586.1209,850.5773,586.11,850.7712,586.4832,850.8868,586.8239,851.098,587.2043,851.2631,587.5656,851.3359,587.8887,851.5312,587.8887,851.5596,596.284,851.5624,604.6793,851.4208,613.0746,851.4905,621.4699,851.3359,629.8652,851.5522,629.9548,850.9674,630.1268,851.252,630.6589,850.8053,630.8881,850.9145,631.3475,850.6037,631.633,850.5406,631.4806,850.2414,631.7584,849.9912,632.1543,849.5368,632.0573,849.2029,632.2512,848.8359,632.3652,848.8359,632.7039,838.3059,632.7815,827.7758,632.3613,817.2458,632.6524,806.7157,631.7928,796.1857,632.6496,785.6556,632.9134,775.1255,632.8098,764.5955,632.9783,754.0654,632.3652,754.0038,632.2165,753.6287,632.0179,753.2791,631.881,752.9973,631.9078,752.6261,631.7189,752.2977,631.633,752.5075,631.7199,752.0974,631.2572,751.8991,630.8821,751.9286,630.6015,751.5065,630.1337,751.5654,629.8652,751.3924,629.8652,751.7817,621.4699,751.7107,613.0746,751.8103,604.6793,751.4582,596.284,751.5654,587.8887,751.6637,587.9294,751.8937,587.6104,751.7128,587.1213,751.9752,586.8158,752.19,586.4905,752.2977,586.1209,752.3808,586.3216,752.6507,585.9732,753.0638,585.9705,753.2877,585.511,753.6255,585.3266,754.0654,585.3887" style="stroke:#181818;stroke-width:0.5;"/><text fill="#000000" font-family="sans-serif" font-size="14" lengthAdjust="spacing" textLength="85.7705" x="758.5654" y="605.9238">Open-Meteo</text><text fill="#000000" font-family="sans-serif" font-size="14" lengthAdjust="spacing" textLength="66.0146" x="768.4434" y="622.4121">(Forecast)</text></g><g><title>Agent LISP</title></g><g><title>Agent LISP</title><polygon fill="#FFFFFF" points="264.814,254.6621,264.814,254.7322,266.814,254.524,268.814,254.7265,270.814,254.7953,272.814,254.4243,274.814,254.6621,274.7363,254.6621,274.3875,264.7823,274.4305,274.9025,274.7458,285.0227,274.1226,295.143,275.3676,305.2632,274.1837,315.3834,274.6162,325.5036,275.2459,335.6238,274.7282,345.744,274.8822,355.8642,274.782,365.9844,274.9925,376.1046,275.0531,386.2249,275.3997,396.3451,275.485,406.4653,275.4932,416.5855,275.0686,426.7057,275.2775,436.8259,275.5162,446.9461,274.0928,457.0663,275.4925,467.1866,274.5175,477.3068,275.3478,487.427,274.3189,497.5472,274.7455,507.6674,275.5556,517.7876,274.7652,527.9078,274.9193,538.028,275.1526,548.1482,275.2302,558.2685,274.814,568.3887,274.814,568.3874,272.814,568.4844,270.814,568.1979,268.814,568.4835,266.814,568.5714,264.814,568.3887,265.2585,568.3887,265.427,558.2685,264.3309,548.1482,264.1618,538.028,264.1926,527.9078,264.7551,517.7876,264.6174,507.6674,265.4954,497.5472,264.6393,487.427,264.4709,477.3068,265.0422,467.1866,264.1471,457.0663,264.2948,446.9461,265.4629,436.8259,265.2496,426.7057,265.5485,416.5855,264.4922,406.4653,265.1332,396.3451,265.4044,386.2249,264.3416,376.1046,264.7181,365.9844,264.9399,355.8642,265.4657,345.744,264.8098,335.6238,265.2765,325.5036,264.2602,315.3834,264.1367,305.2632,265.3176,295.143,264.097,285.0227,265.3229,274.9025,265.0206,264.7823,264.814,254.6621" style="stroke:#181818;stroke-width:1;"/></g><g><title>Ollama</title><polygon fill="#FFFFFF" points="585.8613,157.4199,585.8613,157.49,587.8613,157.2818,589.8613,157.4844,591.8613,157.5531,593.8613,157.1821,595.8613,157.4199,595.8354,157.4199,595.7192,166.3441,595.7335,175.2684,595.8386,184.1926,595.6309,193.1168,595.8613,202.041,595.8613,202.2256,593.8613,201.8309,591.8613,201.9751,589.8613,202.185,587.8613,202.0124,585.8613,202.041,585.8841,202.041,585.8507,193.1168,585.9208,184.1926,585.941,175.2684,586.0566,166.3441,585.8613,157.4199" style="stroke:#181818;stroke-width:1;"/></g><g><title>Ollama</title><polygon fill="#FFFFFF" points="585.8613,463.8359,585.8613,463.906,587.8613,463.6978,589.8613,463.9004,591.8613,463.9692,593.8613,463.5981,595.8613,463.8359,595.8354,463.8359,595.7192,472.7602,595.7335,481.6844,595.8386,490.6086,595.6309,499.5328,595.8613,508.457,595.8613,508.6416,593.8613,508.2469,591.8613,508.3911,589.8613,508.601,587.8613,508.4284,585.8613,508.457,585.8841,508.457,585.8507,499.5328,585.9208,490.6086,585.941,481.6844,586.0566,472.7602,585.8613,463.8359" style="stroke:#181818;stroke-width:1;"/></g><g><title>Open-Meteo</title><polygon fill="#FFFFFF" points="686.6802,288.9727,686.6802,289.0427,688.6802,288.8345,690.6802,289.0371,692.6802,289.1059,694.6802,288.7349,696.6802,288.9727,696.6543,288.9727,696.538,294.8348,696.5523,300.6969,696.6575,306.559,696.4497,312.4211,696.6802,318.2832,696.6802,318.4678,694.6802,318.0731,692.6802,318.2173,690.6802,318.4272,688.6802,318.2546,686.6802,318.2832,686.7029,318.2832,686.6695,312.4211,686.7397,306.559,686.7599,300.6969,686.8754,294.8348,686.6802,288.9727" style="stroke:#181818;stroke-width:1;"/></g><g><title>Open-Meteo</title><polygon fill="#FFFFFF" points="796.4507,347.5938,796.4507,347.6638,798.4507,347.4556,800.4507,347.6582,802.4507,347.727,804.4507,347.356,806.4507,347.5938,806.4248,347.5938,806.3085,353.4559,806.3229,359.318,806.428,365.1801,806.2202,371.0422,806.4507,376.9043,806.4507,377.0888,804.4507,376.6942,802.4507,376.8384,800.4507,377.0483,798.4507,376.8757,796.4507,376.9043,796.4734,376.9043,796.44,371.0422,796.5102,365.1801,796.5304,359.318,796.6459,353.4559,796.4507,347.5938" style="stroke:#181818;stroke-width:1;"/></g><g class="message" data-participant-1="Utilisateur" data-participant-2="agent"><polygon fill="#181818" points="247.814,124.1094,247.84,124.1744,249.7627,124.7811,251.8379,125.7692,253.8634,126.6331,255.7256,127.0886,257.814,128.1094,257.8043,128.0853,255.7612,128.7774,253.7665,129.5907,251.8055,130.4883,249.7284,131.0954,247.814,132.1094,247.9445,132.2399,248.4654,131.1608,249.3674,130.4628,250.3158,129.8112,250.9937,128.8892,251.814,128.1094,251.83,128.1255,251.0064,127.3018,250.256,126.5515,249.4703,125.7657,248.752,125.0474,247.814,124.1094" style="stroke:#181818;stroke-width:1;"/><path d="M42.6992,128.1094 L42.6992,128.3896 L52.7523,127.5569 L62.8054,128.3671 L72.8585,128.6423 L82.9116,127.1582 L92.9646,128.0058 L103.0177,127.5407 L113.0708,127.598 L123.1239,128.0185 L133.177,127.1875 L143.2301,128.8476 L153.2831,127.269 L163.3362,127.8457 L173.3893,128.6853 L183.4424,127.995 L193.4955,128.2004 L203.5485,128.0668 L213.6016,128.3474 L223.6547,128.4282 L233.7078,128.8903 L243.7609,129.0041 L253.814,128.1094" fill="none" style="stroke:#181818;stroke-width:1;"/><text fill="#000000" font-family="sans-serif" font-size="13" lengthAdjust="spacing" textLength="128.248" x="49.6992" y="108.0566">"Peux-tu me donner</text><text fill="#000000" font-family="sans-serif" font-size="13" lengthAdjust="spacing" textLength="163.5728" x="49.6992" y="123.3672">a m&#233;t&#233;o actuelle &#224; Paris ?"</text></g><g class="message" data-participant-1="agent" data-participant-2="ollama"><polygon fill="#181818" points="573.8613,153.4199,573.8873,153.485,575.81,154.0917,577.8853,155.0797,579.9108,155.9436,581.773,156.3991,583.8613,157.4199,583.8517,157.3959,581.8085,158.0879,579.8139,158.9012,577.8529,159.7988,575.7757,160.4059,573.8613,161.4199,573.9918,161.5504,574.5128,160.4714,575.4147,159.7733,576.3631,159.1217,577.0411,158.1997,577.8613,157.4199,577.8774,157.436,577.0538,156.6124,576.3034,155.862,575.5177,155.0763,574.7994,154.358,573.8613,153.4199" style="stroke:#181818;stroke-width:1;"/><path d="M269.814,157.4199 L269.814,157.7002 L279.8155,156.8675 L289.817,157.6776 L299.8185,157.9528 L309.8201,156.4687 L319.8216,157.3163 L329.8231,156.8513 L339.8247,156.9086 L349.8262,157.329 L359.8277,156.4981 L369.8292,158.1581 L379.8308,156.5795 L389.8323,157.1562 L399.8338,157.9959 L409.8354,157.3056 L419.8369,157.5109 L429.8384,157.3773 L439.8399,157.658 L449.8415,157.7388 L459.843,158.2008 L469.8445,158.3147 L479.846,158.3256 L489.8476,157.7594 L499.8491,158.038 L509.8506,158.3562 L519.8522,156.4583 L529.8537,158.3246 L539.8552,157.0246 L549.8567,158.1317 L559.8583,156.7599 L569.8598,157.3286 L579.8613,157.4199" fill="none" style="stroke:#181818;stroke-width:1;"/><text fill="#000000" font-family="sans-serif" font-size="13" lengthAdjust="spacing" textLength="141.1147" x="276.814" y="152.6777">call-ollama(messages)</text></g><g class="message" data-participant-1="ollama" data-participant-2="agent"><polygon fill="#181818" points="280.814,198.041,280.84,198.1061,278.7627,198.7128,276.8379,199.7008,274.8634,200.5647,272.7256,201.0202,270.814,202.041,270.8043,202.017,272.7612,202.709,274.7665,203.5223,276.8055,204.4199,278.7284,205.027,280.814,206.041,280.9445,206.1715,279.8654,205.0925,279.1674,204.3944,278.5158,203.7428,277.5937,202.8208,276.814,202.041,276.83,202.0571,277.6064,201.2335,278.456,200.4831,279.2703,199.6974,280.152,198.9791,280.814,198.041" style="stroke:#181818;stroke-width:1;"/><path d="M274.814,202.041 L274.814,202.3213 L284.6592,201.4886 L294.5044,202.2987 L304.3497,202.5739 L314.1949,201.0898 L324.0401,201.9374 L333.8853,201.4724 L343.7306,201.5297 L353.5758,201.9501 L363.421,201.1192 L373.2663,202.7792 L383.1115,201.2006 L392.9567,201.7773 L402.802,202.6169 L412.6472,201.9266 L422.4924,202.132 L432.3376,201.9984 L442.1829,202.2791 L452.0281,202.3599 L461.8733,202.8219 L471.7186,202.9358 L481.5638,202.9467 L491.409,202.3805 L501.2543,202.6591 L511.0995,202.9773 L520.9447,201.0794 L530.7899,202.9457 L540.6352,201.6457 L550.4804,202.7528 L560.3256,201.381 L570.1709,201.9497 L580.0161,203.0298 L589.8613,202.041" fill="none" style="stroke:#181818;stroke-width:1;stroke-dasharray:2,2;"/><text fill="#000000" font-family="sans-serif" font-size="13" lengthAdjust="spacing" textLength="139.147" x="286.814" y="181.9883">r&#233;ponse avec tool_call</text><text fill="#000000" font-family="sans-serif" font-size="13" lengthAdjust="spacing" textLength="191.2803" x="286.814" y="197.2988">("get_weather", {"city": "Paris"})</text></g><g class="message" data-participant-1="agent" data-participant-2="agent"><path d="M269.814,241.6621 L269.814,241.9424 L279.214,241.1097 L288.614,241.9198 L298.014,242.195 L307.414,240.7109 L316.814,241.6621" fill="none" style="stroke:#181818;stroke-width:1;"/><path d="M316.814,241.6621 L316.9074,241.6621 L316.6298,244.2621 L316.8999,246.8621 L316.9916,249.4621 L316.4969,252.0621 L316.814,254.6621" fill="none" style="stroke:#181818;stroke-width:1;"/><path d="M275.814,254.6621 L275.814,254.7555 L284.014,254.478 L292.214,254.748 L300.414,254.8397 L308.614,254.345 L316.814,254.6621" fill="none" style="stroke:#181818;stroke-width:1;"/><polygon fill="#181818" points="285.814,250.6621,285.84,250.7272,283.7627,251.3339,281.8379,252.3219,279.8634,253.1858,277.7256,253.6413,275.814,254.6621,275.8043,254.6381,277.7612,255.3301,279.7665,256.1434,281.8055,257.041,283.7284,257.6481,285.814,258.6621,285.9445,258.7926,284.8654,257.7136,284.1674,257.0155,283.5158,256.3639,282.5937,255.4419,281.814,254.6621,281.83,254.6782,282.6064,253.8546,283.456,253.1042,284.2703,252.3185,285.152,251.6002,285.814,250.6621" style="stroke:#181818;stroke-width:1;"/><text fill="#000000" font-family="sans-serif" font-size="13" lengthAdjust="spacing" textLength="103.4858" x="281.814" y="221.6094">handle-tool-call</text><text fill="#000000" font-family="sans-serif" font-size="13" lengthAdjust="spacing" textLength="138.4995" x="281.814" y="236.9199">(ex&#233;cute get_weather)</text></g><g class="message" data-participant-1="agent" data-participant-2="geocoding"><polygon fill="#181818" points="674.6802,284.9727,674.7062,285.0377,676.6289,285.6444,678.7041,286.6325,680.7297,287.4964,682.5919,287.9519,684.6802,288.9727,684.6706,288.9486,682.6274,289.6407,680.6327,290.454,678.6717,291.3516,676.5946,291.9587,674.6802,292.9727,674.8107,293.1032,675.3316,292.0241,676.2336,291.326,677.182,290.6745,677.86,289.7524,678.6802,288.9727,678.6963,288.9887,677.8726,288.1651,677.1223,287.4147,676.3365,286.629,675.6182,285.9107,674.6802,284.9727" style="stroke:#181818;stroke-width:1;"/><path d="M274.814,288.9727 L274.814,289.2529 L284.7131,288.4202 L294.6123,289.2304 L304.5115,289.5056 L314.4107,288.0215 L324.3098,288.869 L334.209,288.404 L344.1082,288.4613 L354.0074,288.8818 L363.9065,288.0508 L373.8057,289.7108 L383.7049,288.1323 L393.6041,288.709 L403.5033,289.5486 L413.4024,288.8583 L423.3016,289.0636 L433.2008,288.9301 L443.1,289.2107 L452.9991,289.2915 L462.8983,289.7536 L472.7975,289.8674 L482.6967,289.8783 L492.5958,289.3122 L502.495,289.5908 L512.3942,289.909 L522.2934,288.0111 L532.1925,289.8773 L542.0917,288.5773 L551.9909,289.6844 L561.8901,288.3126 L571.7892,288.8813 L581.6884,289.9615 L591.5876,288.9077 L601.4868,289.1131 L611.3859,289.4242 L621.2851,289.5276 L631.1843,288.9674 L641.0835,289.3556 L650.9826,288.2094 L660.8818,289.3518 L670.781,289.7036 L680.6802,288.9727" fill="none" style="stroke:#181818;stroke-width:1;"/><text fill="#000000" font-family="sans-serif" font-size="13" lengthAdjust="spacing" textLength="131.2314" x="281.814" y="284.2305">geocode-city("Paris")</text></g><g class="message" data-participant-1="geocoding" data-participant-2="agent"><polygon fill="#181818" points="285.814,314.2832,285.84,314.3483,283.7627,314.955,281.8379,315.943,279.8634,316.8069,277.7256,317.2624,275.814,318.2832,275.8043,318.2592,277.7612,318.9512,279.7665,319.7645,281.8055,320.6621,283.7284,321.2692,285.814,322.2832,285.9445,322.4137,284.8654,321.3346,284.1674,320.6366,283.5158,319.985,282.5937,319.063,281.814,318.2832,281.83,318.2993,282.6064,317.4757,283.456,316.7253,284.2703,315.9396,285.152,315.2213,285.814,314.2832" style="stroke:#181818;stroke-width:1;"/><path d="M279.814,318.2832 L279.814,318.5634 L289.8351,317.7308 L299.8562,318.5409 L309.8773,318.8161 L319.8985,317.332 L329.9196,318.1796 L339.9407,317.7145 L349.9619,317.7719 L359.983,318.1923 L370.0041,317.3614 L380.0252,319.0214 L390.0464,317.4428 L400.0675,318.0195 L410.0886,318.8591 L420.1097,318.1688 L430.1309,318.3742 L440.152,318.2406 L450.1731,318.5212 L460.1943,318.602 L470.2154,319.0641 L480.2365,319.1779 L490.2576,319.1889 L500.2788,318.6227 L510.2999,318.9013 L520.321,319.2195 L530.3421,317.3216 L540.3633,319.1879 L550.3844,317.8879 L560.4055,318.995 L570.4267,317.6232 L580.4478,318.1919 L590.4689,319.272 L600.49,318.2182 L610.5112,318.4236 L620.5323,318.7347 L630.5534,318.8382 L640.5745,318.278 L650.5957,318.6662 L660.6168,317.52 L670.6379,318.6624 L680.659,319.0141 L690.6802,318.2832" fill="none" style="stroke:#181818;stroke-width:1;stroke-dasharray:2,2;"/><text fill="#000000" font-family="sans-serif" font-size="13" lengthAdjust="spacing" textLength="273.8696" x="291.814" y="313.541">(lat, lon, name, country, admin1, timezone)</text></g><g class="message" data-participant-1="agent" data-participant-2="forecast"><polygon fill="#181818" points="784.4507,343.5938,784.4767,343.6588,786.3994,344.2655,788.4746,345.2536,790.5002,346.1174,792.3624,346.573,794.4507,347.5938,794.4411,347.5697,792.3979,348.2618,790.4032,349.0751,788.4422,349.9727,786.3651,350.5798,784.4507,351.5938,784.5812,351.7242,785.1021,350.6452,786.0041,349.9471,786.9525,349.2956,787.6305,348.3735,788.4507,347.5938,788.4668,347.6098,787.6432,346.7862,786.8928,346.0358,786.107,345.2501,785.3887,344.5318,784.4507,343.5938" style="stroke:#181818;stroke-width:1;"/><path d="M274.814,347.5938 L274.814,347.874 L284.7301,347.0413 L294.6461,347.8515 L304.5622,348.1267 L314.4783,346.6426 L324.3944,347.4901 L334.3105,347.0251 L344.2266,347.0824 L354.1427,347.5029 L364.0588,346.6719 L373.9749,348.3319 L383.891,346.7534 L393.8071,347.3301 L403.7231,348.1697 L413.6392,347.4794 L423.5553,347.6847 L433.4714,347.5512 L443.3875,347.8318 L453.3036,347.9126 L463.2197,348.3747 L473.1358,348.4885 L483.0519,348.4994 L492.968,347.9333 L502.8841,348.2119 L512.8001,348.5301 L522.7162,346.6322 L532.6323,348.4984 L542.5484,347.1984 L552.4645,348.3055 L562.3806,346.9337 L572.2967,347.5024 L582.2128,348.5826 L592.1289,347.5288 L602.045,347.7342 L611.9611,348.0453 L621.8771,348.1487 L631.7932,347.5885 L641.7093,347.9767 L651.6254,346.8305 L661.5415,347.9729 L671.4576,348.3247 L681.3737,348.1865 L691.2898,348.4111 L701.2059,346.9496 L711.122,346.7242 L721.038,346.7652 L730.9541,347.5152 L740.8702,347.3317 L750.7863,348.5023 L760.7024,347.3608 L770.6185,347.1363 L780.5346,347.8981 L790.4507,347.5938" fill="none" style="stroke:#181818;stroke-width:1;"/><text fill="#000000" font-family="sans-serif" font-size="13" lengthAdjust="spacing" textLength="235.6567" x="281.814" y="342.8516">http-request(forecast?lat=...&amp;lon=...)</text></g><g class="message" data-participant-1="forecast" data-participant-2="agent"><polygon fill="#181818" points="285.814,372.9043,285.84,372.9693,283.7627,373.5761,281.8379,374.5641,279.8634,375.428,277.7256,375.8835,275.814,376.9043,275.8043,376.8802,277.7612,377.5723,279.7665,378.3856,281.8055,379.2832,283.7284,379.8903,285.814,380.9043,285.9445,381.0348,284.8654,379.9557,284.1674,379.2577,283.5158,378.6061,282.5937,377.6841,281.814,376.9043,281.83,376.9204,282.6064,376.0968,283.456,375.3464,284.2703,374.5607,285.152,373.8423,285.814,372.9043" style="stroke:#181818;stroke-width:1;"/><path d="M279.814,376.9043 L279.814,377.1845 L289.8262,376.3519 L299.8385,377.162 L309.8507,377.4372 L319.8629,375.9531 L329.8752,376.8007 L339.8874,376.3356 L349.8997,376.393 L359.9119,376.8134 L369.9242,375.9825 L379.9364,377.6425 L389.9487,376.0639 L399.9609,376.6406 L409.9731,377.4802 L419.9854,376.7899 L429.9976,376.9953 L440.0099,376.8617 L450.0221,377.1423 L460.0344,377.2231 L470.0466,377.6852 L480.0589,377.799 L490.0711,377.81 L500.0833,377.2438 L510.0956,377.5224 L520.1078,377.8406 L530.1201,375.9427 L540.1323,377.809 L550.1446,376.509 L560.1568,377.616 L570.1691,376.2443 L580.1813,376.813 L590.1935,377.8931 L600.2058,376.8393 L610.218,377.0447 L620.2303,377.3558 L630.2425,377.4593 L640.2548,376.8991 L650.267,377.2872 L660.2793,376.1411 L670.2915,377.2835 L680.3037,377.6352 L690.316,377.497 L700.3282,377.7217 L710.3405,376.2602 L720.3527,376.0347 L730.365,376.0758 L740.3772,376.8258 L750.3895,376.6423 L760.4017,377.8128 L770.4139,376.6714 L780.4262,376.4469 L790.4384,377.2087 L800.4507,376.9043" fill="none" style="stroke:#181818;stroke-width:1;stroke-dasharray:2,2;"/><text fill="#000000" font-family="sans-serif" font-size="13" lengthAdjust="spacing" textLength="139.4453" x="291.814" y="372.1621">{current_weather: {...}}</text></g><g class="message" data-participant-1="agent" data-participant-2="agent"><path d="M274.814,406.2148 L274.814,406.3083 L283.214,406.0307 L291.614,406.3007 L300.014,406.3925 L308.414,405.8978 L316.814,406.2148" fill="none" style="stroke:#181818;stroke-width:1;"/><path d="M316.814,406.2148 L316.9074,406.2148 L316.6298,408.8148 L316.8999,411.4148 L316.9916,414.0148 L316.4969,416.6148 L316.814,419.2148" fill="none" style="stroke:#181818;stroke-width:1;"/><path d="M275.814,419.2148 L275.814,419.3083 L284.014,419.0307 L292.214,419.3007 L300.414,419.3925 L308.614,418.8978 L316.814,419.2148" fill="none" style="stroke:#181818;stroke-width:1;"/><polygon fill="#181818" points="285.814,415.2148,285.84,415.2799,283.7627,415.8866,281.8379,416.8747,279.8634,417.7385,277.7256,418.1941,275.814,419.2148,275.8043,419.1908,277.7612,419.8828,279.7665,420.6962,281.8055,421.5937,283.7284,422.2009,285.814,423.2148,285.9445,423.3453,284.8654,422.2663,284.1674,421.5682,283.5158,420.9167,282.5937,419.9946,281.814,419.2148,281.83,419.2309,282.6064,418.4073,283.456,417.6569,284.2703,416.8712,285.152,416.1529,285.814,415.2148" style="stroke:#181818;stroke-width:1;"/><text fill="#000000" font-family="sans-serif" font-size="13" lengthAdjust="spacing" textLength="167.7813" x="281.814" y="401.4727">formatte la r&#233;ponse m&#233;t&#233;o</text></g><g class="message" data-participant-1="agent" data-participant-2="ollama"><polygon fill="#181818" points="573.8613,459.8359,573.8873,459.901,575.81,460.5077,577.8853,461.4958,579.9108,462.3596,581.773,462.8151,583.8613,463.8359,583.8517,463.8119,581.8085,464.5039,579.8139,465.3172,577.8529,466.2148,575.7757,466.822,573.8613,467.8359,573.9918,467.9664,574.5128,466.8874,575.4147,466.1893,576.3631,465.5377,577.0411,464.6157,577.8613,463.8359,577.8774,463.852,577.0538,463.0284,576.3034,462.278,575.5177,461.4923,574.7994,460.774,573.8613,459.8359" style="stroke:#181818;stroke-width:1;"/><path d="M274.814,463.8359 L274.814,464.1162 L284.6542,463.2835 L294.4944,464.0937 L304.3347,464.3688 L314.1749,462.8847 L324.0152,463.7323 L333.8554,463.2673 L343.6956,463.3246 L353.5359,463.7451 L363.3761,462.9141 L373.2163,464.5741 L383.0566,462.9956 L392.8968,463.5722 L402.7371,464.4119 L412.5773,463.7216 L422.4175,463.9269 L432.2578,463.7933 L442.098,464.074 L451.9382,464.1548 L461.7785,464.6169 L471.6187,464.7307 L481.459,464.7416 L491.2992,464.1754 L501.1394,464.4541 L510.9797,464.7722 L520.8199,462.8744 L530.6601,464.7406 L540.5004,463.4406 L550.3406,464.5477 L560.1809,463.1759 L570.0211,463.7446 L579.8613,463.8359" fill="none" style="stroke:#181818;stroke-width:1;"/><text fill="#000000" font-family="sans-serif" font-size="13" lengthAdjust="spacing" textLength="157.2378" x="281.814" y="443.7832">envoie le r&#233;sultat du tool</text><text fill="#000000" font-family="sans-serif" font-size="13" lengthAdjust="spacing" textLength="267.9219" x="281.814" y="459.0938">(role: "tool", content: "M&#233;t&#233;o pour Paris...")</text></g><g class="message" data-participant-1="ollama" data-participant-2="agent"><polygon fill="#181818" points="285.814,504.457,285.84,504.5221,283.7627,505.1288,281.8379,506.1169,279.8634,506.9807,277.7256,507.4362,275.814,508.457,275.8043,508.433,277.7612,509.125,279.7665,509.9383,281.8055,510.8359,283.7284,511.4431,285.814,512.457,285.9445,512.5875,284.8654,511.5085,284.1674,510.8104,283.5158,510.1588,282.5937,509.2368,281.814,508.457,281.83,508.4731,282.6064,507.6495,283.456,506.8991,284.2703,506.1134,285.152,505.3951,285.814,504.457" style="stroke:#181818;stroke-width:1;"/><path d="M279.814,508.457 L279.814,508.7373 L289.8155,507.9046 L299.817,508.7147 L309.8185,508.9899 L319.8201,507.5058 L329.8216,508.3534 L339.8231,507.8884 L349.8247,507.9457 L359.8262,508.3662 L369.8277,507.5352 L379.8292,509.1952 L389.8308,507.6167 L399.8323,508.1933 L409.8338,509.033 L419.8354,508.3427 L429.8369,508.548 L439.8384,508.4144 L449.8399,508.6951 L459.8415,508.7759 L469.843,509.238 L479.8445,509.3518 L489.846,509.3627 L499.8476,508.7965 L509.8491,509.0751 L519.8506,509.3933 L529.8522,507.4955 L539.8537,509.3617 L549.8552,508.0617 L559.8567,509.1688 L569.8583,507.797 L579.8598,508.3657 L589.8613,508.457" fill="none" style="stroke:#181818;stroke-width:1;stroke-dasharray:2,2;"/><text fill="#000000" font-family="sans-serif" font-size="13" lengthAdjust="spacing" textLength="89.5654" x="291.814" y="488.4043">r&#233;ponse finale</text><text fill="#000000" font-family="sans-serif" font-size="13" lengthAdjust="spacing" textLength="287.0474" x="291.814" y="503.7148">("M&#233;t&#233;o pour Paris : 15.5&#176;C, vent 10 km/h...")</text></g><g class="message" data-participant-1="agent" data-participant-2="Utilisateur"><polygon fill="#181818" points="53.6992,564.3887,53.7252,564.4537,51.6479,565.0604,49.7231,566.0485,47.7487,566.9124,45.6109,567.3679,43.6992,568.3887,43.6896,568.3646,45.6464,569.0567,47.6517,569.87,49.6908,570.7676,51.6136,571.3747,53.6992,572.3887,53.8297,572.5192,52.7507,571.4401,52.0526,570.7421,51.401,570.0905,50.479,569.1685,49.6992,568.3887,49.7153,568.4048,50.4917,567.5811,51.3413,566.8308,52.1556,566.045,53.0373,565.3267,53.6992,564.3887" style="stroke:#181818;stroke-width:1;"/><path d="M47.6992,568.3887 L47.6992,568.6689 L57.7523,567.8362 L67.8054,568.6464 L77.8585,568.9216 L87.9116,567.4375 L97.9646,568.2851 L108.0177,567.82 L118.0708,567.8773 L128.1239,568.2978 L138.177,567.4668 L148.2301,569.1269 L158.2831,567.5483 L168.3362,568.125 L178.3893,568.9646 L188.4424,568.2743 L198.4955,568.4797 L208.5485,568.3461 L218.6016,568.6267 L228.6547,568.7075 L238.7078,569.1696 L248.7609,569.2834 L258.814,568.3887" fill="none" style="stroke:#181818;stroke-width:1;stroke-dasharray:2,2;"/><text fill="#000000" font-family="sans-serif" font-size="13" lengthAdjust="spacing" textLength="171.0947" x="59.6992" y="533.0254">"M&#233;t&#233;o pour Paris : 15.5&#176;C,</text><text fill="#000000" font-family="sans-serif" font-size="13" lengthAdjust="spacing" textLength="193.1147" x="59.6992" y="548.3359">vent 10 km/h (direction 180&#176;),</text><text fill="#000000" font-family="sans-serif" font-size="13" lengthAdjust="spacing" textLength="94.9546" x="59.6992" y="563.6465">code m&#233;t&#233;o 3."</text></g><!--SRC=[bLJ1Qjj04BthAwPxA398QjmGA8Osb49BeQ66afiXBDB4NhhQLLSZ9sdml_JgMxuX-h7EIhAqSTf2VPcTzSoRDpDlzS9MfAo1ZJJ5ZLD4Q81SWr4aSx8EBabfLKl2naMLTAHoLKb38DwlaSsNpz-MAnFNKf6T2P0rI7__DFIhrhAK7DRPq-nr7saxzoYqGfDU8A7by4zeSriei-xZrmVt7oaVhSDSrjHdN0zU50LjGFgk9xa0iSJcDgK6IeJ26eDkfIMKxPxQlGKUG8DQ8xI_O2cTgk5S-AceBUCCVKQTyP1zDml8fTPfxyGbrZK7rBCfRMYwDv1EN5oxhwof6NYBEP2r-if3SKzYZNHrWv8sw4G2zo9NT2SyUqzAx6PHWSVu4wy1tkzNO-fnqm4NRzjztd1EW3yxRd346QU_68wOUXxnm298dFOqdi96Ooqf0MrD0aQMc41k6qFkBW5PbChC4o1Luazhy4bZ4-h4wR1VRe-eIXt-QB2c-71zpfNUPbdsaejv6t0SbN4uX0plyyOvFXs6mZUSlTk5T2Pf7K-Q_oabloDWAOrB7JJrN2vejbPnBFhOkj4a2Ogcsp-lo5cDl6Zl2JyeGxrkBmQ9LfRrt2s02Oh_ajcrCbAZbzTpC5Z0_2mxUtpuaC3M4vwVmFVorQOlydUrSPdWeVsHPm2zCY4sn8NYaNOVe_cRayU76GTucOtlyJGJOUrUdp3yVWC0]--></g></svg>