<svg xmlns="http://www.w3.org/2000/svg" xmlns:xlink="http://www.w3.org/1999/xlink" contentStyleType="text/css" data-diagram-type="DESCRIPTION" height="534px" preserveAspectRatio="none" style="width:376px;height:534px;background:#FFFFFF;" version="1.1" viewBox="0 0 376 534" width="376px" zoomAndPan="magnify"><defs/><g><!--cluster Agent--><g class="cluster" data-entity="Agent" data-source-line="2" data-uid="ent0002" id="cluster_Agent"><rect fill="none" height="260.71" rx="2.5" ry="2.5" style="stroke:#181818;stroke-width:1;" width="171" x="22.2" y="47.2422"/><text fill="#000000" font-family="sans-serif" font-size="14" font-weight="bold" lengthAdjust="spacing" textLength="42.6152" x="86.3924" y="62.7773">Agent</text></g><!--entity ToolAgent--><g class="entity" data-entity="ToolAgent" data-source-line="3" data-uid="ent0003" id="entity_ToolAgent"><rect fill="#90EE90" height="52.9766" rx="2.5" ry="2.5" style="stroke:#181818;stroke-width:0.5;" width="96.501" x="45.95" y="109.2422"/><text fill="#000000" font-family="sans-serif" font-size="14" lengthAdjust="spacing" textLength="76.501" x="55.95" y="132.7773">Tool-Using</text><text fill="#000000" font-family="sans-serif" font-size="14" lengthAdjust="spacing" textLength="40.1133" x="55.95" y="149.2656">Agent</text></g><!--entity Tools--><g class="entity" data-entity="Tools" data-source-line="4" data-uid="ent0004" id="entity_Tools"><rect fill="#FFFFE0" height="36.4883" rx="2.5" ry="2.5" style="stroke:#181818;stroke-width:0.5;" width="57.2354" x="52.58" y="247.4722"/><text fill="#000000" font-family="sans-serif" font-size="14" lengthAdjust="spacing" textLength="37.2354" x="62.58" y="271.0073">Tools</text></g><!--entity OLLAMA--><g class="entity" data-entity="OLLAMA" data-source-line="11" data-uid="ent0006" id="entity_OLLAMA"><rect fill="#ADD8E6" height="36.4883" rx="2.5" ry="2.5" style="stroke:#181818;stroke-width:0.5;" width="77.1826" x="251.61" y="117.4922"/><text fill="#000000" font-family="sans-serif" font-size="14" lengthAdjust="spacing" textLength="57.1826" x="261.61" y="141.0273">OLLAMA</text></g><!--entity ExtLeft--><g class="entity" data-entity="ExtLeft" data-source-line="12" data-uid="ent0007" id="entity_ExtLeft"><rect fill="#FFC0CB" height="36.4883" rx="2.5" ry="2.5" style="stroke:#181818;stroke-width:0.5;" width="108.4023" x="7" y="378.9522"/><text fill="#000000" font-family="sans-serif" font-size="14" lengthAdjust="spacing" textLength="88.4023" x="17" y="402.4873">External APIs</text></g><!--entity ExtRight--><g class="entity" data-entity="ExtRight" data-source-line="13" data-uid="ent0008" id="entity_ExtRight"><rect fill="#FFC0CB" height="36.4883" rx="2.5" ry="2.5" style="stroke:#181818;stroke-width:0.5;" width="108.4023" x="108" y="492.4422"/><text fill="#000000" font-family="sans-serif" font-size="14" lengthAdjust="spacing" textLength="88.4023" x="118" y="515.9773">External APIs</text></g><!--entity ToolConf--><g class="entity" data-entity="ToolConf" data-source-line="15" data-uid="ent0009" id="entity_ToolConf"><rect fill="#F1F1F1" height="52.9766" rx="2.5" ry="2.5" style="stroke:#181818;stroke-width:0.5;" width="113.6182" x="256.39" y="239.2222"/><text fill="#000000" font-family="sans-serif" font-size="14" lengthAdjust="spacing" textLength="30.0986" x="266.39" y="262.7573">Tool</text><text fill="#000000" font-family="sans-serif" font-size="14" lengthAdjust="spacing" textLength="93.6182" x="266.39" y="279.2456">Configuration</text></g><!--entity DirectCall--><g class="entity" data-entity="DirectCall" data-source-line="16" data-uid="ent0010" id="entity_DirectCall"><rect fill="#F1F1F1" height="36.4883" rx="2.5" ry="2.5" style="stroke:#181818;stroke-width:0.5;" width="90.4102" x="157.99" y="378.9522"/><text fill="#000000" font-family="sans-serif" font-size="14" lengthAdjust="spacing" textLength="70.4102" x="167.99" y="402.4873">Direct Call</text></g><!--link ToolAgent to Tools--><g class="link" data-entity-1="ToolAgent" data-entity-2="Tools" data-source-line="7" data-uid="lnk5" id="link_ToolAgent_Tools"><path d="M91.57,162.6322 C89.02,187.7622 85.8159,219.2329 83.5959,241.1029" fill="none" id="ToolAgent-to-Tools" style="stroke:#006400;stroke-width:1;"/><polygon fill="#006400" points="82.99,247.0722,87.8785,238.5222,83.4949,242.0978,79.9194,237.7142,82.99,247.0722" style="stroke:#006400;stroke-width:1;"/><text fill="#000000" font-family="sans-serif" font-size="13" lengthAdjust="spacing" textLength="78.9141" x="89.48" y="205.7905">user request</text></g><!--link Agent to OLLAMA--><!--link Agent to ToolConf--><!--link Agent to DirectCall--><!--link OLLAMA to ToolConf--><!--link ToolConf to DirectCall--><!--link DirectCall to ExtRight--><!--link Tools to ExtLeft--><!--link Tools to ExtLeft--><g class="link" data-entity-1="Tools" data-entity-2="ExtLeft" data-source-line="34" data-uid="lnk24" id="link_Tools_ExtLeft"><path d="M78.46,284.4422 C74.63,309.2422 68.6354,348.0724 64.8254,372.7524" fill="none" id="Tools-to-ExtLeft" style="stroke:#FFA500;stroke-width:1;"/><polygon fill="#FFA500" points="63.91,378.6822,69.2363,370.3978,64.6728,373.7407,61.3299,369.1773,63.91,378.6822" style="stroke:#FFA500;stroke-width:1;"/><text fill="#000000" font-family="sans-serif" font-size="13" lengthAdjust="spacing" textLength="61.4897" x="71.6" y="345.5205">direct call</text></g><!--link ExtLeft to ExtRight--><!--reverse link ExtLeft to ExtRight--><g class="link" data-entity-1="ExtLeft" data-entity-2="ExtRight" data-source-line="35" data-uid="lnk26" id="link_ExtLeft_ExtRight"><path d="M49.545,421.1964 C43.635,434.9764 41,448.5822 50.2,462.4422 C63.15,481.9622 85.93,493.4422 107.57,500.1722" fill="none" id="ExtLeft-backto-ExtRight" style="stroke:#181818;stroke-width:1;"/><polygon fill="#181818" points="51.91,415.6822,44.6864,422.3769,49.9392,420.2774,52.0387,425.5302,51.91,415.6822" style="stroke:#181818;stroke-width:1;"/><text fill="#000000" font-family="sans-serif" font-size="13" lengthAdjust="spacing" textLength="84.8364" x="51.2" y="459.0105">HTTP request</text></g><!--link ToolAgent to OLLAMA--><g class="link" data-entity-1="ToolAgent" data-entity-2="OLLAMA" data-source-line="29" data-uid="lnk19" id="link_ToolAgent_OLLAMA"><path d="M100.42,109.1822 C107.35,86.2122 121.07,54.4022 146.2,39.4122 C167.19,26.8922 178.81,29.6122 201.2,39.4122 C237.49,55.2922 262.4301,88.9694 276.6901,112.1894" fill="none" id="ToolAgent-to-OLLAMA" style="stroke:#006400;stroke-width:1;"/><polygon fill="#006400" points="279.83,117.3022,278.5287,107.5397,277.2134,113.0415,271.7116,111.7262,279.83,117.3022" style="stroke:#006400;stroke-width:1;"/><text fill="#000000" font-family="sans-serif" font-size="13" lengthAdjust="spacing" textLength="50.0576" x="200.2" y="19.8105">tool call</text></g><!--reverse link ToolAgent to OLLAMA--><g class="link" data-entity-1="ToolAgent" data-entity-2="OLLAMA" data-source-line="30" data-uid="lnk21" id="link_ToolAgent_OLLAMA"><path d="M102.153,103.4379 C109.083,80.4679 121.07,54.4022 146.2,39.4122 C167.19,26.8922 178.81,29.6122 201.2,39.4122 C237.49,55.2922 265.57,94.0822 279.83,117.3022" fill="none" id="ToolAgent-backto-OLLAMA" style="stroke:#00008B;stroke-width:1;"/><polygon fill="#00008B" points="100.42,109.1822,106.8491,101.7211,101.8642,104.3953,99.19,99.4104,100.42,109.1822" style="stroke:#00008B;stroke-width:1;"/><text fill="#000000" font-family="sans-serif" font-size="13" lengthAdjust="spacing" textLength="50.0576" x="200.2" y="19.8105">tool call</text></g><!--link ToolConf to Tools--><g class="link" data-entity-1="ToolConf" data-entity-2="Tools" data-source-line="31" data-uid="lnk22" id="link_ToolConf_Tools"><path d="M256.11,265.7122 C207.47,265.7122 164.84,265.7122 116.2,265.7122" fill="none" id="ToolConf-to-Tools" style="stroke:#181818;stroke-width:1;"/><polygon fill="#181818" points="110.2,265.7122,119.2,269.7122,115.2,265.7122,119.2,261.7122,110.2,265.7122" style="stroke:#181818;stroke-width:1;"/></g><!--link DirectCall to Tools--><g class="link" data-entity-1="DirectCall" data-entity-2="Tools" data-source-line="32" data-uid="lnk23" id="link_DirectCall_Tools"><path d="M186.69,378.6822 C163.44,354.0022 125.3839,313.6097 102.0239,288.8097" fill="none" id="DirectCall-to-Tools" style="stroke:#181818;stroke-width:1;"/><polygon fill="#181818" points="97.91,284.4422,101.1692,293.7361,101.3383,288.0818,106.9926,288.2509,97.91,284.4422" style="stroke:#181818;stroke-width:1;"/></g><!--SRC=[XLDBRi8m5Dpx54-mO9KBiAWKeBILKX5LT5515r5YWeMngUq8fAhtAUVWOlKlZWcjkhFVcpTvCvu8NAg2rHJ38AqnKmCe9DWJV280qRMNdDFaLH9Mhra7DLK77sQatge7WJ6x7PG1B3tm3LFAZqX3Hp2db-zoYoKGfh1WMEfgHvnK_CXMmraXTfRzFRdpJ6De91RwMnyDbWfzQROH94a24yfB2VZas4m9HGijiYnzJkr6xkXNcj06nxXxErzGIFCd9q1NChpHMdF2Tlz2NmofnwAU8MisvMn3waOKYd0Mx37L63iZvWBJWbABSNTp3M9pBedXO7Xlx2eE1y5FPAzvDrQvTt6r9LMbtHDcgyGh_wCPDlcz7ItX3Gm8yrRHV7le0oA6xjW7jHOYzzgtNVCMg7sJ_f9X6ZcRvfGhdGcc18RBcLxEnYsNZIXhThWNDgzn34hZe8nbK_rbXpRXQPFfk69yvuFRpYVuIlnrfnNjmhyGEW-MlvKxXif5m_A7jDcDhc2FosKUVf4V]--></g></svg>