<svg xmlns="http://www.w3.org/2000/svg" xmlns:xlink="http://www.w3.org/1999/xlink" contentStyleType="text/css" data-diagram-type="DESCRIPTION" height="534px" preserveAspectRatio="none" style="width:376px;height:534px;background:#FFFFFF;" version="1.1" viewBox="0 0 376 534" width="376px" zoomAndPan="magnify"><defs/><g><!--cluster Agent--><g class="cluster" data-entity="Agent" data-source-line="3" data-uid="ent0002" id="cluster_Agent"><polygon fill="none" points="24.7,47.2422,24.7,47.4524,34.4647,46.8279,44.2294,47.4355,53.9941,47.6419,63.7588,46.5288,73.5235,47.1645,83.2882,46.8157,93.0529,46.8587,102.8176,47.174,112.5824,46.5508,122.3471,47.7958,132.1118,46.6119,141.8765,47.0444,151.6412,47.6741,161.4059,47.1564,171.1706,47.3104,180.9353,47.2102,190.7,47.2422,190.7228,47.2972,191.0841,47.4623,191.4818,47.7154,191.8463,47.8882,192.2009,48.0372,192.4678,47.9744,192.5462,48.0069,192.757,48.3871,192.9769,48.7711,192.685,48.9431,193.2625,49.4752,193.2,49.7422,192.9035,49.7422,193.7338,59.5772,192.705,69.4122,193.1315,79.2472,193.9416,89.0822,193.1513,98.9172,193.3053,108.7522,193.5386,118.5872,193.6162,128.4222,193.1961,138.2572,193.4872,148.0922,192.6276,157.9272,193.4844,167.7622,193.7482,177.5972,193.6445,187.4322,193.813,197.2672,192.7169,207.1022,192.5478,216.9372,192.5786,226.7722,193.1411,236.6072,193.0035,246.4422,193.8814,256.2772,193.0253,266.1122,192.8569,275.9472,193.4283,285.7822,192.5332,295.6172,193.2,305.4522,193.0401,305.386,193.2534,305.8885,193.0413,306.2149,192.9869,306.6065,192.5151,306.8254,192.4678,307.22,192.5085,307.3183,192.1895,307.5482,191.7004,307.3674,191.3949,307.6298,191.0696,307.8445,190.7,307.9522,190.7,308.6039,180.9353,307.948,171.1706,308.4148,161.4059,307.3984,151.6412,307.2749,141.8765,308.4558,132.1118,307.2352,122.3471,308.4611,112.5824,308.1588,102.8176,307.6843,93.0529,307.5984,83.2882,308.4109,73.5235,307.6529,63.7588,308.544,53.9941,307.3994,44.2294,308.5696,34.4647,308.4365,24.7,307.9522,24.7312,308.0276,24.3525,307.8203,24.0856,307.8831,23.7176,307.7018,23.3074,307.4185,22.9322,307.22,23.0148,307.2542,22.7457,306.8498,22.86,306.6042,22.5406,306.179,22.3996,305.8278,22.2,305.4522,21.5916,305.4522,21.7948,295.6172,22.7307,285.7822,22.6298,275.9472,22.1571,266.1122,21.8778,256.2772,21.9811,246.4422,21.5138,236.6072,22.6147,226.7722,22.9396,216.9372,22.7264,207.1022,22.8949,197.2672,22.0633,187.4322,22.2872,177.5972,21.8124,167.7622,22.484,157.9272,22.4468,148.0922,22.7524,138.2572,21.9703,128.4222,22.0656,118.5872,22.6435,108.7522,22.7673,98.9172,21.6875,89.0822,22.0061,79.2472,22.3493,69.4122,21.5892,59.5772,22.2,49.7422,22.3088,49.7873,22.4259,49.4215,22.4619,49.0222,22.6831,48.6997,23.0102,48.4209,22.9322,47.9744,22.8923,47.8781,23.326,47.925,23.6758,47.7695,24.0077,47.5707,24.3644,47.432,24.7,47.2422" style="stroke:#181818;stroke-width:1;"/><text fill="#000000" font-family="sans-serif" font-size="14" font-weight="bold" lengthAdjust="spacing" textLength="42.6152" x="86.3924" y="62.7773">Agent</text></g><!--entity ToolAgent--><g class="entity" data-entity="ToolAgent" data-source-line="4" data-uid="ent0003" id="entity_ToolAgent"><polygon fill="#90EE90" points="48.45,109.2422,48.45,109.4524,58.6168,108.8279,68.7836,109.4355,78.9503,109.6419,89.1171,108.5288,99.2839,109.1645,109.4507,108.8157,119.6174,108.8587,129.7842,109.174,139.951,109.2422,139.8628,109.0293,140.3752,109.5591,140.5777,109.341,140.9864,109.6206,141.4203,109.961,141.7187,109.9744,141.6923,109.9635,141.8862,110.3367,142.0018,110.6775,142.2131,111.0579,142.3782,111.4191,142.451,111.7422,143.0367,111.7422,143.122,121.3375,143.1302,130.9328,142.7056,140.5281,142.9146,150.1234,142.451,159.7188,142.6672,159.8083,142.0824,159.9803,142.367,160.5124,141.9203,160.7416,142.0296,161.2011,141.7187,161.4865,141.6556,161.3341,141.3565,161.6119,141.1062,162.0078,140.6519,161.9108,140.318,162.1047,139.951,162.2188,139.951,162.5574,129.7842,162.635,119.6174,162.2148,109.4507,162.506,99.2839,161.6463,89.1171,162.5031,78.9503,162.7669,68.7836,162.6633,58.6168,162.8318,48.45,162.2188,48.3884,162.07,48.0133,161.8715,47.6636,161.7345,47.3818,161.7613,47.0107,161.5724,46.6822,161.4865,46.8921,161.5734,46.482,161.1107,46.2837,160.7356,46.3132,160.455,45.8911,159.9872,45.95,159.7188,45.4309,159.7188,46.599,150.1234,46.3857,140.5281,46.6845,130.9328,45.6282,121.3375,45.95,111.7422,46.0483,111.7829,46.2783,111.4639,46.0974,110.9748,46.3598,110.6693,46.5746,110.344,46.6822,109.9744,46.7654,110.1751,47.0353,109.8267,47.4483,109.824,47.6723,109.3645,48.0101,109.1801,48.45,109.2422" style="stroke:#181818;stroke-width:0.5;"/><text fill="#000000" font-family="sans-serif" font-size="14" lengthAdjust="spacing" textLength="76.501" x="55.95" y="132.7773">Tool-Using</text><text fill="#000000" font-family="sans-serif" font-size="14" lengthAdjust="spacing" textLength="40.1133" x="55.95" y="149.2656">Agent</text></g><!--entity Tools--><g class="entity" data-entity="Tools" data-source-line="5" data-uid="ent0004" id="entity_Tools"><polygon fill="#FFFFE0" points="55.08,247.4722,55.08,247.6824,65.5271,247.0579,75.9741,247.6655,86.4212,247.8719,96.8683,246.7588,107.3154,247.4722,107.3054,247.4483,107.6145,247.4873,107.9735,247.647,108.3673,247.8905,108.6414,247.8451,109.0831,248.2044,109.2536,248.275,109.0355,248.4776,109.3151,248.8863,109.6555,249.3202,109.6425,249.6077,109.8154,249.9722,109.8381,249.9722,109.8047,256.2698,109.8749,262.5675,109.8951,268.8652,110.0106,275.1628,109.8154,281.4605,110.022,281.5461,109.8781,281.9007,109.6009,282.2001,109.5188,282.5803,109.4458,282.9643,109.0831,283.2282,108.9911,283.0061,108.8161,283.5836,108.3382,283.4298,108.0906,283.832,107.6058,283.6616,107.3154,283.9605,107.3154,283.892,96.8683,284.7021,86.4212,283.9117,75.9741,284.0658,65.5271,284.2991,55.08,283.9605,55.1331,284.0887,54.7259,283.8128,54.4095,283.756,53.9463,283.3448,53.7021,283.4623,53.3122,283.2282,53.4811,283.2982,53.3027,282.9314,53.2081,282.5993,52.7241,282.106,52.5256,281.7308,52.58,281.4605,52.3729,281.4605,52.5604,275.1628,52.5145,268.8652,52.8071,262.5675,52.5218,256.2698,52.58,249.9722,52.4744,249.9284,52.7967,249.6478,52.6675,249.18,52.8595,248.8453,53.3656,248.6408,53.3122,248.2044,53.3678,248.3386,53.7595,248.2842,53.9783,247.8124,54.4136,247.8634,54.8018,247.8005,55.08,247.4722" style="stroke:#181818;stroke-width:0.5;"/><text fill="#000000" font-family="sans-serif" font-size="14" lengthAdjust="spacing" textLength="37.2354" x="62.58" y="271.0073">Tools</text></g><!--entity OLLAMA--><g class="entity" data-entity="OLLAMA" data-source-line="12" data-uid="ent0006" id="entity_OLLAMA"><polygon fill="#ADD8E6" points="254.11,117.4922,254.11,117.7024,264.4218,117.0779,274.7336,117.6855,285.0454,117.8919,295.3572,116.7788,305.669,117.4145,315.9808,117.0657,326.2926,117.4922,326.2437,117.3741,326.6375,117.6176,326.9115,117.5722,327.4239,118.102,327.6264,117.8839,328.0604,118.2244,327.9995,118.1992,328.3399,118.6331,328.3269,118.9206,328.5207,119.2938,328.6363,119.6346,328.7926,119.9922,328.8521,119.9922,328.8723,126.2898,328.9878,132.5875,329.0163,138.8852,329.019,145.1828,328.7926,151.4805,328.871,151.5129,328.7889,151.8932,328.716,152.2772,328.1312,152.4491,328.4158,152.9812,328.0604,153.2482,328.0226,153.1569,327.7749,153.5591,327.2901,153.3887,326.991,153.6665,326.7408,154.0624,326.2926,153.9805,326.2926,153.9317,315.9808,154.0858,305.669,154.3191,295.3572,154.3967,285.0454,153.9766,274.7336,154.2677,264.4218,153.4081,254.11,153.9805,254.1463,154.068,253.8264,154.0028,253.4596,153.8245,253.1275,153.7299,252.6342,153.2459,252.3422,153.2482,252.1414,153.165,252.0044,152.8154,252.0312,152.5336,251.8424,152.1625,251.9663,151.9209,251.61,151.4805,251.5518,151.4805,251.4956,145.1828,251.6861,138.8852,251.3877,132.5875,251.437,126.2898,251.61,119.9922,251.8099,120.075,251.8906,119.6942,252.1291,119.3788,251.9502,118.8905,252.2941,118.6187,252.3422,118.2244,252.4175,118.4062,252.6355,117.9325,253.0371,117.902,253.419,117.8239,253.8396,117.8393,254.11,117.4922" style="stroke:#181818;stroke-width:0.5;"/><text fill="#000000" font-family="sans-serif" font-size="14" lengthAdjust="spacing" textLength="57.1826" x="261.61" y="141.0273">OLLAMA</text></g><!--entity ExtLeft--><g class="entity" data-entity="ExtLeft" data-source-line="13" data-uid="ent0007" id="entity_ExtLeft"><polygon fill="#FFC0CB" points="9.5,378.9522,9.5,379.1624,19.8402,378.5379,30.1805,379.1455,40.5207,379.3519,50.8609,378.2388,61.2012,378.8745,71.5414,378.5257,81.8816,378.5687,92.2219,378.884,102.5621,378.2608,112.9023,378.9522,112.973,379.1227,113.1755,378.9045,113.5842,379.1842,114.0181,379.5245,114.3056,379.5116,114.6701,379.6844,114.6911,379.6931,114.8067,380.0339,115.018,380.4143,115.1831,380.7756,115.4363,381.1733,115.4023,381.4522,115.626,381.4522,115.6288,387.7498,115.4872,394.0475,115.5569,400.3452,115.6364,406.6428,115.4023,412.9405,115.1802,412.8485,115.4649,413.3806,115.0181,413.6098,115.1274,414.0692,114.6641,414.2915,114.6701,414.7082,114.6614,414.6871,114.4112,415.0831,113.9568,414.9861,113.6229,415.18,113.2991,415.3983,112.9023,415.4405,112.9023,415.8567,102.5621,415.4366,92.2219,415.7277,81.8816,414.8681,71.5414,415.7249,61.2012,415.9887,50.8609,415.885,40.5207,416.0535,30.1805,414.9574,19.8402,414.7883,9.5,415.4405,9.4207,415.2491,9.1389,415.2759,8.7678,415.0871,8.5263,415.211,8.0635,414.8009,7.7322,414.7082,7.6266,414.6645,7.6561,414.3838,7.234,413.9161,7.133,413.5814,7.3463,413.3768,7,412.9405,7.1452,412.9405,7.2448,406.6428,6.8927,400.3452,7.1064,394.0475,7.1968,387.7498,7,381.4522,6.8545,381.3919,7.1169,381.0864,7.3317,380.7612,7.6401,380.4747,7.5845,380.0374,7.7322,379.6844,7.7912,379.8269,8.0151,379.3674,8.3529,379.183,8.8571,379.4002,9.055,378.8778,9.5,378.9522" style="stroke:#181818;stroke-width:0.5;"/><text fill="#000000" font-family="sans-serif" font-size="14" lengthAdjust="spacing" textLength="88.4023" x="17" y="402.4873">External APIs</text></g><!--entity ExtRight--><g class="entity" data-entity="ExtRight" data-source-line="14" data-uid="ent0008" id="entity_ExtRight"><polygon fill="#FFC0CB" points="110.5,492.4422,110.5,492.6524,120.8402,492.0279,131.1805,492.6355,141.5207,492.8419,151.8609,491.7288,162.2012,492.3645,172.5414,492.0157,182.8816,492.0587,193.2219,492.374,203.5621,491.7508,213.9023,492.4422,213.973,492.6127,214.1755,492.3945,214.5842,492.6742,215.0181,493.0145,215.3056,493.0016,215.6701,493.1744,215.6911,493.1831,215.8067,493.5239,216.018,493.9043,216.1831,494.2656,216.4363,494.6633,216.4023,494.9422,216.626,494.9422,216.6288,501.2398,216.4872,507.5375,216.5569,513.8352,216.6364,520.1328,216.4023,526.4305,216.1802,526.3385,216.4649,526.8706,216.0181,527.0998,216.1274,527.5592,215.6641,527.7815,215.6701,528.1982,215.6614,528.1771,215.4112,528.5731,214.9568,528.4761,214.6229,528.67,214.2991,528.8883,213.9023,528.9305,213.9023,529.3467,203.5621,528.9266,193.2219,529.2177,182.8816,528.3581,172.5414,529.2149,162.2012,529.4787,151.8609,529.375,141.5207,529.5435,131.1805,528.4474,120.8402,528.2783,110.5,528.9305,110.4207,528.7391,110.1389,528.7659,109.7678,528.5771,109.5263,528.701,109.0635,528.2909,108.7322,528.1982,108.6266,528.1545,108.6561,527.8738,108.234,527.4061,108.133,527.0714,108.3463,526.8668,108,526.4305,108.1452,526.4305,108.2448,520.1328,107.8927,513.8352,108.1064,507.5375,108.1968,501.2398,108,494.9422,107.8545,494.8819,108.1169,494.5764,108.3317,494.2512,108.6401,493.9647,108.5845,493.5274,108.7322,493.1744,108.7912,493.3169,109.0151,492.8574,109.3529,492.673,109.8571,492.8902,110.055,492.3678,110.5,492.4422" style="stroke:#181818;stroke-width:0.5;"/><text fill="#000000" font-family="sans-serif" font-size="14" lengthAdjust="spacing" textLength="88.4023" x="118" y="515.9773">External APIs</text></g><!--entity ToolConf--><g class="entity" data-entity="ToolConf" data-source-line="16" data-uid="ent0009" id="entity_ToolConf"><polygon fill="#F1F1F1" points="258.89,239.2222,258.89,239.4324,268.7644,238.8079,278.6388,239.4155,288.5131,239.6219,298.3875,238.5088,308.2619,239.1445,318.1363,238.7957,328.0106,238.8387,337.885,239.154,347.7594,238.5308,357.6338,239.7758,367.5082,239.2222,367.4278,239.0281,367.8365,239.3077,368.2704,239.6481,368.5579,239.6351,368.9311,239.829,369.2759,239.9544,369.2661,239.9503,369.4774,240.3307,369.6425,240.692,369.8956,241.0898,370.0684,241.4542,370.0082,241.7222,370.6874,241.7222,370.2628,251.3175,370.4717,260.9128,370.7104,270.5081,369.287,280.1034,370.0082,289.6988,370.2171,289.7853,369.7704,290.0145,369.8797,290.474,369.4164,290.6963,369.4013,291.1042,369.2759,291.4665,369.3705,291.6949,368.9162,291.598,368.5823,291.7918,368.2585,292.0101,367.9148,292.1805,367.5082,292.1988,367.5082,292.1948,357.6338,292.486,347.7594,291.6263,337.885,292.4831,328.0106,292.7469,318.1363,292.6433,308.2619,292.8118,298.3875,291.7157,288.5131,291.5466,278.6388,291.5773,268.7644,292.1399,258.89,292.1988,258.8649,292.1382,258.6234,292.2622,258.1606,291.8521,257.7856,291.6538,257.5049,291.6833,257.1222,291.4665,256.9169,291.3815,256.8159,291.0467,257.0292,290.8422,256.8171,290.4614,256.7626,290.146,256.39,289.6988,256.0682,289.6988,256.7092,280.1034,256.9804,270.5081,255.9176,260.9128,256.2941,251.3175,256.39,241.7222,256.4288,241.7383,256.7372,241.4518,256.6816,241.0145,256.9718,240.7205,256.8052,240.2373,257.1222,239.9544,257.0358,239.7459,257.54,239.9631,257.7379,239.4407,258.2478,239.6718,258.5628,239.4323,258.89,239.2222" style="stroke:#181818;stroke-width:0.5;"/><text fill="#000000" font-family="sans-serif" font-size="14" lengthAdjust="spacing" textLength="30.0986" x="266.39" y="262.7573">Tool</text><text fill="#000000" font-family="sans-serif" font-size="14" lengthAdjust="spacing" textLength="93.6182" x="266.39" y="279.2456">Configuration</text></g><!--entity DirectCall--><g class="entity" data-entity="DirectCall" data-source-line="17" data-uid="ent0010" id="entity_DirectCall"><polygon fill="#F1F1F1" points="160.49,378.9522,160.49,379.1624,169.98,378.5379,179.47,379.1455,188.9601,379.3519,198.4501,378.2388,207.9401,378.8745,217.4301,378.5257,226.9201,378.5687,236.4101,378.884,245.9002,378.9522,245.812,378.7393,246.3243,379.2691,246.5269,379.051,246.9356,379.3306,247.3695,379.671,247.6679,379.6844,247.6415,379.6735,247.8354,380.0467,247.951,380.3875,248.1622,380.7679,248.3274,381.1291,248.4002,381.4522,248.5954,381.4522,248.6238,387.7498,248.6266,394.0475,248.485,400.3452,248.5547,406.6428,248.4002,412.9405,248.6164,413.03,248.0316,413.202,248.3162,413.7341,247.8695,413.9633,247.9788,414.4228,247.6679,414.7082,247.6048,414.5558,247.3056,414.8336,247.0554,415.2295,246.601,415.1326,246.2671,415.3265,245.9002,415.4405,245.9002,415.7791,236.4101,415.8567,226.9201,415.4366,217.4301,415.7277,207.9401,414.8681,198.4501,415.7249,188.9601,415.9887,179.47,415.885,169.98,416.0535,160.49,415.4405,160.4284,415.2917,160.0533,415.0932,159.7036,414.9562,159.4218,414.983,159.0507,414.7942,158.7222,414.7082,158.9321,414.7952,158.522,414.3324,158.3237,413.9574,158.3532,413.6767,157.9311,413.209,157.99,412.9405,157.817,412.9405,158.2063,406.6428,158.1352,400.3452,158.2348,394.0475,157.8827,387.7498,157.99,381.4522,158.0883,381.4929,158.3183,381.1739,158.1374,380.6848,158.3998,380.3793,158.6146,380.054,158.7222,379.6844,158.8054,379.8851,159.0753,379.5367,159.4883,379.534,159.7123,379.0745,160.0501,378.8901,160.49,378.9522" style="stroke:#181818;stroke-width:0.5;"/><text fill="#000000" font-family="sans-serif" font-size="14" lengthAdjust="spacing" textLength="70.4102" x="167.99" y="402.4873">Direct Call</text></g><!--link ToolAgent to Tools--><g class="link" data-entity-1="ToolAgent" data-entity-2="Tools" data-source-line="8" data-uid="lnk5" id="link_ToolAgent_Tools"><path d="M91.57,162.6322 L91.8488,162.6605 L90.0236,172.3852 L89.8329,182.2759 L89.1099,192.1126 L86.6367,201.7714 L86.4831,211.6659 L85.0237,221.4277 L84.084,231.2423 L83.5959,241.1029" fill="none" style="stroke:#006400;stroke-width:1;"/><polygon fill="#006400" points="82.99,247.0722,83.0508,247.107,83.8478,245.2936,85.0013,243.6842,86.0387,242.0083,86.6943,240.1141,87.8785,238.5222,87.8621,238.5021,86.9119,239.1271,86.0443,239.8533,85.234,240.6499,84.226,241.2041,83.4949,242.0978,83.638,242.2144,82.617,241.0883,82.0136,240.3027,81.4612,239.5587,80.6123,238.5729,79.9194,237.7142,79.941,237.7213,80.5234,239.5825,81.2042,241.476,81.8375,243.3539,82.5614,245.2615,82.99,247.0722" style="stroke:#006400;stroke-width:1;"/><text fill="#000000" font-family="sans-serif" font-size="13" lengthAdjust="spacing" textLength="78.9141" x="89.48" y="205.7905">user request</text></g><!--link Agent to OLLAMA--><!--link Agent to ToolConf--><!--link Agent to DirectCall--><!--link OLLAMA to ToolConf--><!--link ToolConf to DirectCall--><!--link DirectCall to ExtRight--><!--link Tools to ExtLeft--><!--link Tools to ExtLeft--><g class="link" data-entity-1="Tools" data-entity-2="ExtLeft" data-source-line="35" data-uid="lnk24" id="link_Tools_ExtLeft"><path d="M78.46,284.4422 L78.737,284.4849 L76.3991,294.1701 L75.6848,304.106 L74.4418,313.9602 L71.4601,323.546 L70.7828,333.4876 L68.8083,343.2289 L67.35,353.0499 L66.2506,362.9263 L64.8254,372.7524" fill="none" style="stroke:#FFA500;stroke-width:1;"/><polygon fill="#FFA500" points="63.91,378.6822,63.9689,378.7201,64.8591,376.9506,66.0947,375.4033,67.2178,373.7836,67.971,371.9261,69.2363,370.3978,69.221,370.3769,68.2396,370.9517,67.3354,371.6319,66.4848,372.3852,65.4493,372.8862,64.6728,373.7407,64.8217,373.8498,63.8348,372.7039,63.2825,371.8764,62.7833,371.0877,61.9755,370.0731,61.3299,369.1773,61.3519,369.1832,61.8357,371.0755,62.4194,372.9948,62.9549,374.9011,63.5824,376.8323,63.91,378.6822" style="stroke:#FFA500;stroke-width:1;"/><text fill="#000000" font-family="sans-serif" font-size="13" lengthAdjust="spacing" textLength="61.4897" x="71.6" y="345.5205">direct call</text></g><!--link ExtLeft to ExtRight--><!--reverse link ExtLeft to ExtRight--><g class="link" data-entity-1="ExtLeft" data-entity-2="ExtRight" data-source-line="36" data-uid="lnk26" id="link_ExtLeft_ExtRight"><path d="M49.545,421.1964 L49.633,421.2279 L48.6347,423.1963 L48.1521,425.349 L47.5015,427.4416 L46.2987,429.3369 L45.8603,431.5055 L45.8262,431.5 L45.3424,433.5321 L45.0304,435.5919 L44.838,437.671 L44.2337,439.6837 L44.2063,441.7893 L44.4507,441.8173 L44.1638,443.8172 L44.5906,445.8989 L45.1044,447.9905 L45.1116,450.0241 L45.3853,452.0882 L45.4128,452.101 L46.3354,454.153 L47.3831,456.2632 L48.3705,458.3454 L49.4731,460.4811 L50.2,462.4422 L50.4257,462.6371 L52.7053,465.2763 L54.8393,467.7897 L57.1865,470.4872 L59.5436,473.1933 L61.5842,475.6261 L61.3925,475.3692 L64.573,477.9633 L67.1222,479.7114 L70.1513,482.1027 L72.6863,483.8316 L75.6263,486.1034 L75.6123,486.0764 L78.9116,488.0122 L81.8849,489.3159 L85.0505,490.9926 L88.2323,492.7006 L91.2977,494.1827 L91.3616,494.3563 L94.5515,495.3789 L97.8507,496.6983 L100.9732,497.5376 L104.3592,499.0929 L107.57,500.1722" fill="none" style="stroke:#181818;stroke-width:1;"/><polygon fill="#181818" points="51.91,415.6822,51.9576,415.7336,50.3714,416.9198,49.0644,418.4073,47.6664,419.7967,45.9695,420.8636,44.6864,422.3769,44.6768,422.3529,45.6842,421.825,46.7401,421.4184,47.8296,421.0961,48.8031,420.4833,49.9392,420.2774,50.1106,420.3459,50.164,421.25,50.7178,422.3541,51.3326,423.4825,51.5923,424.469,52.0387,425.5302,52.0615,425.5305,52.0023,423.5605,52.0467,421.5918,52.0412,419.6224,52.131,417.6543,51.91,415.6822" style="stroke:#181818;stroke-width:1;"/><text fill="#000000" font-family="sans-serif" font-size="13" lengthAdjust="spacing" textLength="84.8364" x="51.2" y="459.0105">HTTP request</text></g><!--link ToolAgent to OLLAMA--><g class="link" data-entity-1="ToolAgent" data-entity-2="OLLAMA" data-source-line="30" data-uid="lnk19" id="link_ToolAgent_OLLAMA"><path d="M100.42,109.1822 L100.5081,109.2134 L101.555,105.4239 L103.1181,101.8172 L104.5131,98.151 L105.3554,94.2891 L106.9628,90.6981 L106.9313,90.684 L107.6622,88.6739 L108.5519,86.7351 L109.5521,84.8457 L110.1717,82.7858 L111.3244,80.9647 L111.5414,81.0807 L112.1095,78.9007 L113.3111,77.0593 L114.5901,75.2592 L115.4193,73.2187 L116.485,71.3047 L116.5105,71.3212 L117.6758,69.4398 L118.9571,67.6334 L120.1824,65.7909 L121.5145,64.0174 L122.4987,62.0187 L122.7312,62.2056 L124.1182,60.4856 L125.3553,58.6451 L126.8119,56.9811 L128.2788,55.3253 L129.4197,53.4075 L129.1967,53.1773 L131.206,52.0969 L132.481,50.2586 L134.3142,48.9965 L135.5725,47.1409 L137.3021,45.7718 L137.2844,45.747 L139.2733,44.768 L140.8486,43.2103 L142.668,41.9941 L144.5079,40.8065 L146.2,39.4122 L146.2781,39.5799 L149.0593,38.0786 L151.974,36.8639 L154.6728,35.1856 L157.6936,34.1988 L160.5003,32.7522 L160.5329,32.9936 L163.0617,32.606 L165.6066,32.3382 L168.0764,31.5134 L170.6013,31.0969 L173.175,31.0422 L173.1231,30.7709 L175.7575,31.5115 L178.3335,31.9464 L180.9942,32.8246 L183.5102,32.9459 L186.1122,33.5172 L186.0567,33.3752 L189.1667,34.7907 L192.0395,35.5991 L195.0809,36.8393 L198.2874,38.5018 L201.2,39.4122 L201.2886,39.5843 L203.965,41.0492 L206.3657,41.9787 L209.1118,43.5787 L211.7826,45.0327 L214.278,46.1462 L214.161,45.9719 L216.6586,47.7252 L219.118,49.4213 L221.6526,51.2296 L223.8945,52.6019 L226.2999,54.2177 L226.4309,54.3761 L228.3377,55.8436 L230.4974,57.6168 L233.0266,59.8368 L234.8755,61.2343 L237.2733,63.2954 L237.4318,63.4568 L239.3243,65.3115 L241.1631,67.1116 L243.1229,69.0349 L245.3625,71.2432 L247.2063,73.0483 L247.1065,72.9603 L249.1837,75.2416 L250.5821,76.9246 L252.7523,79.2879 L254.488,81.2682 L256.1066,83.1452 L256.1925,83.2121 L257.6983,85.1801 L259.5116,87.3876 L261.047,89.3787 L262.4663,91.2794 L263.9821,93.2551 L264.0797,93.3235 L265.3064,95.1803 L266.9863,97.3545 L268.1536,99.1697 L269.5318,101.1325 L270.8406,103.0469 L270.6129,102.9012 L271.8588,104.7783 L273.3791,106.831 L274.5112,108.6353 L275.5041,110.3506 L276.6901,112.1894" fill="none" style="stroke:#006400;stroke-width:1;"/><polygon fill="#006400" points="279.83,117.3022,279.8994,117.3114,279.4328,115.3314,279.3733,113.4057,279.1813,111.4623,278.5532,109.4608,278.5287,107.5397,278.5035,107.5337,278.1274,108.607,277.8782,109.7107,277.7174,110.8355,277.2523,111.8876,277.2134,113.0415,277.2563,113.221,276.0642,112.5741,274.9973,112.4513,273.9458,112.3924,272.8053,111.9615,271.7116,111.7262,271.7245,111.745,273.3292,112.8326,274.9926,114.0057,276.6278,115.1375,278.3168,116.3479,279.83,117.3022" style="stroke:#006400;stroke-width:1;"/><text fill="#000000" font-family="sans-serif" font-size="13" lengthAdjust="spacing" textLength="50.0576" x="200.2" y="19.8105">tool call</text></g><!--reverse link ToolAgent to OLLAMA--><g class="link" data-entity-1="ToolAgent" data-entity-2="OLLAMA" data-source-line="31" data-uid="lnk21" id="link_ToolAgent_OLLAMA"><path d="M102.153,103.4379 L102.241,103.4693 L103.234,99.8588 L104.7428,96.4322 L106.0836,92.9457 L106.872,89.2622 L108.4251,85.8514 L108.3943,85.8356 L110.0417,82.2812 L111.844,78.8061 L113.754,75.3863 L115.2928,71.7762 L117.3515,68.4326 L117.5539,68.5726 L118.2603,66.6269 L119.5575,65.09 L120.9267,63.603 L121.8766,61.8258 L123.0471,60.2012 L123.07,60.221 L124.365,58.6537 L125.7645,57.1766 L127.1135,55.6559 L128.5588,54.2184 L129.6905,52.51 L129.8911,52.7307 L131.4307,51.3364 L132.841,49.7997 L134.4407,48.4714 L136.0492,47.1529 L137.3765,45.5249 L137.194,45.2615 L139.313,44.5503 L140.8309,42.9715 L142.8057,42.0523 L144.31,40.4539 L146.2,39.4122 L146.1871,39.3846 L149.1992,38.379 L151.911,36.7286 L154.7999,35.4586 L157.7038,34.2206 L160.5003,32.7522 L160.525,32.9355 L163.035,32.4085 L165.5873,32.1947 L168.0711,31.4741 L170.657,31.5094 L173.175,31.0422 L173.2208,31.2815 L175.7996,31.7312 L178.4011,32.2998 L180.897,32.3163 L183.4703,32.7375 L186.1122,33.5172 L186.0117,33.2599 L189.1202,34.6718 L192.1155,35.7938 L195.2751,37.3363 L198.1542,38.1609 L201.2,39.4122 L201.129,39.2773 L203.8898,40.8927 L206.3472,41.9314 L209.0203,43.3803 L211.9047,45.2304 L214.4129,46.3659 L214.5239,46.5246 L217.0755,48.3636 L219.282,49.709 L221.9207,51.6726 L224.4653,53.5015 L226.7905,55.0166 L226.6534,54.8576 L229.0579,56.9636 L231.4176,59.0176 L233.8654,61.1739 L235.9703,62.9324 L238.2668,64.9131 L238.4134,65.0572 L240.1932,66.8789 L242.2559,68.9787 L244.7321,71.485 L246.4471,73.243 L248.7762,75.6047 L248.9479,75.7521 L250.7413,77.8716 L252.4766,79.9414 L254.343,82.1236 L256.5124,84.566 L258.253,86.6403 L258.1474,86.5594 L260.1375,88.9861 L261.4094,90.8623 L263.4978,93.3645 L265.1266,95.5143 L266.6314,97.5691 L266.7208,97.6312 L268.0915,99.6552 L269.7822,101.9019 L271.1838,103.9474 L272.4646,105.9088 L273.8456,107.94 L273.9461,108.0042 L274.9937,109.7813 L276.5077,111.8564 L277.4943,113.5944 L278.6978,115.4711 L279.83,117.3022" fill="none" style="stroke:#00008B;stroke-width:1;"/><polygon fill="#00008B" points="100.42,109.1822,100.4731,109.2279,101.6012,107.5998,103.0404,106.2398,104.3784,104.7925,105.3831,103.0581,106.8491,101.7211,106.8368,101.6983,105.7849,102.1307,104.7947,102.6782,103.8474,103.3056,102.7522,103.6574,101.8642,104.3953,102.0268,104.4825,101.1442,103.299,100.7364,102.3702,100.3866,101.4724,99.6997,100.3939,99.19,99.4104,99.2126,99.4133,99.4255,101.3635,99.7411,103.3266,100.0071,105.2834,100.3677,107.2522,100.42,109.1822" style="stroke:#00008B;stroke-width:1;"/><text fill="#000000" font-family="sans-serif" font-size="13" lengthAdjust="spacing" textLength="50.0576" x="200.2" y="19.8105">tool call</text></g><!--link ToolConf to Tools--><g class="link" data-entity-1="ToolConf" data-entity-2="Tools" data-source-line="32" data-uid="lnk22" id="link_ToolConf_Tools"><path d="M256.11,265.7122 L256.11,265.9924 L246.1164,265.1598 L236.1229,265.9699 L226.1293,266.2451 L216.1357,264.761 L206.1421,265.6086 L196.1486,265.1435 L186.155,265.2009 L176.1614,265.6213 L166.1679,264.7904 L156.1743,266.4504 L146.1807,264.8718 L136.1871,265.4485 L126.1936,266.2881 L116.2,265.7122" fill="none" style="stroke:#181818;stroke-width:1;stroke-dasharray:7,7;"/><polygon fill="#181818" points="110.2,265.7122,110.2285,265.7762,111.9439,266.386,113.8262,267.3711,115.6541,268.2339,117.3034,268.6949,119.2,269.7122,119.1817,269.6939,118.2995,268.8117,117.5096,268.0218,116.7839,267.2961,115.837,266.3492,115.2,265.7122,115.3305,265.8427,115.8514,264.7636,116.7534,264.0656,117.7018,263.414,118.3798,262.492,119.2,261.7122,119.2092,261.733,117.3957,262.5025,115.6242,263.3666,113.8324,264.185,112.0793,265.0906,110.2,265.7122" style="stroke:#181818;stroke-width:1;"/></g><!--link DirectCall to Tools--><g class="link" data-entity-1="DirectCall" data-entity-2="Tools" data-source-line="33" data-uid="lnk23" id="link_DirectCall_Tools"><path d="M186.69,378.6822 L186.894,378.8744 L179.2324,370.814 L172.7666,363.8802 L165.9114,356.5795 L157.7756,348.0725 L151.3371,341.1643 L143.9431,333.356 L136.9293,325.906 L130.1798,318.7049 L122.5195,310.6457 L116.6723,304.2947 L108.4678,295.7229 L102.0239,288.8097" fill="none" style="stroke:#181818;stroke-width:1;stroke-dasharray:7,7;"/><polygon fill="#181818" points="97.91,284.4422,97.9761,284.4654,98.4315,286.2553,99.2745,288.1811,99.9913,290.0626,100.293,291.7987,101.1692,293.7361,101.1433,293.7354,101.0609,292.601,101.1091,291.4706,101.248,290.3429,101.0741,289.2058,101.3383,288.0818,101.3438,288.2663,102.4629,287.9056,103.598,288.0835,104.7352,288.3272,105.8609,288.1885,106.9926,288.2509,107.0014,288.2719,105.172,287.4793,103.3826,286.7823,101.5739,286.0392,99.802,285.384,97.91,284.4422" style="stroke:#181818;stroke-width:1;"/></g><!--SRC=[XLFBRi8m4BpxAxPmu1G-W4Cb7gMjH0MgwA627g9a2HR6fhOHI5N_ftm7FrQ_OjpGgZTdTtQyCvxSY9scWiCwv-L1KgsHWvPx94HYeNDUCOHMlqAkMv0hS2Vu8019Uou4oruKvTMINw2swk7j2QtM-buYykj15S4g05-HCN4W1jg1CJj_5MjKGBb6oL6PweKuAyM1BzgZN6uS-rjs6vXwi5SepLtlUrIQV1gs3cHP1WCc2WLuz6osb0gTJYRzfxxRo1_3IWDc74bmTsu-Pz2VFNe1fZB1bT4wetppB_JPaWOiQHYov4F1LxJQozo-JBJ7LbFiYDeF6EQCEOp_jfzHx4meQZauRgrT-MudnP5k3U_AAGykBjQqB8rxqcwL1UL_DECclxUJ9OA14M7VAfcl3qr0md0vDa6rXSI_zdNNlWMftwIvP9mctgOn4zfaWck9S3wnyycwvREHPCqDDy8MDFP06nmKgMncRlPe6vuwcPuhnKSVkbs_NeXmghxPgcNx-4-bIOIxeHRSWzA7mzqGy-Ps-W5xcCzdyIVv1W00]--></g></svg>